<svg width="150" height="150" viewBox="0 0 150 150" fill="none" xmlns="http://www.w3.org/2000/svg">
<path d="M72.7002 48.3H77.1002C77.6002 48.3 78.0002 47.9 78.0002 47.4C78.0002 46.9 77.6002 46.5 77.1002 46.5H72.7002V48.3ZM72.7002 52.5H77.2002C77.8002 52.5 78.2002 52.1 78.2002 51.5C78.2002 50.9 77.8002 50.5 77.2002 50.5H72.7002V52.5ZM79.8002 49.3C80.4002 49.9 80.8002 50.7 80.8002 51.6C80.8002 53.4 79.4002 54.8 77.6002 54.8H70.3002V44.3H77.5002C79.2002 44.3 80.6002 45.7 80.6002 47.4C80.5002 48.1 80.2002 48.8 79.8002 49.3V49.3ZM81.5002 67.3H78.8002L78.0002 65.5H72.1002L71.3002 67.3H68.6002L73.8002 56.8H76.2002L81.5002 67.3ZM75.0002 59.5L73.2002 63.3H76.8002L75.0002 59.5V59.5ZM78.6002 69.6H81.6002L76.3002 76.4V80.1H73.8002V76.4L68.5002 69.6H71.5002L75.1002 74.4L78.6002 69.6V69.6ZM92.5002 69.6V71.9H85.5002V73.7H92.3002V76H85.5002V78H92.5002V80.3H83.0002V69.6H92.5002V69.6ZM100.2 76.1H98.3002V80.1H95.8002V69.6H102.2C104 69.6 105.4 71.1 105.4 72.9C105.4 74.4 104.4 75.6 103.1 76L106.2 80.1H103.2L100.2 76.1V76.1ZM102 71.8H98.4002V73.8H102C102.6 73.8 103 73.3 103 72.8C103 72.3 102.5 71.8 102 71.8ZM69.6002 80.1H66.9002L66.1002 78.3H60.2002L59.4002 80.1H56.7002L62.0002 69.6H64.4002L69.6002 80.1ZM63.1002 72.3L61.3002 76.1H65.0002L63.1002 72.3ZM47.2002 73.6H51.6002C52.1002 73.6 52.5002 73.2 52.5002 72.7C52.5002 72.2 52.1002 71.8 51.6002 71.8H47.2002V73.6ZM47.2002 77.8H51.7002C52.3002 77.8 52.7002 77.4 52.7002 76.8C52.7002 76.2 52.3002 75.8 51.7002 75.8H47.2002V77.8ZM54.3002 74.6C54.9002 75.2 55.3002 76 55.3002 76.9C55.3002 78.7 53.9002 80.1 52.1002 80.1H44.7002V69.6H51.9002C53.6002 69.6 55.0002 71 55.0002 72.7C55.0002 73.4 54.7002 74.1 54.3002 74.6V74.6ZM79.8002 82.3V84.6H72.8002V86.4H79.6002V88.7H72.8002V90.7H79.8002V93H70.3002V82.3H79.8002V82.3ZM78.0002 98.6C78.0002 98 77.6002 97.6 77.0002 97.6H72.7002V99.6H77.0002C77.6002 99.6 78.0002 99.2 78.0002 98.6ZM70.2002 105.9V95.4H77.2002C79.0002 95.4 80.4002 96.9 80.4002 98.7C80.4002 100.1 79.6002 101.2 78.4002 101.7L81.6002 105.9H78.6002L75.6002 101.9H72.7002V105.9H70.2002V105.9Z" fill="white"/>
<path d="M112.9 72.6C111.7 52.8 95.2001 37 75.0001 37C54.8001 37 38.3001 52.8 37.1001 72.6C37.1001 73.4 37.2001 74.2 37.3001 75C38.1001 81.6 40.6001 87.7 44.4001 92.8C51.3001 102.2 62.4001 108.3 75.0001 108.3C57.4001 108.3 43.0001 94.6 41.8001 77.4C41.7001 76.6 41.7001 75.8 41.7001 75C41.7001 74.2 41.7001 73.4 41.8001 72.6C43.0001 55.4 57.4001 41.7 75.0001 41.7C87.6001 41.7 98.7001 47.8 105.6 57.2C109.4 62.3 111.9 68.4 112.7 75C112.8 75.8 112.9 76.6 112.9 77.3C112.9 76.5 113 75.7 113 74.9C113 74.2 113 73.4 112.9 72.6" fill="white"/>
<path d="M37.1 77.4C38.3 97.2 54.8 113 75 113C95.2 113 111.7 97.2 112.9 77.4C112.9 76.6 112.8 75.8 112.7 75C111.9 68.4 109.4 62.3 105.6 57.2C98.7 47.8 87.6 41.7 75 41.7C92.6 41.7 107 55.4 108.2 72.6C108.3 73.4 108.3 74.2 108.3 75C108.3 75.8 108.3 76.6 108.2 77.4C107 94.7 92.6 108.3 75 108.3C62.4 108.3 51.3 102.2 44.4 92.8C40.6 87.7 38.1 81.6 37.3 75C37.2 74.2 37.1 73.4 37.1 72.7C37.1 73.5 37 74.3 37 75.1C37 75.8 37 76.6 37.1 77.4Z" fill="white"/>
</svg>
