<svg width="150" height="150" viewBox="0 0 150 150" fill="none" xmlns="http://www.w3.org/2000/svg">
<path d="M129.587 74.4596C129.504 74.9057 129.405 74.6911 129.332 74.4731C127.809 69.4358 122.962 65.7533 117.218 65.7533C111.492 65.7533 106.656 69.4139 105.118 74.4279C105.048 74.6911 104.833 74.625 104.83 74.4267C104.706 69.0789 100.577 65.553 95.1958 65.5856C92.472 65.602 90.2553 66.6526 89.4331 67.8007C89.3662 67.9005 89.2018 67.9324 89.2018 67.7009V60H83.3735V78.0456C83.3735 80.7559 81.7174 84.5236 77.8098 84.5236C74.233 84.5236 72.511 82.4747 72.511 78.4424V71.105H81.6511V65.5526H72.511V60H66.6825V74.4433C66.6825 74.7903 66.4672 74.7903 66.3389 74.4586C64.834 69.4045 60.0144 65.6949 54.3631 65.6949C50.5724 65.6949 47.2872 67.2784 44.9708 69.8953C44.8752 69.9813 44.8091 69.8988 44.8256 69.783V65.5526C35.0139 65.5526 32.8089 71.0842 32.2867 74.5254C32.2413 74.8069 31.9598 74.7903 31.8981 74.5081C30.4441 69.4202 25.7514 65.6949 20.1869 65.6949C17.8582 65.6949 15.683 66.6762 13.8298 68.3969C13.8298 68.3969 13.8285 60.0002 13.8298 60.0002L8 60L8.01 77.8471C8.025 84.5588 13.4618 90 20.1869 90C25.8231 90 30.565 86.1781 31.9527 80.9897C32.0094 80.8384 32.1088 80.8549 32.1088 80.987V89.3488H37.9373V77.9137C37.9373 72.1932 41.2776 71.2711 43.7995 71.1296C43.9644 71.1215 43.9692 71.1963 43.9089 71.2828C42.6644 73.176 41.9426 75.4295 41.9426 77.8471C41.9426 84.5588 47.5035 90 54.3631 90C60.003 90 64.7982 86.3216 66.3134 81.2829C66.401 80.8384 66.6698 80.839 66.7094 81.2849C67.0117 85.0508 69.9043 89.8775 77.2799 89.8775C79.7452 89.8775 82.0439 88.511 82.9201 87.5071C83.1412 87.2999 83.3733 87.2999 83.3733 87.6963V89.3488H89.2016V76.3601C89.3341 73.9143 90.5925 70.8077 94.0033 70.8077C98.2755 70.8077 99.0041 73.617 99.0041 74.6746V89.349H104.833V81.3012C104.833 81.0699 105.081 81.103 105.109 81.237C106.637 86.2666 111.48 89.9415 117.218 89.9415C122.942 89.9415 127.617 86.5894 128.629 81.3241L123.196 81.3202C122.078 83.756 119.821 85.4207 117.218 85.4207C114.119 85.4207 111.509 83.0421 110.73 79.8289L116.821 79.8305H129.339V89.349H135.168V77.9137C135.168 71.3693 139.936 71.105 142.453 71.105V65.5526C132.703 65.5526 130.238 71.0144 129.587 74.4596ZM19.8544 84.6945C16.0781 84.6945 13.0167 81.639 13.0167 77.8702C13.0167 74.1016 16.0781 71.0463 19.8544 71.0463C23.6308 71.0463 26.6922 74.1018 26.6922 77.8702C26.6922 81.639 23.6308 84.6945 19.8544 84.6945ZM54.237 84.6945C50.4607 84.6945 47.3993 81.639 47.3993 77.8702C47.3993 74.1016 50.4607 71.0463 54.237 71.0463C58.0135 71.0463 61.0748 74.1018 61.0748 77.8702C61.075 81.639 58.0135 84.6945 54.237 84.6945V84.6945ZM117.074 75.0432V75.0422H111.217C112.202 72.2382 114.631 70.2553 117.471 70.2553C120.312 70.2553 122.741 72.2388 123.727 75.0432H117.074V75.0432ZM138.872 87.5235C138.654 87.3068 138.39 87.1983 138.08 87.1983C137.773 87.1983 137.511 87.3068 137.294 87.5235C137.075 87.7409 136.966 88.0034 136.966 88.3103C136.966 88.62 137.074 88.884 137.291 89.1015C137.508 89.3205 137.771 89.4297 138.08 89.4297C138.39 89.4297 138.654 89.3205 138.872 89.1015C139.09 88.8829 139.199 88.6189 139.199 88.3103C139.199 88.0022 139.09 87.74 138.872 87.5235ZM138.761 88.9936C138.574 89.1821 138.347 89.2761 138.08 89.2761C137.813 89.2761 137.587 89.1822 137.4 88.9936C137.214 88.8052 137.121 88.5775 137.121 88.3101C137.121 88.0445 137.214 87.8184 137.402 87.6311C137.589 87.4427 137.815 87.3483 138.08 87.3483C138.346 87.3483 138.573 87.4425 138.761 87.6311C138.947 87.8186 139.041 88.0445 139.041 88.3101C139.041 88.5775 138.947 88.8052 138.761 88.9936Z" fill="white"/>
<path d="M138.579 88.9039C138.574 88.8941 138.571 88.8727 138.568 88.8404C138.566 88.81 138.565 88.7795 138.565 88.7491V88.6593C138.565 88.5978 138.543 88.5343 138.498 88.4697C138.454 88.4047 138.383 88.3649 138.286 88.3495C138.362 88.3376 138.422 88.3176 138.465 88.2901C138.545 88.2386 138.585 88.1578 138.585 88.0486C138.585 87.8946 138.521 87.7913 138.395 87.7389C138.324 87.7096 138.212 87.6948 138.06 87.6948H137.631V88.9191H137.847V88.4361H138.017C138.132 88.4361 138.212 88.4491 138.258 88.4755C138.335 88.5208 138.374 88.6149 138.374 88.7564V88.8537L138.378 88.8931C138.379 88.8983 138.38 88.9029 138.381 88.9069C138.382 88.911 138.383 88.9149 138.384 88.9189H138.587L138.579 88.9039V88.9039ZM138.247 88.2584C138.202 88.2768 138.133 88.2859 138.042 88.2859H137.847V87.8423H138.031C138.151 87.8423 138.238 87.8573 138.292 87.8877C138.346 87.9181 138.374 87.9782 138.374 88.0673C138.374 88.1615 138.331 88.2249 138.247 88.2584V88.2584Z" fill="white"/>
</svg>
