<svg width="150" height="150" viewBox="0 0 150 150" fill="none" xmlns="http://www.w3.org/2000/svg">
<path d="M80.1756 61.7688C78.8428 60.7624 77.1397 60.6884 75.7181 61.5468C74.3409 62.346 73.5856 63.7816 73.7337 65.454C73.8818 66.3272 74.0151 66.7564 74.637 67.9848L81.8786 63.7964C81.227 62.716 80.9308 62.346 80.1756 61.7688Z" fill="white"/>
<path d="M60.9096 72.7504C59.636 71.818 57.8738 71.744 56.5261 72.5284C55.1193 73.3276 54.3196 74.8372 54.4677 76.4356C54.6158 77.368 54.7491 77.812 55.3414 78.9664L62.6866 74.852C61.961 73.7716 61.6352 73.3424 60.9096 72.7504Z" fill="white"/>
<path d="M109.038 50.136L106.906 51.0832C104.299 52.3856 102.448 51.9564 101.338 50.0768C100.138 47.9012 101.056 45.5184 103.796 44.0088C105.425 43.0764 107.276 42.5584 108.831 42.8544L108.461 44.2308C107.128 44.0828 105.78 44.3788 104.373 45.104C102.374 46.3324 101.767 47.7828 102.596 49.3664C103.322 50.5948 104.522 50.8168 106.284 49.9436L108.387 49.0112C109.684 48.363 110.952 48.067 112 48.4296V44.7192C112 41.034 109.023 38 105.336 38H61.9608L69.7502 51.3792L79.0206 46.0956L81.7306 50.8612L67.0698 59.386L54.6896 38H44.664C40.9618 38 38 41.034 38 44.7192V105.355C38 108.966 40.9766 112 44.664 112H112V55.9968C111.704 56.2188 111.319 56.426 111.023 56.574C108.89 57.8024 106.965 58.2316 105.01 57.6544L105.41 56.278C106.965 56.7072 108.52 56.5 110.297 55.4788C111.023 55.1236 111.63 54.6056 112 54.1764V50.136C111.319 49.5588 110.371 49.5588 109.038 50.136V50.136ZM49.1955 65.158C45.5821 64.2108 43.8791 61.0436 41.954 57.7876C39.9992 54.4576 38.0889 51.3644 39.0514 47.7384C39.7771 45.2076 41.1099 43.18 43.7903 41.6704C49.5065 38.4144 53.9936 40.664 56.674 43.9792L51.2095 47.1612C49.8027 45.7848 48.4551 45.4296 46.6188 46.51C45.5673 47.0872 45.1379 47.9604 44.9898 48.7448C44.9157 49.6032 44.9898 50.6244 47.3444 54.5908C49.6546 58.6312 50.4543 59.2232 51.2836 59.5784C52.0092 59.9336 52.9866 59.8596 53.9936 59.2824C55.1191 58.6312 55.7262 57.832 55.8743 57.0476C56.1705 56.0412 55.8743 55.02 55.3264 54.2356L55.1783 53.8804L51.9204 55.76L49.314 51.2756L57.9328 46.214L59.7246 49.3368C61.8275 52.874 62.4791 55.2568 61.8275 57.9356C60.9982 61.0436 59.2211 62.7012 56.7629 64.1516C54.2602 65.602 51.7278 65.8832 49.1955 65.158V65.158ZM63.338 83.8948C59.932 85.8484 56.8961 84.694 54.5415 80.5648C52.2313 76.5984 52.7645 73.1204 55.8743 71.3888C58.9101 69.6572 62.1089 70.8856 64.2413 74.5708L64.5375 75.148L56.0224 80.1208C57.7995 83.2288 60.1541 84.102 62.7605 82.5776C64.2413 81.7784 64.8929 80.846 65.3668 79.1884L66.7737 79.4104C66.2257 81.364 65.4409 82.6664 63.338 83.8948V83.8948ZM71.9568 78.7592L60.3762 69.006L61.8571 68.2068L71.7346 76.8796L69.2764 63.8704L70.6832 63.0712L73.2303 78.034L71.9568 78.7592V78.7592ZM82.634 72.8392C79.2279 74.7928 76.1921 73.6976 73.7931 69.5092C71.5125 65.528 72.016 62.1388 75.0666 60.3332C78.1765 58.6756 81.3604 59.83 83.5077 63.5152L83.8335 64.0924L75.2147 69.0652C77.0658 72.1732 79.4501 73.0464 82.0268 71.596C83.5077 70.7968 84.2037 69.7904 84.6332 68.2068L86.04 68.4288C85.4625 70.3084 84.7072 71.6848 82.634 72.8392ZM97.2948 64.2996L92.9558 56.5444C91.5489 54.1616 89.5942 53.5844 87.3876 54.8128C85.2403 56.1152 84.7072 58.2168 86.04 60.5256L90.4235 68.192L89.0907 68.9172L82.0268 56.5592L83.3596 55.834L84.1889 57.2844C84.4851 55.7008 85.4625 54.4724 86.9434 53.5992C88.2762 52.8 89.5793 52.5928 90.8529 52.948C92.1265 53.244 93.2371 54.1024 94.1109 55.6268L98.5683 63.5004L97.2948 64.2996V64.2996ZM105.558 59.534L104.359 60.1852C102.433 61.3396 100.656 60.4664 99.6198 58.6904L94.955 50.5208L93.2519 51.468L92.63 50.5208L94.333 49.5884L92.1265 45.6072L93.4 44.882L95.6806 48.8484L98.4351 47.2648L99.057 48.1972L96.2285 49.7808L100.893 57.9504C101.619 59.2528 102.67 59.682 104.003 58.9568L104.877 58.4536L105.558 59.534V59.534Z" fill="white"/>
</svg>
