<svg width="150" height="150" viewBox="0 0 150 150" fill="none" xmlns="http://www.w3.org/2000/svg">
<path fill-rule="evenodd" clip-rule="evenodd" d="M14.9473 96.7755C14.6491 96.7755 14.2548 96.7499 13.9556 96.7247V100H13V90.8187C13.6455 90.7305 14.2905 90.6666 15.0068 90.6666C17.2648 90.6666 18.3763 92.0321 18.3763 93.6136C18.3763 95.4725 17.0978 96.7755 14.9473 96.7755ZM15.1509 91.5774C14.7438 91.5774 14.2667 91.6021 13.9556 91.6786V95.8139C14.2548 95.8521 14.6729 95.8899 15.0068 95.8899C16.6445 95.8899 17.3489 94.8905 17.3489 93.6891C17.3489 92.6016 16.596 91.5774 15.1509 91.5774Z" fill="white"/>
<path fill-rule="evenodd" clip-rule="evenodd" d="M27.9642 100L25.6246 96.3446C25.4321 96.3577 25.2405 96.3698 25.037 96.3698C24.7484 96.3698 24.3285 96.3577 24.0408 96.3446V100H23.0806V90.8187C23.7284 90.7301 24.3763 90.6666 25.1086 90.6666C27.3766 90.6666 28.4921 91.8559 28.4921 93.4494C28.4921 94.7389 27.8085 95.7127 26.573 96.1306L29.129 100H27.9642ZM25.2525 91.577C24.8444 91.577 24.3524 91.6021 24.0408 91.6782V95.4473C24.3285 95.4851 24.7728 95.5103 25.1086 95.5103C26.7526 95.5103 27.4602 94.7132 27.4602 93.5129C27.4602 92.4248 26.6924 91.577 25.2525 91.577Z" fill="white"/>
<path fill-rule="evenodd" clip-rule="evenodd" d="M37.8201 100C35.2713 100 33.1611 98.0525 33.1611 95.3397C33.1611 92.6269 35.362 90.6666 37.9103 90.6666C40.4586 90.6666 42.5697 92.6269 42.5697 95.3397C42.5697 98.0525 40.3689 100 37.8201 100ZM37.8718 91.5537C35.7735 91.5537 34.2813 93.2062 34.2813 95.3397C34.2813 97.4732 35.7735 99.1251 37.8718 99.1251C39.9564 99.1251 41.4501 97.4732 41.4501 95.3397C41.4501 93.2062 39.9564 91.5537 37.8718 91.5537Z" fill="white"/>
<path fill-rule="evenodd" clip-rule="evenodd" d="M48.9483 91.5836V94.9828H52.8845V95.8997H48.9483V100H47.9463V90.6666H53.3226V91.5836H48.9483Z" fill="white"/>
<path fill-rule="evenodd" clip-rule="evenodd" d="M58.0269 100V90.6666H63.4032V91.5832H59.0298V94.8048H62.9656V95.7219H59.0298V99.0829H63.4032V100H58.0269Z" fill="white"/>
<path fill-rule="evenodd" clip-rule="evenodd" d="M70.0498 100C69.0262 100 68.2245 99.6799 67.4355 99.1624L67.9167 98.2989C68.6079 98.7928 69.3968 99.101 70.0989 99.101C71.259 99.101 71.8015 98.3362 71.8015 97.5223C71.8015 96.7329 71.4927 96.2645 70.013 95.6107C68.4469 94.9204 67.8676 94.217 67.8676 93.132C67.8676 91.8257 68.9771 90.6666 70.6291 90.6666C71.3936 90.6666 72.1216 90.9253 72.6396 91.2827L72.1953 92.1212C71.7514 91.8011 71.1594 91.5665 70.5678 91.5665C69.4337 91.5665 68.8539 92.2577 68.8539 93.0834C68.8539 93.7127 69.2849 94.217 70.3954 94.7226C72.2817 95.5738 72.8119 96.2027 72.8119 97.4113C72.8119 98.8782 71.6159 100 70.0498 100Z" fill="white"/>
<path fill-rule="evenodd" clip-rule="evenodd" d="M80.1302 100C79.1066 100 78.305 99.6799 77.5161 99.1624L77.9972 98.2989C78.6884 98.7928 79.4772 99.101 80.1793 99.101C81.3397 99.101 81.8817 98.3362 81.8817 97.5223C81.8817 96.7329 81.5729 96.2645 80.0933 95.6107C78.5274 94.9204 77.9481 94.217 77.9481 93.132C77.9481 91.8257 79.058 90.6666 80.7099 90.6666C81.4738 90.6666 82.2018 90.9253 82.7197 91.2827L82.2754 92.1212C81.8316 91.8011 81.2401 91.5665 80.6481 91.5665C79.5141 91.5665 78.9343 92.2577 78.9343 93.0834C78.9343 93.7127 79.3654 94.217 80.4757 94.7226C82.3623 95.5738 82.8925 96.2027 82.8925 97.4113C82.8925 98.8782 81.6961 100 80.1302 100Z" fill="white"/>
<mask id="mask0_1277_3476" style="mask-type:alpha" maskUnits="userSpaceOnUse" x="13" y="50" width="125" height="50">
<path d="M13 100H138V50H13V100Z" fill="white"/>
</mask>
<g mask="url(#mask0_1277_3476)">
<path fill-rule="evenodd" clip-rule="evenodd" d="M87.5967 100H88.6048V90.6666H87.5967V100Z" fill="white"/>
<path fill-rule="evenodd" clip-rule="evenodd" d="M98.3037 100C95.7551 100 93.645 98.0525 93.645 95.3397C93.645 92.6269 95.8463 90.6666 98.3944 90.6666C100.942 90.6666 103.054 92.6269 103.054 95.3397C103.054 98.0525 100.853 100 98.3037 100ZM98.356 91.5537C96.2577 91.5537 94.7651 93.2062 94.7651 95.3397C94.7651 97.4732 96.2577 99.1251 98.356 99.1251C100.44 99.1251 101.934 97.4732 101.934 95.3397C101.934 93.2062 100.44 91.5537 98.356 91.5537Z" fill="white"/>
<path fill-rule="evenodd" clip-rule="evenodd" d="M115.019 100L108.803 93.0091V99.8285H107.758V90.715L107.968 90.6666L114.106 97.5466V90.838H115.151V99.9629L115.019 100Z" fill="white"/>
<path fill-rule="evenodd" clip-rule="evenodd" d="M126.8 100L125.666 97.4596H121.396L120.263 100H119.183L123.467 90.6666H123.635L127.919 100H126.8ZM123.531 92.6806L121.773 96.6212H125.289L123.531 92.6806Z" fill="white"/>
<path fill-rule="evenodd" clip-rule="evenodd" d="M132.624 100V90.6666H133.627V99.0829H138V100H132.624Z" fill="white"/>
<path fill-rule="evenodd" clip-rule="evenodd" d="M27.1133 81.3334H33.8832L34.6118 78.1505H37.7872V81.3334H44.5864V59.3334H32.0569L27.1133 81.3334ZM37.767 64.6522L37.7872 72.4995H35.7013L37.767 64.6522Z" fill="white"/>
<path fill-rule="evenodd" clip-rule="evenodd" d="M25.8545 59.3334H18.0673L13 81.3334H25.5644L27.1129 74.5472H22.3572L25.8545 59.3334Z" fill="white"/>
<path fill-rule="evenodd" clip-rule="evenodd" d="M57.72 59.3334L54.2207 74.9497V59.3334H47.2744V81.3334H59.7931L64.7475 59.3334H57.72Z" fill="white"/>
<path fill-rule="evenodd" clip-rule="evenodd" d="M133.06 59.3334H120.527V81.3334H127.326V78.1496H130.509L131.235 81.3334H138L133.06 59.3334ZM127.326 72.4981L127.345 64.6513L129.396 72.4981H127.326Z" fill="white"/>
<path fill-rule="evenodd" clip-rule="evenodd" d="M113.67 74.8083L115.311 59.3334H101.038L102.308 66.3608H106.981L105.575 81.3334H119.183L117.814 74.8083H113.67Z" fill="white"/>
<path fill-rule="evenodd" clip-rule="evenodd" d="M98.2226 74.8083L99.8621 59.3334H85.5806L86.833 66.3608H91.5381L90.114 81.3334H103.726L102.375 74.8083H98.2226Z" fill="white"/>
<path fill-rule="evenodd" clip-rule="evenodd" d="M69.1406 50L62.0586 81.3333H70.7428L71.7557 75.993H78.5669L79.6117 81.3333H88.2683L81.2425 50H69.1406ZM72.8948 69.0921L75.1615 57.0837L77.503 69.0921H72.8948Z" fill="white"/>
</g>
</svg>
