<svg width="150" height="150" viewBox="0 0 150 150" fill="none" xmlns="http://www.w3.org/2000/svg">
<mask id="mask0_1277_3542" style="mask-type:alpha" maskUnits="userSpaceOnUse" x="110" y="57" width="21" height="21">
<path d="M110.086 57.0007H130.982V77.8957H110.086V57.0007Z" fill="white"/>
</mask>
<g mask="url(#mask0_1277_3542)">
<path fill-rule="evenodd" clip-rule="evenodd" d="M120.534 62.7606C121.777 62.7619 122.968 63.2562 123.847 64.1349C124.726 65.0137 125.22 66.2051 125.221 67.4479V67.5846C125.221 68.1823 125.104 68.7741 124.875 69.3262C124.646 69.8784 124.311 70.3801 123.888 70.8026C123.465 71.2252 122.964 71.5603 122.411 71.7889C121.859 72.0176 121.267 72.1352 120.67 72.1351C118.262 72.1351 116.143 70.3765 115.876 67.9839C115.801 67.3275 115.866 66.6627 116.066 66.033C116.266 65.4033 116.597 64.823 117.036 64.3299C117.476 63.8369 118.015 63.4422 118.618 63.1718C119.221 62.9014 119.874 62.7613 120.534 62.7606V62.7606ZM120.751 77.8958H129.874C130.485 77.8958 130.982 77.4005 130.982 76.7885V67.4479C130.982 61.6783 126.305 57 120.534 57C114.666 57 109.927 61.8378 110.091 67.7421C110.247 73.433 115.058 77.8958 120.751 77.8958" fill="white"/>
</g>
<path fill-rule="evenodd" clip-rule="evenodd" d="M30.2932 57C24.7945 57 20.3362 61.3817 20.3362 66.789L20.2572 76.4096C20.2559 76.5534 20.2835 76.6961 20.3385 76.8294C20.3934 76.9628 20.4746 77.0841 20.5774 77.1865C20.6802 77.2889 20.8026 77.3703 20.9375 77.4261C21.0723 77.4818 21.2171 77.5109 21.3634 77.5115L25.855 77.5312C26.0012 77.5319 26.1461 77.5042 26.2813 77.4497C26.4166 77.3952 26.5396 77.315 26.6433 77.2138C26.7471 77.1125 26.8294 76.9921 26.8858 76.8595C26.9421 76.7269 26.9713 76.5846 26.9717 76.4409L27.0036 66.8407V66.789C27.0045 65.9314 27.3513 65.1093 27.968 64.5028C28.5848 63.8964 29.421 63.5552 30.2932 63.5541C31.1655 63.5552 32.0018 63.8964 32.6187 64.5028C33.2355 65.1092 33.5825 65.9314 33.5836 66.789V76.4539C33.5836 77.0576 34.082 77.5469 34.6954 77.5462L39.1399 77.5428C39.4344 77.5423 39.7168 77.4269 39.9249 77.222C40.1331 77.0171 40.2501 76.7394 40.2503 76.4498V66.789C40.2503 61.3824 35.7926 57 30.2932 57V57ZM107.836 57.5656L103.081 57.5465C102.787 57.5453 102.504 57.6589 102.295 57.8626C102.085 58.0663 101.967 58.3433 101.965 58.6327V62.288C101.965 63.067 101.651 63.814 101.09 64.3648C100.53 64.9156 99.7701 65.225 98.9778 65.225C98.1855 65.225 97.4256 64.9156 96.8653 64.3648C96.3051 63.814 95.9903 63.067 95.9903 62.288V58.6232C95.9903 58.0201 95.4927 57.5288 94.8778 57.5295L90.0667 57.5336C89.4526 57.5336 88.9556 58.0242 88.9556 58.6273L89.0859 61.9977C89.0859 66.2704 91.8717 69.9011 95.7533 71.2367L95.6237 76.5213C95.6237 77.1258 96.1213 77.6144 96.7355 77.6144H101.179C101.793 77.6144 102.291 77.1258 102.291 76.5213L102.421 71.2068C106.257 69.848 109 66.2383 109 61.9977L108.942 58.6729C108.944 58.5286 108.917 58.3854 108.863 58.2514C108.808 58.1175 108.727 57.9955 108.624 57.8925C108.521 57.7895 108.399 57.7075 108.263 57.6513C108.128 57.5951 107.983 57.5657 107.836 57.5649V57.5656ZM58.1508 67.4411C58.1508 68.0308 58.0326 68.6148 57.8031 69.1596C57.5735 69.7045 57.2371 70.1995 56.8129 70.6165C56.3887 71.0335 55.8852 71.3643 55.331 71.59C54.7768 71.8157 54.1828 71.9318 53.5829 71.9318C51.1673 71.9318 49.0415 70.1955 48.7739 67.835C48.6991 67.1876 48.7641 66.5319 48.9647 65.9109C49.1654 65.29 49.4971 64.7176 49.9382 64.2313C50.3793 63.745 50.9199 63.3558 51.5245 63.089C52.1292 62.8222 52.7843 62.684 53.4471 62.6832C54.6941 62.6845 55.8896 63.172 56.7714 64.0388C57.6533 64.9056 58.1493 66.0809 58.1508 67.3069V67.4411V67.4411ZM53.4471 57C47.5588 57 42.8045 61.7722 42.9667 67.5965C43.1234 73.2102 47.9532 77.6137 53.6661 77.6137H62.8198C63.4333 77.6137 63.9316 77.1251 63.9316 76.5213V67.3069C63.9316 61.6141 59.2376 57 53.4471 57V57ZM84.8411 57.659H80.3973C79.7832 57.659 79.2855 58.1482 79.2855 58.752V66.9941C79.2855 68.3229 78.8093 69.6313 77.8722 70.5907C77.4147 71.0575 76.8761 71.418 76.2987 71.418C75.711 71.418 75.1641 71.0459 74.701 70.5662C73.7861 69.6156 73.3113 68.3358 73.3113 67.0268V58.752C73.3113 58.1482 72.8136 57.659 72.1995 57.659H67.7564C67.1416 57.659 66.6439 58.1482 66.6439 58.752V65.4322C66.6439 71.7451 73.007 78.0594 76.298 78.0594C79.5898 78.0594 85.9529 71.7451 85.9529 65.4322V58.7513C85.9529 58.1476 85.4552 57.6583 84.8411 57.6583V57.659ZM20.7583 89.3748C20.7826 89.6337 20.8498 89.8313 20.9593 89.9703C21.1631 90.2197 21.5145 90.3451 22.0164 90.3451C22.3151 90.3451 22.5778 90.2831 22.8038 90.1577C23.0318 90.0323 23.1448 89.8395 23.1448 89.5778C23.1448 89.3788 23.054 89.2282 22.8731 89.1253C22.7573 89.0613 22.5279 88.9877 22.1869 88.9046L21.5492 88.7499C21.1416 88.6517 20.8422 88.5427 20.6481 88.4221C20.3036 88.2122 20.1317 87.9219 20.1317 87.5505C20.1317 87.1144 20.2932 86.7601 20.6176 86.4895C20.942 86.2197 21.3787 86.0847 21.9276 86.0847C22.6437 86.0847 23.1614 86.2899 23.4789 86.6967C23.6771 86.9556 23.7735 87.235 23.7673 87.5335H23.0221C23.0066 87.3593 22.9394 87.1934 22.8287 87.0565C22.643 86.8541 22.3207 86.7532 21.8639 86.7532C21.5582 86.7532 21.3267 86.8091 21.17 86.9216C21.0961 86.9697 21.0358 87.0354 20.9946 87.1126C20.9534 87.1898 20.9327 87.276 20.9344 87.3631C20.9344 87.5635 21.0369 87.7243 21.2442 87.8449C21.3627 87.9158 21.5388 87.9792 21.771 88.0337L22.3026 88.1584C22.8814 88.2933 23.2682 88.4255 23.465 88.5509C23.7714 88.7499 23.926 89.062 23.926 89.4865C23.926 89.8981 23.7645 90.2531 23.4436 90.5523C23.1219 90.8508 22.6326 91 21.9762 91C21.2685 91 20.7673 90.8446 20.4727 90.5325C20.1781 90.2204 20.0208 89.8347 20 89.3748H20.7583V89.3748ZM29.2223 88.1461C29.1904 87.8095 29.117 87.5396 29.0005 87.34C28.7863 86.9652 28.428 86.7785 27.9261 86.7785C27.5671 86.7785 27.2649 86.9066 27.0223 87.1655C26.7783 87.4231 26.6494 87.7488 26.6341 88.1468H29.2223V88.1461ZM28.9402 86.3321C29.2507 86.4861 29.4878 86.6865 29.6507 86.9291C29.808 87.1635 29.912 87.4347 29.964 87.7441C30.0104 87.9573 30.0333 88.2974 30.0333 88.7628H26.6175C26.632 89.233 26.7436 89.6092 26.953 89.894C27.1616 90.1775 27.4853 90.3192 27.9234 90.3192C28.3323 90.3192 28.6581 90.1843 28.9021 89.9172C29.0386 89.7605 29.1357 89.5799 29.1925 89.3754H29.9688C29.948 89.5444 29.8801 89.7325 29.765 89.941C29.6646 90.1305 29.534 90.3031 29.3783 90.4521C29.1405 90.6838 28.8459 90.8378 28.4952 90.9189C28.306 90.9639 28.0932 90.9877 27.8547 90.9877C27.2739 90.9877 26.7811 90.7778 26.3769 90.3601C25.9728 89.941 25.7711 89.3564 25.7711 88.6034C25.7711 87.8606 25.9742 87.2589 26.3811 86.7962C26.7887 86.3328 27.3203 86.1018 27.9774 86.1018C28.3087 86.1018 28.629 86.1788 28.9409 86.3321H28.9402Z" fill="white"/>
<mask id="mask1_1277_3542" style="mask-type:alpha" maskUnits="userSpaceOnUse" x="20" y="57" width="111" height="37">
<path d="M20 93.265H131V57H20V93.265Z" fill="white"/>
</mask>
<g mask="url(#mask1_1277_3542)">
<path fill-rule="evenodd" clip-rule="evenodd" d="M32 91.134H32.7896V85.0859H32V91.134ZM35.5975 85.3793C35.7817 85.1269 36.1363 85 36.6627 85C36.774 84.9997 36.8853 85.0054 36.9959 85.0169V85.6923C36.9359 85.6878 36.8759 85.6844 36.8158 85.6819C36.7791 85.6806 36.7438 85.6806 36.7119 85.6806C36.4695 85.6806 36.324 85.7385 36.2776 85.8549C36.2305 85.9714 36.207 86.2681 36.207 86.7463H36.9959V87.3305H36.207V91.1353H35.4264V87.3305H34.7733V86.7456H35.4264V86.0547C35.4382 85.7469 35.4957 85.5212 35.5975 85.3793V85.3793ZM38.7738 89.1666H40.9736V88.4053H38.7738V89.1666ZM44.0433 90.1672C44.2553 90.486 44.596 90.6448 45.0636 90.6448C45.4272 90.6448 45.7257 90.4977 45.9598 90.2023C46.1939 89.907 46.311 89.4841 46.311 88.9323C46.311 88.3748 46.1898 87.9629 45.9494 87.6955C45.7077 87.4275 45.4099 87.2934 45.0552 87.2934C44.6598 87.2934 44.3391 87.4366 44.0932 87.7215C43.848 88.0078 43.7247 88.4275 43.7247 88.9811C43.7247 89.4535 43.8314 89.8491 44.0433 90.1672V90.1672ZM45.804 86.8621C45.9446 86.9434 46.1025 87.0878 46.2805 87.2934V85.0664H47.0389V91.1347H46.329V90.5218C46.1454 90.7931 45.9279 90.9896 45.6779 91.11C45.4111 91.2346 45.1163 91.2968 44.8184 91.2915C44.2968 91.2915 43.8459 91.0846 43.4643 90.6721C43.0833 90.2583 42.8922 89.7092 42.8922 89.0228C42.8922 88.3806 43.066 87.8237 43.4137 87.3526C43.7614 86.8822 44.2587 86.6474 44.9056 86.6474C45.2637 86.6474 45.5629 86.7183 45.804 86.8621V86.8621ZM49.4963 86.7254H50.2458V87.4867C50.3067 87.339 50.457 87.1588 50.6973 86.9454C50.8155 86.8357 50.9572 86.7509 51.1129 86.6966C51.2686 86.6423 51.4348 86.6198 51.6005 86.6305L51.7806 86.648V87.4288C51.7328 87.4223 51.6899 87.4158 51.6504 87.4138C51.6073 87.4099 51.5641 87.4082 51.5209 87.4086C51.124 87.4086 50.8186 87.5296 50.6052 87.7697C50.3955 88.0006 50.2821 88.2951 50.2859 88.5986V91.134H49.4963V86.7254ZM53.7199 91.1347H54.522V86.7463H53.7199V91.1347V91.1347ZM53.7199 85.9265H54.522V85.0859H53.7199V85.9265ZM57.359 86.7254L58.6126 90.3162L59.9182 86.7254H60.7819L59.0144 91.134H58.1735L56.4427 86.7254H57.359ZM62.7157 91.1347H63.5178V86.7463H62.7157V91.1347V91.1347ZM62.7157 85.9265H63.5178V85.0859H62.7157V85.9265ZM65.9662 86.7254H66.7163V87.3507C66.938 87.093 67.1734 86.9083 67.4214 86.7964C67.6803 86.6809 67.9639 86.6229 68.2505 86.6266C68.9161 86.6266 69.3656 86.8452 69.6004 87.2817C69.7285 87.5199 69.793 87.8614 69.793 88.3064V91.134H68.9902V88.3559C68.9902 88.0872 68.9479 87.8699 68.8634 87.7053C68.7235 87.4307 68.4687 87.2934 68.1009 87.2934C67.9139 87.2934 67.7601 87.3123 67.6403 87.3468C67.4166 87.4126 67.2186 87.5388 67.0709 87.7098C66.9393 87.8556 66.8542 88.0046 66.8147 88.1607C66.7752 88.3156 66.7558 88.5381 66.7558 88.8256V91.134H65.9662V86.7254V86.7254ZM74.9211 87.6968C74.8113 87.5703 74.6722 87.4689 74.5143 87.4005C74.3565 87.332 74.1841 87.2983 74.0103 87.3019C73.4576 87.3019 73.0801 87.5459 72.8758 88.0345C72.7685 88.2947 72.7144 88.637 72.7144 89.0599C72.7144 89.5563 72.8218 89.9343 73.0351 90.1945C73.2498 90.4535 73.5359 90.583 73.896 90.583C74.4605 90.583 74.8574 90.3429 75.0874 89.8627C75.2148 89.5908 75.2785 89.2739 75.2785 88.9115C75.2785 88.3663 75.1594 87.961 74.9211 87.6968V87.6968ZM74.8249 86.9031C74.9731 86.9987 75.1248 87.1379 75.2785 87.3227V86.7664H76.0058V90.7775C76.0058 91.3364 75.9192 91.7794 75.7447 92.1028C75.4177 92.7007 74.8027 93 73.896 93C73.3932 93 72.9693 92.8933 72.6258 92.6812C72.2815 92.4684 72.0897 92.1347 72.0481 91.6825H72.8516C72.8883 91.8803 72.9638 92.0325 73.0774 92.1392C73.2547 92.3045 73.5345 92.3871 73.9147 92.3871C74.5152 92.3871 74.9094 92.1867 75.0957 91.7853C75.2065 91.5498 75.2564 91.1282 75.248 90.5218C75.0908 90.7469 74.9017 90.9141 74.6801 91.0228C74.4598 91.1334 74.1676 91.188 73.8032 91.188C73.2976 91.188 72.8543 91.0189 72.4734 90.6792C72.0938 90.3409 71.9041 89.7801 71.9041 88.9987C71.9041 88.259 72.0952 87.6832 72.4782 87.2694C72.8606 86.8543 73.3232 86.648 73.8635 86.648C74.2306 86.648 74.5513 86.7326 74.8249 86.9031V86.9031ZM82.2151 86.7254H82.995V87.3507C83.182 87.1353 83.351 86.9766 83.5041 86.8783C83.7638 86.7105 84.0582 86.6266 84.3886 86.6266C84.7626 86.6266 85.0639 86.7124 85.2918 86.8855C85.4199 86.9857 85.537 87.1308 85.6422 87.3214C85.8175 87.0859 86.0239 86.9115 86.2601 86.7977C86.5077 86.681 86.7817 86.6223 87.0586 86.6266C87.6889 86.6266 88.1184 86.8413 88.3469 87.2694C88.4688 87.4997 88.5305 87.8094 88.5305 88.1997V91.134H87.7111V88.0722C87.7111 87.7775 87.6328 87.5765 87.4763 87.4672C87.3205 87.3565 87.13 87.3019 86.9042 87.3019C86.5946 87.3019 86.3286 87.3995 86.1049 87.5947C85.8819 87.7892 85.7697 88.1152 85.7697 88.5706V91.134H84.9676V88.257C84.9676 87.9577 84.9295 87.7404 84.854 87.6025C84.7335 87.3969 84.5098 87.2934 84.1822 87.2934C83.8844 87.2934 83.6142 87.4021 83.3697 87.6194C83.1252 87.8354 83.004 88.229 83.004 88.797V91.134H82.2144V86.7254H82.2151ZM91.8038 90.4678C91.97 90.5914 92.1674 90.6539 92.3953 90.6539C92.6723 90.6539 92.9411 90.5934 93.2015 90.4724C93.6406 90.2726 93.8595 89.9454 93.8595 89.4899V88.894C93.7435 88.9589 93.6179 89.0076 93.4869 89.0384C93.3405 89.0761 93.1914 89.1037 93.0408 89.121L92.5643 89.1789C92.2789 89.2141 92.0635 89.27 91.9195 89.3468C91.6757 89.4769 91.5531 89.6812 91.5531 89.9636C91.5531 90.177 91.6362 90.3448 91.8031 90.4684L91.8038 90.4678ZM93.464 88.4665C93.6455 88.4444 93.7674 88.3735 93.8283 88.2524C93.863 88.1867 93.881 88.0911 93.881 87.9675C93.881 87.7137 93.7854 87.5303 93.5942 87.4151C93.4038 87.3019 93.1302 87.2446 92.7749 87.2446C92.3634 87.2446 92.0718 87.35 91.8994 87.5589C91.8031 87.6747 91.7401 87.8465 91.7117 88.0755H90.9754C90.9893 87.5309 91.1763 87.1516 91.5378 86.9382C91.898 86.7248 92.3163 86.6181 92.7915 86.6181C93.3435 86.6181 93.7916 86.7176 94.1352 86.9148C94.4773 87.1126 94.6477 87.4203 94.6477 87.838V90.3774C94.6477 90.4541 94.6643 90.5159 94.6983 90.5628C94.7322 90.6096 94.8029 90.6324 94.9109 90.6324C94.9462 90.6324 94.985 90.6305 95.0287 90.6259C95.073 90.6233 95.1194 90.6161 95.1693 90.6083V91.1549C95.0773 91.1814 94.9836 91.2023 94.8887 91.2173C94.8016 91.2269 94.7139 91.2308 94.6262 91.229C94.354 91.229 94.1566 91.1386 94.034 90.9584C93.9696 90.8614 93.9246 90.7261 93.8983 90.5504C93.7383 90.7482 93.507 90.9193 93.2057 91.0644C92.8979 91.2119 92.5566 91.2872 92.2111 91.2837C91.7754 91.2837 91.4194 91.1588 91.1444 90.9115C91.0092 90.7925 90.9023 90.6479 90.8307 90.4874C90.7591 90.3268 90.7244 90.1539 90.7289 89.9798C90.7289 89.5712 90.8653 89.2544 91.1375 89.0293C91.409 88.8048 91.765 88.6662 92.2069 88.6148L93.464 88.4665V88.4665ZM98.0159 90.1672C98.2279 90.486 98.568 90.6448 99.0362 90.6448C99.3991 90.6448 99.6976 90.4977 99.9317 90.2023C100.166 89.907 100.284 89.4841 100.284 88.9323C100.284 88.3748 100.162 87.9629 99.9213 87.6955C99.6803 87.4275 99.3811 87.2934 99.0279 87.2934C98.6317 87.2934 98.311 87.4366 98.0651 87.7215C97.8199 88.0078 97.6973 88.4275 97.6973 88.9811C97.6973 89.4535 97.8033 89.8491 98.0159 90.1672V90.1672ZM99.7766 86.8621C99.9165 86.9434 100.074 87.0878 100.252 87.2934V85.0664H101.011V91.1347H100.301V90.5218C100.117 90.7931 99.9006 90.9896 99.6498 91.11C99.4005 91.231 99.113 91.2915 98.791 91.2915C98.2687 91.2915 97.8185 91.0846 97.4362 90.6721C97.0553 90.2583 96.8648 89.7092 96.8648 89.0228C96.8648 88.3806 97.0379 87.8237 97.3863 87.3526C97.734 86.8822 98.2306 86.6474 98.8776 86.6474C99.2349 86.6474 99.5355 86.7183 99.7766 86.8621ZM106.628 88.5784C106.596 88.257 106.523 87.9994 106.406 87.8087C106.192 87.4509 105.834 87.2726 105.333 87.2726C104.974 87.2726 104.673 87.3949 104.43 87.6422C104.186 87.8881 104.057 88.1991 104.042 88.5791H106.628V88.5784ZM106.346 86.8465C106.657 86.9935 106.893 87.1848 107.056 87.4164C107.213 87.6402 107.317 87.8992 107.369 88.1945C107.416 88.3982 107.438 88.7228 107.438 89.1672H104.024C104.039 89.6161 104.151 89.9753 104.36 90.2472C104.568 90.5179 104.892 90.6532 105.329 90.6532C105.738 90.6532 106.065 90.5244 106.308 90.2694C106.444 90.1197 106.541 89.9473 106.598 89.7521H107.373C107.352 89.9135 107.285 90.093 107.17 90.2921C107.069 90.4729 106.939 90.6376 106.784 90.7801C106.546 91.0013 106.251 91.1483 105.901 91.2258C105.712 91.2687 105.499 91.2915 105.261 91.2915C104.68 91.2915 104.188 91.0911 103.785 90.6923C103.38 90.2921 103.179 89.7339 103.179 89.015C103.179 88.3058 103.382 87.7313 103.789 87.2895C104.196 86.8471 104.727 86.6266 105.383 86.6266C105.714 86.6266 106.034 86.7001 106.346 86.8465V86.8465ZM113.468 86.7254H114.217V87.4867C114.278 87.339 114.428 87.1588 114.669 86.9454C114.787 86.8358 114.928 86.7511 115.084 86.6968C115.239 86.6425 115.406 86.6199 115.571 86.6305L115.751 86.648V87.4288C115.704 87.4223 115.661 87.4158 115.622 87.4138C115.579 87.41 115.536 87.4082 115.492 87.4086C115.095 87.4086 114.789 87.5296 114.577 87.7697C114.367 88.0006 114.253 88.295 114.257 88.5986V91.134H113.467V86.7254H113.468ZM120.873 88.5784C120.841 88.257 120.768 87.9994 120.652 87.8087C120.437 87.4509 120.079 87.2726 119.578 87.2726C119.219 87.2726 118.917 87.3949 118.675 87.6422C118.431 87.8881 118.302 88.1991 118.287 88.5791H120.873V88.5784ZM120.591 86.8465C120.902 86.9935 121.138 87.1848 121.301 87.4164C121.458 87.6402 121.562 87.8992 121.614 88.1945C121.661 88.3982 121.684 88.7228 121.684 89.1672H118.269C118.284 89.6161 118.396 89.9753 118.605 90.2472C118.813 90.5179 119.137 90.6532 119.575 90.6532C119.983 90.6532 120.31 90.5244 120.552 90.2694C120.689 90.1197 120.786 89.9473 120.843 89.7521H121.618C121.598 89.9135 121.53 90.093 121.415 90.2921C121.314 90.4728 121.184 90.6374 121.029 90.7801C120.79 91.0013 120.496 91.1483 120.145 91.2258C119.957 91.2687 119.744 91.2915 119.506 91.2915C118.926 91.2915 118.433 91.0911 118.03 90.6923C117.625 90.2921 117.424 89.7339 117.424 89.015C117.424 88.3058 117.627 87.7313 118.033 87.2895C118.441 86.8471 118.972 86.6266 119.629 86.6266C119.959 86.6266 120.28 86.7001 120.591 86.8465H120.591ZM124.795 90.4678C124.961 90.5914 125.159 90.6539 125.387 90.6539C125.664 90.6539 125.933 90.5934 126.193 90.4724C126.632 90.2726 126.851 89.9454 126.851 89.4899V88.894C126.754 88.9512 126.63 88.9994 126.479 89.0384C126.326 89.0774 126.179 89.1041 126.033 89.121L125.556 89.1789C125.271 89.2141 125.055 89.27 124.911 89.3468C124.667 89.4769 124.545 89.6812 124.545 89.9636C124.545 90.177 124.628 90.3448 124.795 90.4684V90.4678ZM126.456 88.4665C126.637 88.4444 126.759 88.3735 126.82 88.2524C126.855 88.1867 126.873 88.0911 126.873 87.9675C126.873 87.7137 126.777 87.5303 126.586 87.4151C126.395 87.3019 126.122 87.2446 125.767 87.2446C125.354 87.2446 125.064 87.35 124.891 87.5589C124.795 87.6747 124.732 87.8465 124.703 88.0755H123.966C123.982 87.5309 124.169 87.1516 124.53 86.9382C124.89 86.7248 125.308 86.6181 125.783 86.6181C126.335 86.6181 126.783 86.7176 127.127 86.9148C127.469 87.1126 127.639 87.4203 127.639 87.838V90.3774C127.639 90.4541 127.656 90.5159 127.69 90.5628C127.724 90.6096 127.795 90.6324 127.903 90.6324C127.937 90.6324 127.977 90.6305 128.02 90.6259C128.065 90.6233 128.11 90.6161 128.161 90.6083V91.1549C128.069 91.1814 127.975 91.2023 127.88 91.2173C127.793 91.2269 127.706 91.2308 127.618 91.229C127.346 91.229 127.148 91.1386 127.026 90.9584C126.961 90.8614 126.916 90.7261 126.89 90.5504C126.729 90.7482 126.499 90.9193 126.197 91.0644C125.89 91.2119 125.548 91.2871 125.203 91.2837C124.767 91.2837 124.411 91.1588 124.136 90.9115C124.001 90.7925 123.894 90.6479 123.822 90.4874C123.751 90.3268 123.716 90.1539 123.721 89.9798C123.721 89.5712 123.857 89.2544 124.129 89.0293C124.4 88.8048 124.757 88.6662 125.199 88.6148L126.456 88.4665V88.4665ZM130.211 91.134H131V85.0859H130.211V91.134Z" fill="white"/>
</g>
</svg>
