<svg width="150" height="150" viewBox="0 0 150 150" fill="none" xmlns="http://www.w3.org/2000/svg">
<path fill-rule="evenodd" clip-rule="evenodd" d="M81.7343 92.1207C80.1916 92.8373 79.5915 90.7582 79.0568 89.7875C78.3208 90.5731 76.2288 93.534 74.086 92.616C72.3457 91.8703 73.7506 89.0346 73.9899 88.1239C74.3525 86.7414 74.0026 87.6594 73.4515 86.8104C73.8685 86.0085 75.3713 85.8035 75.9677 86.5509C76.6421 87.3964 76.2106 89.011 76.0674 90.0306C77.5322 89.5317 79.3468 87.3982 80.1898 86.0266C80.5614 85.4225 81.3989 84.5843 81.66 84.8818C82.3362 85.6565 81.8594 87.0589 81.7071 88.2745C81.6056 89.0854 81.321 91.9175 81.7343 92.1189V92.1207ZM64.9041 90.1431L68.4626 89.2796C68.8234 88.9185 70.8447 82.204 72.2641 83.1383L72.5125 83.737C72.6321 84.6369 71.6206 87.1097 71.6133 88.3615C72.362 88.1366 72.6448 87.8155 73.2666 88.1493C73.0491 88.953 72.42 89.1181 71.6713 89.6533C70.0924 90.7781 71.6278 96.7633 67.83 95.9505C67.4348 95.8653 67.4438 93.3235 67.83 91.7651C67.1755 91.8122 65.8775 92.4273 65.0872 92.6776C64.0992 92.9897 63.8707 93.1911 63.7402 93.6809C63.6586 93.9875 63.6151 94.4048 63.4502 95.0344C62.9897 96.7851 62.5075 100.39 60.2596 99.4031C59.8916 99.1418 59.7756 98.9749 59.6904 98.251C59.6215 97.6596 59.6958 97.0609 59.7937 96.4749C59.9659 95.4371 60.294 94.5064 60.5061 93.5811C59.3405 93.5993 58.4413 93.4941 58.077 92.2549C58.1005 90.7926 60.3629 90.9722 61.5449 90.6747C62.4495 89.1272 63.287 86.0919 65.2811 83.9856C68.207 80.8977 65.0908 89.5299 64.9022 90.1431H64.9041ZM88.4671 83.1492C89.8286 83.0385 93.7932 81.7595 94.1286 82.3183C94.4676 82.8861 89.9119 84.4972 88.6883 84.9108C87.5462 85.2973 87.5426 85.0923 87.1565 86.1046L85.021 92.1261C84.6711 93.1639 84.7345 93.7245 83.8263 93.8805C82.5573 91.4186 84.2487 88.1329 84.5968 85.9359C83.3586 85.8706 82.3126 85.8252 82.3634 84.6296C82.4032 83.6572 84.1236 84.0219 85.6047 83.8187C86.3679 82.8099 86.9643 81.4202 87.6931 80.6437C88.2786 80.0196 89.2231 79.9616 89.1868 81.1644C89.1723 81.6742 88.6357 82.721 88.4689 83.1456L88.4671 83.1492ZM65.1959 82.5759C63.1746 83.2327 62.5129 80.2863 64.0194 77.6411C64.8243 76.2297 66.1168 74.6023 66.4232 74.0598C66.8111 73.3722 66.5791 73.1854 67.5381 73.2525C68.8469 74.9851 66.8818 78.4322 66.0044 80.1811C65.5567 81.0737 65.0364 82.2766 65.1941 82.5759H65.1959ZM72.0828 79.7402C76.4155 79.4028 78.3606 80.2573 80.6013 79.9108C80.9457 79.8582 83.8481 78.8168 82.9416 80.2301C82.8764 80.3317 82.4177 80.6728 82.2093 80.7889C79.1293 82.4906 75.6994 81.2751 71.1746 82.0824C69.6863 82.3473 67.8173 83.1619 67.3205 82.5342C66.3054 81.2497 69.4742 78.8077 70.6725 77.5867L73.4134 74.771C72.8478 74.8399 68.7436 75.6545 68.9176 73.9346C68.9775 73.3486 69.108 73.5119 69.2349 73.3958C69.7588 72.993 76.091 72.5504 76.8506 72.7808C77.059 73.7877 76.934 74.1505 76.381 74.9579C74.88 77.1459 72.8352 78.4412 72.0846 79.7384L72.0828 79.7402ZM55.762 79.7566C54.9843 80.7979 54.3716 83.0603 53.8186 84.4936C53.2929 85.8561 52.5225 88.7171 50.8801 88.4287C49.7489 86.9736 51.6668 81.7341 52.236 80.1811C53.2222 77.4906 54.3842 75.4223 55.6949 73.4412C55.0985 73.4666 54.6018 73.8367 54.154 73.3777C52.3539 71.5416 60.0674 68.0256 63.1094 72.2111C65.8757 76.0156 60.3629 80.7653 56.0756 80.2627L55.7638 79.7566H55.762ZM94.1866 74.1396C94.928 74.4227 95.4755 74.4045 96.1898 74.8055C96.1009 75.7053 95.3722 75.9485 94.3769 76.1081C92.7798 76.3621 92.6819 75.9866 91.6341 75.5693C90.7749 76.6869 88.4526 77.7409 86.3552 77.3255C85.8784 78.463 83.8499 78.8767 82.2491 78.9238C81.4261 78.9492 77.0373 79.2014 76.7073 79.1034C76.1073 77.5976 78.3044 76.0138 78.8809 75.4641C79.2145 75.1447 82.0135 72.8243 82.1222 72.7735C81.0998 72.7046 79.9233 73.1182 78.803 73.0003C77.7117 72.886 76.8542 72.0387 77.708 71.0101C77.9437 70.8958 81.2775 70.5765 82.0026 70.4549C83.2897 70.239 85.6428 69.7709 85.6627 71.3874C85.6772 72.4742 84.1254 73.5899 83.5689 74.1687C82.8238 74.9434 81.9337 76.0283 81.0509 76.549C81.5929 77.086 82.5193 77.0678 83.4039 77.1205C84.2596 77.1713 85.0391 77.008 85.7823 76.8701C85.3237 74.5134 86.2809 73.1817 88.371 71.7194C90.0914 70.5166 93.1569 69.7836 94.6307 70.2281C95.0948 71.9208 93.8476 72.5413 94.1848 74.1378L94.1866 74.1396ZM66.8347 72.0932C65.5259 69.4752 70.2319 66.8192 71.0948 67.3108C71.7837 67.7027 69.9383 69.9161 69.6265 70.3769C69.0355 71.2514 68.3539 72.5504 66.8347 72.095V72.0932ZM82.4721 51.3817C83.4184 51.2166 83.9242 51.7155 84.1236 52.5138L85.166 56.6702C85.5974 57.2036 90.3162 58.4718 91.3423 58.831C93.4161 59.5567 95.2199 60.4403 97.1397 61.3782C97.9482 61.7737 99.3803 62.465 98.831 63.6533C98.3579 64.6729 96.6647 64.3663 95.4737 64.3663C81.1451 64.3681 70.8972 65.6236 57.1977 67.5811C55.9523 67.7589 50.706 68.891 50.0498 68.2089C49.089 67.2092 53.4706 65.0176 54.2265 64.5822C55.9922 63.568 57.6836 62.6047 59.5889 61.7846C65.3301 59.3118 63.4756 60.6961 66.541 56.2203C67.7484 54.4569 67.4928 54.3662 68.6149 54.1412L82.4721 51.3835V51.3817ZM64.1046 43.9705C64.2496 44.5692 63.3559 44.6962 61.8168 45.3221C59.1556 46.4052 56.8841 47.4176 54.4332 48.8182C48.5433 52.1836 43.7357 58.5643 41.5603 65.15C39.53 71.2949 39.5699 85.0415 42.2619 90.8924C44.4826 95.7165 45.0899 95.985 48.4436 99.4067C51.578 102.605 57.6473 106.517 62.1214 107.662C63.646 108.052 65.1597 108.255 66.7114 108.512C67.6269 108.665 68.372 109.167 67.9152 109.367C64.6412 110.8 54.2175 106.64 51.0287 104.432C46.8302 101.524 44.3213 98.1476 41.3718 94.3286C37.7389 89.6261 37.0881 98.7064 47.8726 107.05C57.7688 114.708 74.0624 114.421 85.3436 109.327C93.6083 105.595 99.7121 100.287 103.898 92.3311C105.337 89.5952 106.391 87.2512 107.239 83.8949C108.767 77.857 108.042 68.2905 106.51 62.3253C104.163 53.1887 96.9004 47.5174 89.2176 44.0812C83.7665 41.6428 78.3606 42.3558 80.5197 40.9933C82.4667 39.7651 88.9022 42.1617 90.7023 42.9618C93.6863 44.288 96.5143 46.1041 98.8437 47.697C110.404 55.5998 112.75 72.9858 109.516 85.9849C108.678 89.3485 107.382 92.5144 105.832 95.1777C102.712 100.533 98.2056 104.599 93.0735 107.986C92.3901 108.438 89.2974 110.011 89.7415 110.871C90.2546 111.862 94.0959 110.158 94.7159 109.813C99.3278 107.253 105.158 101.938 108.526 97.87C112.367 93.231 114.949 87.1696 115.674 79.3375C116.486 70.5565 115.872 64.4135 112.799 56.9533C103.805 35.1297 81.0291 32.2632 60.7001 39.6707C56.2496 41.2927 51.7865 43.5333 48.1771 46.3671C46.3136 47.8294 44.711 49.1865 43.1991 51.0025C39.2363 55.7704 37.1225 58.7929 35.6469 65.9247C35.123 68.4592 34.7133 75.3824 35.859 77.5214C36.0693 77.9151 36.8434 79.0145 37.6319 78.4666C38.2338 78.0475 38.0652 76.4238 38.096 75.66C38.1758 73.6607 38.3825 71.6559 38.7269 69.751C39.8943 63.2886 42.7024 57.1002 47.3759 52.6444C48.8062 51.2819 48.7228 51.1132 50.7006 49.6237C53.4796 47.5301 63.6804 42.2252 64.1046 43.9705V43.9705ZM38.6689 89.9726C38.9861 89.6841 38.8248 85.1431 37.8966 82.946C36.8416 80.4532 32.4962 81.462 34.5393 87.7447C35.0142 89.4229 37.3183 91.2045 38.6689 89.9744V89.9726ZM55.762 79.7566C57.6926 78.9474 59.4982 78.3142 60.508 76.8465C62.0597 74.5914 60.1164 73.1255 57.6528 73.0946C57.3083 75.7434 56.1137 77.6502 55.762 79.7548V79.7566ZM88.594 74.878C89.3645 74.8164 90.289 74.4209 90.8909 74.0616C91.5725 73.6552 91.6885 72.9386 91.9459 72.2002C90.3108 72.4089 88.9929 73.5591 88.594 74.878ZM104.453 106.529V105.107H103.945V104.817H105.305V105.107H104.799V106.529H104.453V106.529ZM105.522 106.529V104.817H106.039L106.349 105.985L106.655 104.817H107.174V106.529H106.853V105.181L106.514 106.529H106.182L105.843 105.181V106.529H105.522V106.529Z" fill="white"/>
</svg>
