<svg width="150" height="150" viewBox="0 0 150 150" fill="none" xmlns="http://www.w3.org/2000/svg">
<path d="M24.4888 91.9005C22.9508 91.4342 22.2796 91.141 22.2796 90.2614C22.2796 89.4769 23.3255 89.1976 24.2372 89.1976C25.0162 89.1948 25.7809 89.4073 26.4463 89.812C26.5131 89.8566 26.5887 89.8864 26.6679 89.8994C26.7472 89.9123 26.8284 89.908 26.9058 89.8868C26.9834 89.8656 27.0553 89.828 27.117 89.7766C27.1786 89.7251 27.2284 89.661 27.2629 89.5885L27.5258 89.0692C27.5901 88.9449 27.6054 88.8011 27.5687 88.6663C27.5319 88.5313 27.4457 88.415 27.3273 88.3405C26.4082 87.774 25.3506 87.4717 24.2707 87.4665C22.0335 87.4665 20.5458 88.6085 20.5458 90.3089C20.5458 92.5176 22.4138 93.076 23.9016 93.5256C25.4732 93.9946 26.1583 94.2989 26.1388 95.2316C26.1192 96.1642 25.0202 96.502 24.0022 96.502C22.9902 96.4527 22.0271 96.0529 21.2785 95.3712C21.2169 95.3103 21.1426 95.2638 21.0609 95.2348C20.9792 95.2058 20.8921 95.1952 20.8058 95.2037C20.7184 95.2138 20.6346 95.2443 20.5613 95.2928C20.4879 95.3413 20.427 95.4065 20.3836 95.4828L20.0816 95.9911C20.0155 96.0994 19.9883 96.2271 20.0046 96.353C20.0208 96.4789 20.0796 96.5954 20.1711 96.6835C21.2014 97.6635 22.5654 98.2171 23.9883 98.2332C26.3234 98.2332 27.9034 97.0242 27.9034 95.2288C27.9201 92.9504 26.0213 92.3752 24.4972 91.9144" fill="white"/>
<path d="M34.787 87.8181C34.7423 87.7189 34.6695 87.6348 34.5776 87.5762C34.4857 87.5177 34.3786 87.4873 34.2697 87.4887H33.6517C33.5428 87.4881 33.4361 87.5192 33.3447 87.5782C33.2534 87.6372 33.1812 87.7216 33.1371 87.821L28.783 97.4038C28.7418 97.4898 28.7235 97.585 28.7297 97.6801C28.7359 97.7752 28.7664 97.8672 28.8183 97.9473C28.8701 98.0274 28.9416 98.0929 29.0261 98.1375C29.1104 98.1822 29.2048 98.2044 29.3003 98.2023H29.9323C30.0412 98.203 30.1478 98.1718 30.2392 98.1128C30.3306 98.0538 30.4028 97.9694 30.4468 97.8701L31.5319 95.4744H36.4174L37.5164 97.8728C37.5609 97.9717 37.6332 98.0555 37.7245 98.114C37.8159 98.1724 37.9224 98.2032 38.0309 98.2023H38.6629C38.7582 98.2033 38.8521 98.18 38.9358 98.1345C39.0195 98.089 39.0902 98.023 39.1411 97.9427C39.1918 97.8626 39.2219 97.7712 39.2287 97.6767C39.2356 97.5822 39.2189 97.4875 39.1803 97.401L34.787 87.8181V87.8181ZM32.2925 93.7655L33.9704 90.0854L35.6484 93.7655H32.2925V93.7655Z" fill="white"/>
<path d="M42.0241 87.4886H41.448C41.2997 87.4886 41.1573 87.5475 41.0525 87.6522C40.9476 87.7569 40.8887 87.899 40.8887 88.0471V97.6299C40.8887 97.778 40.9476 97.9201 41.0525 98.0248C41.1573 98.1295 41.2997 98.1884 41.448 98.1884H42.0241C42.1724 98.1884 42.3146 98.1295 42.4195 98.0248C42.5244 97.9201 42.5834 97.778 42.5834 97.6299V88.0555C42.5834 87.9074 42.5244 87.7653 42.4195 87.6606C42.3146 87.5559 42.1724 87.497 42.0241 87.497" fill="white"/>
<path d="M53.997 87.4889H53.4377C53.2893 87.4889 53.1471 87.5478 53.0422 87.6525C52.9373 87.7573 52.8784 87.8993 52.8784 88.0474V95.0278L47.4924 87.7151C47.44 87.6427 47.3711 87.5838 47.2913 87.5435C47.2115 87.5032 47.1232 87.4826 47.0337 87.4834H46.3625C46.2142 87.4834 46.072 87.5422 45.9671 87.647C45.8622 87.7516 45.8032 87.8937 45.8032 88.0418V97.6302C45.8032 97.7783 45.8622 97.9204 45.9671 98.025C46.072 98.1298 46.2142 98.1886 46.3625 98.1886H46.9387C47.087 98.1886 47.2293 98.1298 47.3341 98.025C47.439 97.9204 47.4979 97.7783 47.4979 97.6302V90.6497L52.87 97.9624C52.9226 98.0343 52.9917 98.0926 53.0715 98.1325C53.1513 98.1724 53.2394 98.1925 53.3286 98.1914H53.9998C54.1481 98.1914 54.2904 98.1326 54.3952 98.0279C54.5001 97.9231 54.5591 97.7811 54.5591 97.633V88.0557C54.5591 87.9076 54.5001 87.7656 54.3952 87.6609C54.2904 87.5562 54.1481 87.4974 53.9998 87.4974" fill="white"/>
<path d="M63.8969 87.4886H56.8385C56.6902 87.4886 56.548 87.5475 56.4431 87.6522C56.3382 87.7569 56.2793 87.899 56.2793 88.0471V88.6056C56.2793 88.7537 56.3382 88.8957 56.4431 89.0004C56.548 89.1051 56.6902 89.1639 56.8385 89.1639H59.512V97.6299C59.512 97.778 59.571 97.9201 59.6758 98.0248C59.7807 98.1295 59.923 98.1884 60.0713 98.1884H60.6474C60.7957 98.1884 60.938 98.1295 61.0428 98.0248C61.1478 97.9201 61.2067 97.778 61.2067 97.6299V89.1835H63.8801C64.0285 89.1835 64.1707 89.1247 64.2756 89.02C64.3805 88.9152 64.4394 88.7732 64.4394 88.6251V88.0667C64.4394 87.9186 64.3805 87.7765 64.2756 87.6718C64.1707 87.567 64.0285 87.5082 63.8801 87.5082" fill="white"/>
<path d="M68.1145 92.7132H65.0383C64.89 92.7132 64.7477 92.772 64.6428 92.8767C64.538 92.9815 64.479 93.1235 64.479 93.2716V93.7379C64.479 93.886 64.538 94.028 64.6428 94.1328C64.7477 94.2375 64.89 94.2963 65.0383 94.2963H68.1145C68.2628 94.2963 68.405 94.2375 68.5099 94.1328C68.6149 94.028 68.6738 93.886 68.6738 93.7379V93.2716C68.6738 93.1235 68.6149 92.9815 68.5099 92.8767C68.405 92.772 68.2628 92.7132 68.1145 92.7132Z" fill="white"/>
<path d="M80.0399 92.3695H77.8027C77.6543 92.3695 77.5121 92.4283 77.4072 92.533C77.3023 92.6378 77.2434 92.7798 77.2434 92.9279V93.5031C77.2434 93.6512 77.3023 93.7932 77.4072 93.8979C77.5121 94.0027 77.6543 94.0615 77.8027 94.0615H78.9492V95.8122C78.2753 96.2723 77.4781 96.5185 76.6617 96.5186C75.6614 96.5366 74.6948 96.1573 73.9743 95.4642C73.2539 94.771 72.8384 93.8205 72.8193 92.8218C72.8193 90.7918 74.542 89.1389 76.6617 89.1389C77.638 89.1371 78.5814 89.4905 79.3155 90.1329C79.3727 90.1846 79.44 90.224 79.5132 90.2485C79.5863 90.273 79.6638 90.2821 79.7407 90.2753C79.8159 90.2728 79.8898 90.2553 79.958 90.2236C80.0262 90.1919 80.0874 90.1468 80.1377 90.0911L80.4789 89.6666C80.573 89.5537 80.6187 89.4083 80.6061 89.262C80.5935 89.1156 80.5237 88.9801 80.4118 88.8848C79.3728 87.9805 78.04 87.4844 76.6617 87.4887C73.5856 87.4887 71.1079 89.8955 71.1079 92.8525C71.1278 94.2969 71.7208 95.6743 72.7568 96.6825C73.7929 97.6908 75.1871 98.2474 76.6337 98.2302C78.018 98.2258 79.3558 97.731 80.409 96.8342C80.4707 96.7814 80.5202 96.7159 80.554 96.6421C80.5878 96.5683 80.6051 96.4881 80.6047 96.407V92.9362C80.6047 92.7881 80.5458 92.6461 80.441 92.5414C80.3361 92.4367 80.1938 92.3779 80.0455 92.3779" fill="white"/>
<path d="M88.0871 87.4749C85.0359 87.4749 82.5503 89.8817 82.5503 92.8387C82.5503 95.7956 85.0359 98.2164 88.0871 98.2164C91.1376 98.2164 93.6271 95.8068 93.6271 92.8387C93.6271 89.8706 91.1407 87.4749 88.0871 87.4749ZM88.0871 96.5216C87.365 96.4958 86.6663 96.2586 86.0788 95.8395C85.4904 95.4203 85.039 94.8378 84.7801 94.1643C84.5211 93.4907 84.4663 92.7562 84.6228 92.0518C84.7785 91.3475 85.1392 90.7046 85.6579 90.2031C86.1774 89.7016 86.833 89.3638 87.5434 89.2316C88.2538 89.0994 88.9869 89.1787 89.6527 89.4596C90.3185 89.7405 90.8865 90.2106 91.2863 90.8115C91.686 91.4123 91.8996 92.1173 91.9012 92.8387C91.8816 93.8303 91.4693 94.7738 90.7542 95.4624C90.0392 96.151 89.08 96.5289 88.0871 96.5132" fill="white"/>
<path d="M102.712 92.5425C103.009 92.2778 103.244 91.9508 103.399 91.5849C103.555 91.219 103.627 90.8233 103.613 90.4261C103.613 88.6139 102.245 87.4886 100.05 87.4886H96.1346C95.9859 87.4886 95.8435 87.5475 95.7387 87.6522C95.6339 87.7569 95.5752 87.899 95.5752 88.0471V97.6299C95.5752 97.778 95.6339 97.9201 95.7387 98.0248C95.8435 98.1295 95.9859 98.1884 96.1346 98.1884H100.078C102.595 98.1884 104.091 97.0129 104.091 95.0443C104.109 94.5402 103.991 94.0403 103.749 93.5978C103.506 93.1554 103.148 92.7868 102.712 92.5313V92.5425ZM100.036 91.8221H97.2675V89.1724H100.036C100.874 89.1724 101.901 89.3985 101.901 90.4847C101.901 91.3726 101.275 91.8221 100.036 91.8221ZM97.2675 93.517H100.036C100.911 93.517 102.379 93.7069 102.379 94.9801C102.379 96.2533 101.112 96.513 100.036 96.513H97.2675V93.517Z" fill="white"/>
<path d="M111.056 87.8181C111.011 87.7189 110.939 87.6348 110.846 87.5762C110.755 87.5177 110.648 87.4873 110.538 87.4887H109.921C109.811 87.4875 109.704 87.5183 109.612 87.5774C109.52 87.6365 109.447 87.7211 109.403 87.821L105.052 97.4038C105.011 97.4898 104.993 97.585 104.998 97.6801C105.004 97.7752 105.035 97.8672 105.087 97.9473C105.139 98.0274 105.21 98.0929 105.295 98.1375C105.379 98.1822 105.474 98.2044 105.569 98.2023H106.201C106.31 98.2035 106.417 98.1726 106.51 98.1135C106.601 98.0545 106.674 97.9698 106.718 97.8701L107.804 95.4744H112.686L113.785 97.8728C113.829 97.9717 113.902 98.0555 113.993 98.114C114.084 98.1724 114.191 98.2032 114.3 98.2023H114.932C115.027 98.2033 115.121 98.18 115.205 98.1345C115.289 98.089 115.359 98.023 115.41 97.9427C115.461 97.8626 115.49 97.7712 115.497 97.6767C115.504 97.5822 115.487 97.4875 115.449 97.401L111.056 87.8181V87.8181ZM108.561 93.7655L110.225 90.0854L111.903 93.7655H108.561V93.7655Z" fill="white"/>
<path d="M118.296 87.4886H117.72C117.571 87.4886 117.429 87.5475 117.324 87.6522C117.219 87.7569 117.161 87.899 117.161 88.0471V97.6299C117.161 97.778 117.219 97.9201 117.324 98.0248C117.429 98.1295 117.571 98.1884 117.72 98.1884H118.296C118.445 98.1884 118.587 98.1295 118.692 98.0248C118.797 97.9201 118.855 97.778 118.855 97.6299V88.0555C118.855 87.9074 118.797 87.7653 118.692 87.6606C118.587 87.5559 118.445 87.497 118.296 87.497" fill="white"/>
<path d="M130.269 87.4887H129.71C129.562 87.4887 129.419 87.5475 129.314 87.6522C129.21 87.7569 129.15 87.899 129.15 88.0471V95.0276L123.764 87.7204C123.713 87.6484 123.644 87.5898 123.565 87.5494C123.485 87.5092 123.397 87.4883 123.308 87.4887H122.635C122.486 87.4887 122.344 87.5475 122.239 87.6522C122.134 87.7569 122.075 87.899 122.075 88.0471V97.6299C122.075 97.778 122.134 97.92 122.239 98.0248C122.344 98.1295 122.486 98.1884 122.635 98.1884H123.205C123.354 98.1884 123.496 98.1295 123.601 98.0248C123.706 97.92 123.764 97.778 123.764 97.6299V90.6494L129.139 97.9622C129.192 98.0337 129.261 98.0917 129.34 98.1316C129.419 98.1714 129.506 98.1918 129.595 98.1911H130.269C130.418 98.1911 130.559 98.1323 130.664 98.0276C130.77 97.9228 130.828 97.7808 130.828 97.6327V88.0555C130.828 87.9074 130.77 87.7654 130.664 87.6606C130.559 87.5559 130.418 87.497 130.269 87.497" fill="white"/>
<path d="M115.99 81.8431H109.156L109.108 81.7956L103.096 75.8511C102.974 75.7324 102.82 75.652 102.653 75.6197C102.486 75.5874 102.313 75.6048 102.156 75.6696C101.998 75.7345 101.863 75.8449 101.769 75.9866C101.674 76.1284 101.624 76.295 101.625 76.4654V81.8655H99.8379V68.5104C99.8363 68.3923 99.8105 68.2757 99.762 68.1677C99.7143 68.0597 99.6446 67.9626 99.5578 67.8822L94.5717 63.1746C94.4113 63.0235 94.1993 62.9396 93.9787 62.94H91.4821C91.2529 62.94 91.0331 63.0309 90.8711 63.1927C90.7084 63.3545 90.6176 63.574 90.6176 63.8028V81.8739H88.8448V52.863C88.8456 52.6912 88.7947 52.523 88.6992 52.3801C88.6038 52.2373 88.4669 52.1264 88.3081 52.0617C88.1485 51.9989 87.974 51.9836 87.8066 52.0179C87.6383 52.0521 87.4842 52.1342 87.3622 52.2543L79.0934 60.6308C78.9336 60.7922 78.8442 61.01 78.8445 61.2368V67.7091L75.4607 65.1961C75.3055 65.0849 75.1185 65.0268 74.9275 65.0303C74.7366 65.0338 74.5518 65.0988 74.4009 65.2156L66.7161 71.3836C66.6155 71.4646 66.5344 71.5671 66.4788 71.6836C66.4231 71.8001 66.3943 71.9275 66.3945 72.0565V81.8878H64.6467V76.4542C64.6467 74.5528 63.3351 72.5284 60.905 72.5284C58.4749 72.5284 57.1633 74.5611 57.1633 76.4738V81.8739H55.3988V78.1966C55.3988 76.7083 54.3696 75.1251 52.4652 75.1251C50.5608 75.1251 49.5345 76.7083 49.5345 78.1966V81.8711H47.7783V81.7147C47.7783 80.9748 47.7783 80.0254 47.7783 79.6457C47.7783 78.3808 46.5814 77.2695 45.2167 77.2695C43.852 77.2695 42.6552 78.3864 42.6552 79.6345V81.8682H34.9257C34.6965 81.8682 34.4767 81.9592 34.3146 82.121C34.1526 82.2827 34.0615 82.5022 34.0615 82.731C34.0615 82.9599 34.1526 83.1793 34.3146 83.3411C34.4767 83.5029 34.6965 83.5938 34.9257 83.5938H43.5053C43.7345 83.5938 43.9542 83.5029 44.1163 83.3411C44.2784 83.1793 44.3694 82.9599 44.3694 82.731V79.7881C44.3901 79.5771 44.4864 79.3808 44.6405 79.2351C44.7946 79.0894 44.9963 79.0042 45.2084 78.9951C45.4265 78.9999 45.6346 79.0874 45.7905 79.2399C45.9463 79.3924 46.0381 79.5983 46.0473 79.816C46.0473 80.0366 46.0473 82.7451 46.0473 82.7451C46.0495 82.9734 46.1417 83.1917 46.304 83.3526C46.4663 83.5137 46.6855 83.6043 46.9142 83.605H50.3986C50.6275 83.6043 50.8469 83.5131 51.0088 83.3515C51.1707 83.1898 51.262 82.9708 51.2628 82.7422V78.1993C51.2628 77.733 51.5144 76.8507 52.4624 76.8507C53.4104 76.8507 53.6649 77.7303 53.6649 78.1966V82.7367C53.6657 82.9652 53.757 83.1843 53.9188 83.3459C54.0807 83.5076 54.3001 83.5987 54.529 83.5994H58.0246C58.2533 83.598 58.4723 83.5066 58.634 83.3451C58.7957 83.1836 58.8873 82.9651 58.8888 82.7367V76.4738C58.8888 75.7059 59.311 74.2568 60.9022 74.2568C62.3788 74.2568 62.9157 75.5719 62.9157 76.4542V82.7394C62.9164 82.968 63.0077 83.1871 63.1696 83.3487C63.3315 83.5104 63.5508 83.6015 63.7798 83.6022H67.2558C67.4848 83.6015 67.7041 83.5104 67.866 83.3487C68.028 83.1871 68.1192 82.968 68.12 82.7394V72.4558L68.1815 72.4084L74.9714 66.972L78.8557 69.8674V82.7394C78.8564 82.9685 78.9481 83.188 79.1106 83.3497C79.2731 83.5114 79.4932 83.6022 79.7225 83.6022H83.1906C83.419 83.6015 83.6389 83.5104 83.8 83.3487C83.962 83.1871 84.0535 82.968 84.0543 82.7394V72.0202C84.0535 71.886 84.0222 71.7537 83.962 71.6336C83.9017 71.5135 83.8149 71.4088 83.7077 71.3277L80.5867 69.0018V61.5942L80.6342 61.5467L87.1251 54.9683V82.7394C87.1259 82.9685 87.2174 83.188 87.3794 83.3497C87.5421 83.5114 87.762 83.6022 87.992 83.6022H91.4931C91.7223 83.6022 91.9422 83.5113 92.1041 83.3495C92.2661 83.1877 92.3568 82.9683 92.3568 82.7394V64.6656H93.6462L93.6939 64.7103L98.1174 68.8986V82.7534C98.1182 82.9825 98.2105 83.202 98.3725 83.3637C98.5352 83.5254 98.7551 83.6162 98.9851 83.6161H102.5C102.729 83.6154 102.949 83.5243 103.11 83.3627C103.272 83.201 103.363 82.982 103.364 82.7534V78.5652L108.202 83.3425C108.282 83.4221 108.377 83.485 108.482 83.5277C108.586 83.5704 108.698 83.5919 108.812 83.591H116.002C116.231 83.591 116.45 83.5001 116.613 83.3383C116.775 83.1765 116.865 82.9571 116.865 82.7283C116.865 82.4995 116.775 82.28 116.613 82.1182C116.45 81.9564 116.231 81.8655 116.002 81.8655L115.99 81.8431V81.8431ZM82.312 72.453V81.8739H80.5755V71.1574L82.312 72.453Z" fill="white"/>
</svg>
