<svg width="150" height="150" viewBox="0 0 150 150" fill="none" xmlns="http://www.w3.org/2000/svg">
<path fill-rule="evenodd" clip-rule="evenodd" d="M65.7093 68.6621C65.6508 68.6884 65.5273 68.7115 65.4362 68.7147C65.1956 68.7213 64.2723 69.0832 64.2723 69.1688C64.2723 69.1918 64.2398 69.2115 64.1975 69.2115C63.9764 69.2115 63.0921 70.2215 62.8548 70.7479C62.6532 71.192 62.6369 71.2414 62.5329 71.873C62.4679 72.2645 62.5101 73.439 62.6012 73.7088C62.8515 74.4556 63.3359 75.1201 63.9147 75.5083C64.6754 76.0216 64.8413 76.1104 66.4961 76.9032C66.6294 76.9658 66.8148 77.071 66.9025 77.1335C66.9936 77.196 67.1334 77.2816 67.2179 77.3276C68.5444 78.0119 68.4274 79.6898 67.0423 79.851L66.7952 79.8806L66.779 80.3708C66.7562 81.0255 66.7237 80.9893 67.3154 80.9432C70.1147 80.7294 71.7436 78.4133 71.0056 75.686C70.7617 74.7879 69.8254 73.7417 68.8858 73.3206C68.7915 73.2778 68.7167 73.2252 68.7167 73.2021C68.7167 73.1791 68.681 73.1594 68.6354 73.1594C68.5899 73.1594 68.4274 73.0936 68.2713 73.0146C68.1152 72.9357 67.9462 72.8501 67.8942 72.8238C67.8421 72.7975 67.7771 72.7745 67.7478 72.7745C67.2407 72.7745 65.4687 71.5177 65.4687 71.1591C65.4687 71.0933 65.446 71.0177 65.4167 70.9881C65.3647 70.9321 65.4655 70.4617 65.5695 70.261C65.6573 70.0932 66.119 69.705 66.275 69.6655C66.4766 69.6162 66.4961 69.5635 66.4961 69.0602V68.6062H66.158C65.9727 68.6128 65.7711 68.6358 65.7093 68.6621V68.6621ZM67.0358 69.0602C67.0358 69.5372 67.1009 69.6491 67.3707 69.6491C67.491 69.6491 68.0437 69.9485 68.3071 70.159C68.8923 70.6196 69.2889 71.2776 69.5815 72.2645C69.7051 72.6889 70.0952 72.9159 70.3781 72.735C70.6512 72.5606 70.7455 69.2148 70.4854 68.8266C70.287 68.5305 70.053 68.5404 69.7018 68.8562C69.3637 69.1655 69.1459 69.1523 68.1965 68.7707C68.086 68.7279 67.8226 68.6851 67.3154 68.6325L67.0293 68.6029V69.0668L67.0358 69.0602ZM115.417 68.6687C115.372 68.6983 115.242 68.7213 115.125 68.7213C114.904 68.7213 114.777 68.7575 114.146 68.9878C113.814 69.1095 113.662 69.1819 113.174 69.4583C113.115 69.4912 113.005 69.5734 112.93 69.6425C112.855 69.7116 112.719 69.8201 112.631 69.8827C112.182 70.2018 111.568 71.1196 111.278 71.9026C111.194 72.1296 111.106 72.3632 111.083 72.4224C111.057 72.4817 111.025 72.6198 111.005 72.7251C110.986 72.8304 110.95 73.0409 110.921 73.1923C110.68 74.5016 110.794 76.3571 111.191 77.4856C111.35 77.9363 111.724 78.6798 111.883 78.8541C111.919 78.8936 111.951 78.9463 111.951 78.966C111.955 79.1798 113.102 80.1372 113.668 80.4004C113.87 80.4958 114.078 80.5945 114.13 80.6241C114.182 80.6537 114.273 80.6767 114.331 80.6767C114.39 80.6767 114.452 80.7031 114.471 80.7327C114.491 80.7623 114.575 80.7886 114.66 80.7886C114.744 80.7886 114.871 80.8083 114.943 80.8379C115.011 80.8643 115.219 80.9037 115.407 80.9268L115.746 80.9662V80.4662C115.746 79.9924 115.739 79.9661 115.629 79.9661C115.43 79.9661 115.167 79.7161 115.073 79.4365C114.952 79.0779 114.943 70.5308 115.063 70.182C115.154 69.9188 115.323 69.7346 115.564 69.6326L115.746 69.557V69.0865C115.746 68.5897 115.677 68.5042 115.42 68.672L115.417 68.6687ZM116.341 69.0701V69.5339L116.562 69.6359C116.819 69.7543 117.014 69.9912 117.075 70.2643C117.163 70.6624 117.163 78.9397 117.075 79.2917C116.991 79.6338 116.721 79.9464 116.487 79.9793C116.38 79.9957 116.37 80.0286 116.37 80.4629V80.9301L116.64 80.9202C116.89 80.9103 117.046 80.8807 117.618 80.7294C118.662 80.453 119.914 79.5088 120.375 78.6567C120.642 78.16 120.726 77.9856 120.853 77.6698C121.006 77.2849 121.094 76.9822 121.143 76.6828C121.351 75.4096 121.38 74.5477 121.247 73.6134C121.117 72.6889 121.11 72.6593 121.065 72.5442C121.042 72.4849 120.977 72.2974 120.925 72.1329C120.668 71.3401 120.236 70.6459 119.618 70.0439C119.228 69.6622 118.438 69.1194 118.275 69.1194C118.239 69.1194 118.191 69.103 118.171 69.0832C118.08 68.9911 117.527 68.8266 117.027 68.7411C116.877 68.7147 116.666 68.6786 116.552 68.6555L116.35 68.6161V69.0799L116.341 69.0701ZM72.4946 68.8858C72.4426 68.9385 72.4556 72.2185 72.5076 72.5409C72.5662 72.8929 72.6637 72.9817 72.9953 72.9817C73.4017 72.9817 73.522 72.8238 73.6456 72.1395C73.8016 71.2677 74.1202 70.534 74.5006 70.1557L74.7347 69.9254V68.8529H73.6326C73.0278 68.8529 72.5141 68.8694 72.4946 68.8891V68.8858ZM75.5313 68.8891C75.5118 68.9089 75.4955 71.2743 75.4955 74.143C75.4955 80.0319 75.541 79.4891 75.0241 79.7358C74.2958 80.0813 74.2373 80.6537 74.92 80.7261C75.7849 80.8182 80.2488 80.7327 80.3691 80.6208C80.6454 80.3675 80.4764 79.9859 79.9952 79.7753C79.8619 79.7161 79.6896 79.6141 79.6148 79.5483L79.4782 79.4266L79.4522 74.1529L79.4262 68.8792L77.4983 68.8661C76.4384 68.8595 75.554 68.8661 75.5345 68.8891H75.5313ZM80.031 68.8891C80.0114 68.9089 79.9919 69.1457 79.9919 69.4155V69.9057L80.252 70.1426C80.5609 70.4255 80.8112 70.8959 80.9673 71.4881C81.0031 71.623 81.0518 71.8072 81.0778 71.8993C81.1039 71.9915 81.1396 72.1625 81.1591 72.2843C81.2567 72.9093 81.5785 73.1561 82.024 72.9422C82.3133 72.8041 82.3328 72.6429 82.3166 70.6393L82.3003 68.8858L81.1851 68.8694C80.5739 68.8628 80.0537 68.8694 80.0342 68.8924L80.031 68.8891ZM86.3188 68.8924C86.2993 68.9121 86.2831 68.9977 86.2831 69.0799C86.2831 69.1622 86.2603 69.2444 86.2343 69.2609C86.1172 69.3332 86.0815 69.8827 86.1693 70.2511C86.205 70.4025 86.257 70.6229 86.2831 70.7446C86.3091 70.8663 86.3708 71.1131 86.4196 71.294C86.5269 71.6954 86.5984 71.9915 86.6602 72.281C86.6992 72.4718 86.787 72.8271 86.9853 73.6232C87.0113 73.7285 87.0568 73.9128 87.0894 74.0345C87.1999 74.4753 87.3299 74.9721 87.3755 75.1267C87.4015 75.2155 87.4242 75.3537 87.4242 75.4393C87.4242 75.5248 87.447 75.607 87.4795 75.6268C87.5088 75.6465 87.5348 75.7255 87.5348 75.8077C87.5348 75.89 87.5738 76.0643 87.6193 76.1959C87.7559 76.5874 87.7591 76.5841 86.7512 76.5841H85.8571L85.8214 76.7355C85.8019 76.8177 85.7433 77.0447 85.6913 77.2421C85.6393 77.4395 85.5873 77.6369 85.5743 77.6797C85.558 77.7487 85.7271 77.7652 86.7707 77.7882L87.9867 77.8145L88.0875 78.1995C88.1427 78.41 88.211 78.66 88.2403 78.7554C88.3898 79.2423 88.3411 79.4134 87.9704 79.7621C87.6356 80.0747 87.6258 80.0911 87.6551 80.305C87.7136 80.7458 87.551 80.7195 90.4739 80.7195H93.0716L93.1821 80.5846C93.4097 80.2984 93.2732 79.9859 92.8082 79.7325C92.5384 79.5845 92.3563 79.3641 92.3563 79.1798C92.3563 79.1272 92.3336 79.0055 92.3076 78.9134C92.2816 78.8212 92.2328 78.6469 92.2035 78.5252C92.0702 77.9757 91.9662 77.5777 91.9207 77.423C91.8914 77.3309 91.8686 77.1993 91.8686 77.1335C91.8686 77.0677 91.8459 76.969 91.8199 76.9197C91.7744 76.8309 91.5923 76.1203 91.4883 75.6169C91.433 75.3537 91.368 75.0839 91.2444 74.6036C91.1436 74.2055 91.0721 73.916 91.0038 73.5903C90.9778 73.4686 90.8933 73.1232 90.812 72.8238C90.7307 72.5211 90.6462 72.1757 90.6234 72.0573C90.5844 71.8632 90.4511 71.3137 90.2951 70.7018C90.2658 70.59 90.2203 70.4025 90.191 70.2906C90.1618 70.1787 90.0772 69.8465 90.0024 69.5504C89.9244 69.2576 89.8626 68.9779 89.8626 68.9319C89.8626 68.8431 86.4066 68.8003 86.3221 68.8858L86.3188 68.8924ZM93.0586 70.7249C93.0586 72.8534 93.0683 72.9093 93.452 72.9817C93.8876 73.064 94.2485 72.6396 94.2485 72.0507C94.2485 71.9487 94.2713 71.8105 94.2973 71.7414C94.3233 71.6723 94.3753 71.5177 94.4111 71.396C94.4761 71.1854 94.5672 70.9486 94.7005 70.6558C94.7362 70.5801 94.902 70.3728 95.0744 70.1886L95.3865 69.8596L95.3702 69.3661L95.354 68.8727L94.203 68.8562L93.0521 68.8398V70.7183L93.0586 70.7249ZM96.1115 68.9089C96.0985 68.945 96.079 71.3236 96.0725 74.1891C96.0562 80.0385 96.0985 79.4891 95.6401 79.6898C95.1069 79.9201 94.8598 80.3971 95.1426 80.6373C95.2402 80.7195 99.9837 80.7853 100.566 80.7129C101.209 80.634 101.209 80.0714 100.562 79.7654C100.361 79.67 100.169 79.5319 100.101 79.4365L99.9837 79.272V68.8266H98.059C96.5667 68.8266 96.1277 68.8431 96.1082 68.8957L96.1115 68.9089ZM100.562 68.8628C100.432 68.9944 100.53 69.9024 100.686 69.9945C100.962 70.1623 101.239 70.5834 101.473 71.2118C101.544 71.4059 101.619 71.6987 101.665 71.9783C101.788 72.7481 101.944 72.9686 102.347 72.9587C102.539 72.9554 102.624 72.9225 102.724 72.8106L102.855 72.6692V68.8266H101.726C101.105 68.8266 100.582 68.8431 100.562 68.8628V68.8628ZM104.201 68.9121C103.866 69.0964 104.025 69.8136 104.399 69.8136C104.418 69.8136 104.506 69.8662 104.594 69.9287C104.922 70.1656 104.913 70.0175 104.913 74.7813C104.913 79.545 104.942 79.4529 104.461 79.7128C104.077 79.9234 104.028 79.9826 104.022 80.2589C104.012 80.7195 103.853 80.6965 106.841 80.6965H109.471L109.581 80.5616C109.741 80.3609 109.64 79.8477 109.441 79.8477C109.341 79.8477 108.876 79.4957 108.824 79.3805C108.729 79.1733 108.733 70.4288 108.827 70.2149C108.899 70.0504 108.983 69.9682 109.194 69.8596C109.731 69.5833 109.864 69.1161 109.464 68.9089C109.233 68.7871 104.418 68.7904 104.201 68.9089V68.9121ZM122.336 68.8891C121.933 69.1128 122.033 69.4944 122.554 69.7214C123.084 69.955 123.24 70.0965 123.539 70.6327C123.597 70.738 123.822 71.1328 124.033 71.5079C124.244 71.8829 124.42 72.1954 124.42 72.2053C124.42 72.2152 124.504 72.3566 124.608 72.5211C124.712 72.6856 124.797 72.8337 124.797 72.8501C124.797 72.8666 124.882 73.0146 124.986 73.1791C125.09 73.3436 125.174 73.4916 125.174 73.5081C125.174 73.5245 125.259 73.6726 125.363 73.8371C125.467 74.0016 125.551 74.1496 125.551 74.1661C125.551 74.1825 125.662 74.37 125.795 74.5806C125.928 74.7911 126.039 74.9754 126.039 74.9918C126.039 75.0083 126.143 75.1958 126.273 75.4162C126.4 75.6366 126.523 75.8538 126.543 75.8965C126.566 75.9426 126.634 76.0643 126.696 76.1696C126.761 76.2749 126.871 76.4723 126.946 76.6072C127.021 76.742 127.128 76.9197 127.183 76.9987C127.239 77.0776 127.284 77.1599 127.284 77.1796C127.284 77.1993 127.369 77.3507 127.473 77.5152C127.577 77.6797 127.661 77.8277 127.661 77.8409C127.661 77.854 127.746 78.0021 127.85 78.1666C127.954 78.3311 128.038 78.4791 128.038 78.4955C128.038 78.512 128.123 78.66 128.227 78.8245C128.331 78.989 128.416 79.1371 128.416 79.1568C128.416 79.1766 128.477 79.2884 128.555 79.4101C128.692 79.6273 128.776 79.7753 129.056 80.2819C129.131 80.4168 129.219 80.5715 129.251 80.6241C129.303 80.7096 129.427 80.7195 130.516 80.7195H131.722V78.6896C131.722 77.5514 131.699 76.6598 131.673 76.6598C131.647 76.6598 131.612 76.617 131.595 76.5644C131.563 76.4624 131.521 76.39 130.808 75.1596C130.565 74.7418 130.366 74.3898 130.366 74.3766C130.366 74.3635 130.305 74.2549 130.227 74.1299C130.103 73.9325 129.95 73.666 129.749 73.2877C129.716 73.2285 129.677 73.1659 129.661 73.1495C129.638 73.1232 129.531 72.9357 129.368 72.6297C129.336 72.5705 129.297 72.508 129.284 72.4915C129.271 72.4751 129.222 72.4027 129.18 72.327C129.137 72.2514 128.936 71.8961 128.731 71.5408C128.526 71.1822 128.36 70.8828 128.36 70.8696C128.36 70.8565 128.276 70.715 128.172 70.5505C128.068 70.386 127.983 70.2347 127.983 70.2182C127.983 70.2018 127.899 70.0504 127.795 69.8859C127.691 69.7214 127.606 69.5734 127.606 69.5602C127.606 69.5471 127.522 69.399 127.417 69.2345C127.313 69.0701 127.229 68.9089 127.229 68.876C127.229 68.7937 122.472 68.8003 122.326 68.8825L122.336 68.8891ZM129.723 68.8891C129.319 69.0964 129.524 69.9156 129.979 69.9156C130.018 69.9156 130.048 69.9419 130.048 69.9715C130.048 70.0011 130.08 70.0274 130.119 70.0274C130.158 70.0274 130.288 70.1228 130.405 70.2412C130.769 70.6031 130.805 70.7907 130.805 72.5475V74.0674L130.997 74.4391C131.104 74.6431 131.238 74.88 131.296 74.9622C131.355 75.0445 131.403 75.1267 131.403 75.1465C131.403 75.1662 131.475 75.2978 131.566 75.4393L131.729 75.6992V73.4193C131.729 70.9453 131.751 70.7512 132.037 70.3663C132.154 70.2116 132.704 69.8037 132.795 69.8037C133.12 69.8037 133.175 69.0602 132.863 68.8957C132.655 68.7871 129.934 68.7805 129.726 68.8858L129.723 68.8891ZM85.7499 71.0275C85.7011 71.0835 85.6068 71.4026 85.5288 71.7743C85.5125 71.85 85.48 71.9619 85.454 72.0211C85.428 72.0803 85.3955 72.1921 85.3825 72.2678C85.3565 72.3961 85.1321 73.2712 85.0151 73.6923C84.9631 73.8799 84.9338 73.9884 84.794 74.551C84.755 74.7056 84.7062 74.8537 84.6835 74.8767C84.6607 74.8997 84.6444 74.9984 84.6444 75.0971C84.6444 75.1958 84.6217 75.2912 84.5957 75.3077C84.5697 75.3241 84.5339 75.4195 84.5209 75.5182C84.5046 75.6169 84.4689 75.7847 84.4396 75.89C84.4103 75.9952 84.3453 76.2288 84.2933 76.4098C84.2413 76.5907 84.1828 76.8243 84.1568 76.9296C84.134 77.0348 84.0722 77.2684 84.0202 77.4494C83.8706 77.9856 83.8251 78.1567 83.7959 78.2982C83.7666 78.4396 83.7504 78.4857 83.5813 78.8969C83.4187 79.2884 82.7555 79.8345 82.4401 79.8345C82.3881 79.8345 82.2093 80.0582 82.1768 80.1701C82.1605 80.226 82.1865 80.3576 82.2353 80.4629C82.3523 80.7129 82.4954 80.7294 84.2348 80.7063L85.5775 80.6866L85.7076 80.5221C85.9514 80.2162 85.8214 79.9365 85.3142 79.6766C84.742 79.3838 84.5827 78.9561 84.7777 78.2653C84.8265 78.0909 84.8948 77.8474 84.924 77.7257C84.9533 77.604 84.9988 77.4329 85.0248 77.3408C85.0508 77.2487 85.1094 77.0283 85.1614 76.8473C85.2134 76.6664 85.2752 76.4196 85.3077 76.2979C85.402 75.9196 85.4735 75.6498 85.545 75.3932C85.6231 75.1103 85.7173 74.7517 85.7986 74.4326C85.8311 74.3108 85.8864 74.1003 85.9222 73.9654C85.9612 73.8305 86.0164 73.6134 86.0522 73.4851C86.0847 73.3568 86.14 73.1561 86.1725 73.0376C86.2473 72.7712 86.2343 72.679 85.9579 71.5769C85.8962 71.3368 85.8409 71.0966 85.8311 71.0473C85.8181 70.9815 85.7986 70.9716 85.7596 71.0209L85.7499 71.0275ZM123.438 75.2386L123.422 78.762L123.269 79.0252C123.126 79.272 122.684 79.6635 122.547 79.6667C122.222 79.6733 122.014 80.3247 122.258 80.5715C122.372 80.6866 124.628 80.7689 125.324 80.6833C125.915 80.6109 125.902 80.0319 125.301 79.6667C124.374 79.1075 124.371 79.091 124.371 75.7057V73.0344L124.183 72.7383C124.078 72.5771 123.929 72.3237 123.848 72.1757C123.428 71.4124 123.451 71.2414 123.435 75.2386H123.438ZM62.6824 76.4098L62.5394 76.5545V80.6373L62.6727 80.782C62.8873 81.0156 63.1734 80.986 63.4692 80.6998C63.7098 80.4629 64.0675 80.4234 64.3861 80.5978C64.4414 80.6274 64.5356 80.6504 64.5974 80.6504C64.6592 80.6504 64.7535 80.6734 64.8055 80.6998C64.9713 80.7886 65.5403 80.8939 65.8491 80.8972H66.1482V80.4103C66.1482 80.0319 66.132 79.9135 66.067 79.8839C64.9128 79.341 64.2918 78.7719 63.9309 77.9363C63.7749 77.5744 63.7488 77.5053 63.6806 77.2783C63.5213 76.7388 63.4432 76.5545 63.3132 76.4163C63.1279 76.2157 62.8808 76.2124 62.689 76.4098" fill="white"/>
<path fill-rule="evenodd" clip-rule="evenodd" d="M65.3843 68.6194C65.2933 68.649 65.1372 68.6983 65.0332 68.7279C63.0467 69.2872 61.9315 71.5967 62.5557 73.847C62.8581 74.9327 64.1033 75.9788 66.0898 76.8079C66.2979 76.8934 66.4767 76.9855 66.4865 77.0119C66.4962 77.0349 66.5287 77.0546 66.558 77.0546C66.649 77.0546 67.4813 77.6303 67.7024 77.8442C68.4892 78.6107 67.9755 79.7951 66.8571 79.7951C66.6425 79.7951 66.5905 79.953 66.61 80.5156C66.636 81.1637 66.5775 81.1374 67.6601 80.9926C68.6908 80.8544 69.4483 80.4827 70.1636 79.7589C70.4399 79.4793 70.6675 79.2128 70.6675 79.17C70.6675 79.1272 70.687 79.0812 70.7098 79.0713C70.7683 79.045 71.0122 78.5022 71.0869 78.2291C71.5291 76.6171 71.0934 74.8603 70.0335 73.9983C69.8905 73.8832 69.7604 73.7713 69.7474 73.7516C69.6727 73.6595 68.9931 73.2515 68.5705 73.0508C68.3104 72.9258 68.0535 72.7975 68.0015 72.7712C67.9495 72.7416 67.8845 72.7186 67.8552 72.7186C67.7642 72.7186 66.7986 72.2613 66.4442 72.0507C65.264 71.3533 65.1925 70.2512 66.2946 69.7577L66.5515 69.6425V68.5503L66.0508 68.5569C65.7744 68.5569 65.4753 68.5865 65.3875 68.6161L65.3843 68.6194ZM66.9969 69.08C67.0132 69.6656 66.9871 69.6261 67.4618 69.7807C68.1348 69.9978 68.8696 70.6756 69.1557 71.3401C69.3313 71.7513 69.3508 71.8007 69.4256 72.0606C69.6271 72.7745 70.0205 73.064 70.4237 72.7975C70.648 72.6495 70.6708 72.4718 70.6708 70.6394C70.6708 68.5569 70.6708 68.5503 70.1603 68.5503C69.897 68.5503 69.8417 68.57 69.6857 68.7279C69.3378 69.0734 69.3898 69.0668 68.7135 68.8497C67.7837 68.547 67.7934 68.5503 67.374 68.5503H66.9839L67.0001 69.08H66.9969ZM115.024 68.6161C114.559 68.7312 114.201 68.8431 113.967 68.9484C113.541 69.1392 113.151 69.3432 113.057 69.4287C113.005 69.4747 112.878 69.5767 112.774 69.6557C111.958 70.2709 111.178 71.5638 110.94 72.6922C110.908 72.8436 110.856 73.0903 110.823 73.2417C110.641 74.074 110.723 76.1071 110.976 77.0513C111.126 77.6106 111.542 78.5713 111.688 78.6963C111.704 78.7127 111.753 78.7917 111.799 78.8772C111.877 79.0285 112.589 79.7951 112.813 79.9662C112.976 80.0912 113.532 80.4498 113.564 80.4498C113.577 80.4498 113.717 80.5123 113.873 80.5879C114.026 80.6636 114.195 80.7261 114.25 80.7261C114.305 80.7261 114.357 80.7491 114.374 80.7755C114.39 80.8018 114.484 80.838 114.582 80.8544C115.999 81.1012 115.924 81.1209 115.924 80.4925C115.924 80.0912 115.863 79.9037 115.729 79.9037C115.473 79.9037 115.216 79.5977 115.128 79.1897C115.027 78.7127 115.034 70.7742 115.138 70.3334C115.219 69.9847 115.447 69.7018 115.645 69.7018C115.859 69.7018 115.928 69.5274 115.911 69.0372L115.895 68.5766L115.57 68.57C115.391 68.5667 115.147 68.5865 115.027 68.6161H115.024ZM116.282 68.5865C116.233 68.6358 116.237 69.4945 116.289 69.5767C116.311 69.6129 116.425 69.6754 116.539 69.7149C117.072 69.8959 117.082 69.9814 117.082 74.7747C117.082 79.703 117.066 79.8148 116.406 79.9102C116.276 79.93 116.269 79.9431 116.256 80.4235C116.237 81.1374 116.116 81.0979 117.531 80.8544C117.628 80.838 117.719 80.8018 117.739 80.7755C117.755 80.7491 117.817 80.7261 117.875 80.7261C118.018 80.7261 118.763 80.3478 119.153 80.0813C119.719 79.6898 120.434 78.841 120.73 78.2061C120.922 77.7948 121.068 77.4132 121.068 77.3244C121.068 77.2685 121.091 77.2125 121.117 77.1961C121.143 77.1796 121.178 77.0744 121.195 76.9592C121.211 76.8474 121.25 76.6039 121.279 76.423C121.458 75.3472 121.494 74.4951 121.39 73.8174C121.361 73.62 121.322 73.3634 121.305 73.2417C121.217 72.531 120.779 71.3006 120.489 70.9618C120.45 70.9124 120.414 70.8565 120.414 70.8368C120.414 70.5472 118.737 69.0471 118.415 69.0471C118.382 69.0471 118.311 69.024 118.259 68.9977C117.719 68.7148 116.419 68.4483 116.276 68.5898L116.282 68.5865ZM66.4962 69.0602C66.4962 69.5636 66.4767 69.6162 66.2751 69.6656C66.1191 69.705 65.6574 70.0932 65.5696 70.261C65.4623 70.4617 65.3648 70.9355 65.4168 70.9881C65.4461 71.0177 65.4688 71.0934 65.4688 71.1592C65.4688 71.5178 67.2407 72.7745 67.7479 72.7745C67.7772 72.7745 67.8422 72.7942 67.8942 72.8238C67.9463 72.8502 68.1153 72.9357 68.2714 73.0147C68.4274 73.0936 68.5932 73.1594 68.6355 73.1594C68.6778 73.1594 68.7168 73.1791 68.7168 73.2022C68.7168 73.2252 68.7916 73.2778 68.8859 73.3206C69.8255 73.7417 70.7618 74.7879 71.0056 75.686C71.7437 78.41 70.1148 80.7294 67.3155 80.9433C66.7205 80.9893 66.7563 81.0255 66.7791 80.3708L66.7953 79.8806L67.0424 79.851C68.4274 79.6898 68.5445 78.012 67.218 77.3277C67.1334 77.2849 66.9904 77.1961 66.9026 77.1336C66.8148 77.0711 66.6295 76.9658 66.4962 76.9033C64.8381 76.1137 64.6755 76.0249 63.9147 75.5084C63.336 75.1169 62.8516 74.4523 62.6012 73.7088C62.4224 73.1791 62.4907 71.6263 62.715 71.0769C62.9719 70.4453 63.2547 70.0274 63.7359 69.5767C63.9505 69.3761 64.1586 69.2116 64.2008 69.2116C64.2431 69.2116 64.2756 69.1918 64.2756 69.1688C64.2756 69.08 65.2022 68.7181 65.4396 68.7148C65.5306 68.7148 65.6509 68.6885 65.7127 68.6622C65.7712 68.6358 65.9728 68.6128 66.1613 68.6095H66.4995V69.0569L66.4962 69.0602ZM67.8552 68.6885C67.9885 68.7082 68.1478 68.7411 68.2063 68.7641C69.1525 69.1458 69.3735 69.1556 69.7117 68.8497C70.0595 68.5306 70.2969 68.524 70.4952 68.8201C70.7521 69.2083 70.661 72.5541 70.3879 72.7284C70.1051 72.9127 69.7149 72.6824 69.5914 72.258C69.2988 71.271 68.9021 70.613 68.3169 70.1525C68.0535 69.9452 67.4976 69.6425 67.3805 69.6425C67.1107 69.6425 67.0457 69.5307 67.0457 69.0536V68.5898L67.3318 68.6194C67.4878 68.6358 67.7252 68.6654 67.8585 68.6819L67.8552 68.6885ZM115.759 69.0668V69.5373L115.577 69.6129C115.336 69.7149 115.167 69.9024 115.076 70.1623C114.956 70.5143 114.965 79.0582 115.086 79.4167C115.18 79.6964 115.443 79.9464 115.642 79.9464C115.752 79.9464 115.759 79.9694 115.759 80.4465V80.9465L115.421 80.9071C115.235 80.884 115.024 80.8446 114.956 80.8182C114.887 80.7919 114.761 80.7689 114.673 80.7689C114.585 80.7689 114.5 80.7426 114.484 80.713C114.465 80.6834 114.403 80.657 114.344 80.657C114.286 80.657 114.195 80.634 114.143 80.6044C114.091 80.5748 113.883 80.4761 113.681 80.3807C113.115 80.1175 111.968 79.1601 111.965 78.9463C111.965 78.9266 111.932 78.8739 111.896 78.8344C111.737 78.6601 111.36 77.9166 111.204 77.4659C110.807 76.3341 110.693 74.4819 110.934 73.1726C110.963 73.0212 110.999 72.8107 111.018 72.7054C111.038 72.6001 111.07 72.4652 111.096 72.4027C111.119 72.3435 111.21 72.1066 111.292 71.8829C111.578 71.0999 112.195 70.1821 112.644 69.863C112.732 69.8004 112.868 69.6919 112.943 69.6228C113.018 69.5537 113.128 69.4715 113.187 69.4386C113.675 69.1622 113.827 69.0898 114.159 68.9681C114.79 68.7378 114.917 68.7049 115.138 68.7016C115.255 68.7016 115.388 68.6786 115.43 68.649C115.687 68.4812 115.755 68.5667 115.755 69.0635L115.759 69.0668ZM117.03 68.7082C117.534 68.7937 118.083 68.9582 118.174 69.0504C118.194 69.0701 118.243 69.0865 118.278 69.0865C118.444 69.0865 119.231 69.6294 119.621 70.011C120.236 70.613 120.671 71.3072 120.928 72.1001C120.983 72.2646 121.045 72.4521 121.068 72.5113C121.113 72.6264 121.12 72.6561 121.25 73.5805C121.383 74.5181 121.354 75.3768 121.146 76.65C121.097 76.9493 121.009 77.252 120.857 77.6369C120.733 77.9528 120.649 78.1271 120.379 78.6239C119.917 79.4793 118.665 80.4202 117.622 80.6965C117.049 80.8478 116.893 80.8807 116.643 80.8873L116.373 80.8972V80.43C116.373 79.9958 116.38 79.9629 116.49 79.9464C116.728 79.9135 116.994 79.601 117.079 79.2588C117.166 78.9068 117.17 70.6262 117.079 70.2314C117.017 69.9584 116.825 69.7215 116.565 69.6031L116.344 69.5011V68.5733L116.545 68.6128C116.656 68.6358 116.871 68.672 117.02 68.6983L117.03 68.7082ZM72.3777 68.7872C72.3126 68.853 72.3354 72.2448 72.4037 72.5245C72.641 73.5048 73.7497 73.0574 73.7497 71.9783C73.7497 71.9158 73.7887 71.7349 73.8407 71.5803C74.0976 70.7742 74.2374 70.5078 74.5755 70.1656L74.8876 69.8531V69.3859C74.8876 68.6852 75.0079 68.7477 73.6164 68.7477C72.9531 68.7477 72.3972 68.7641 72.3744 68.7839L72.3777 68.7872ZM75.4078 68.7839C75.3883 68.8036 75.372 71.1723 75.372 74.0444C75.372 76.9164 75.3558 79.3082 75.3363 79.3575C75.3168 79.4069 75.1477 79.522 74.9591 79.6109C74.4032 79.8773 74.1886 80.2688 74.4357 80.5682C74.634 80.8051 74.7088 80.8117 77.4756 80.8117H80.1188L80.3041 80.6866C80.717 80.4037 80.5707 79.9069 79.9953 79.6372C79.4361 79.3773 79.4848 79.9168 79.4848 73.9621V68.7477H77.4626C76.3507 68.7477 75.4241 68.7641 75.4045 68.7839H75.4078ZM79.901 68.7839C79.8815 68.8036 79.8652 69.0536 79.8652 69.3399V69.8597L80.1513 70.1393C80.5902 70.5703 80.8081 71.0703 81.0357 72.1757C81.2405 73.1759 82.1183 73.416 82.3589 72.5376C82.4174 72.3271 82.4369 68.9846 82.3817 68.8365C82.3492 68.7477 79.992 68.6983 79.9042 68.7872L79.901 68.7839ZM86.2279 68.8464C85.9548 69.705 85.9548 69.7182 86.0946 70.34C86.2409 70.998 86.2636 71.0999 86.4262 71.725C86.5302 72.133 86.5855 72.3501 86.722 72.9456C86.8553 73.5147 86.8911 73.666 87.0212 74.1661C87.0504 74.278 87.1122 74.5313 87.161 74.7287C87.2097 74.9261 87.2682 75.1794 87.2975 75.2912C87.3268 75.4031 87.3723 75.5906 87.3983 75.7025C87.4276 75.8143 87.4763 76.0084 87.5056 76.1335C87.5381 76.2585 87.5641 76.3868 87.5641 76.4197C87.5641 76.4624 87.278 76.4855 86.657 76.4953L85.7499 76.5118L85.7109 76.6763C85.6882 76.7684 85.6459 76.9263 85.6166 77.0316C85.4801 77.502 85.4346 77.7488 85.4703 77.785C85.4931 77.808 86.0523 77.8376 86.7123 77.8541L87.912 77.8804L88.0095 78.2916C88.0615 78.5186 88.1298 78.7785 88.1591 78.8706C88.2729 79.2391 88.2339 79.3674 87.9282 79.6109C87.382 80.0451 87.3593 80.4596 87.8665 80.6998C88.1818 80.8478 92.6523 80.8742 92.9969 80.7294C93.5301 80.5057 93.4716 80.0023 92.8733 79.6339C92.5125 79.4135 92.4604 79.3444 92.3824 78.9627C92.3532 78.818 92.3076 78.614 92.2816 78.5087C92.1971 78.1567 92.0053 77.3869 91.9533 77.1928C91.8427 76.7717 91.5599 75.6169 91.5176 75.4097C91.4526 75.0906 91.3843 74.8076 91.2542 74.2845C91.0949 73.6463 91.0527 73.4917 90.9551 73.0772C90.9096 72.8798 90.8446 72.6297 90.8153 72.5146C90.7048 72.0803 90.656 71.8796 90.5195 71.294C90.4414 70.9618 90.3537 70.5933 90.3244 70.4716C90.2919 70.3499 90.2464 70.1656 90.2236 70.0603C90.1456 69.7281 90.0025 69.1655 89.9408 68.9484L89.8822 68.7444H88.0746C86.4002 68.7444 86.2636 68.751 86.2344 68.8398L86.2279 68.8464ZM92.9546 68.8234C92.8473 69.1063 92.9644 72.61 93.0847 72.7844C93.4716 73.3338 94.2779 72.9423 94.2844 72.1988C94.2844 72.0968 94.3104 71.9356 94.3364 71.8435C94.6225 70.8631 94.8176 70.465 95.159 70.1426L95.4256 69.8893V68.7411H94.2031C93.1757 68.7411 92.9774 68.7543 92.9514 68.8234H92.9546ZM96.0043 68.7773C95.9848 68.797 95.9653 71.1723 95.9653 74.0543C95.9653 79.8576 95.9945 79.4003 95.5719 79.5747C94.8891 79.8543 94.7038 80.4925 95.2402 80.7195C95.5426 80.8478 100.582 80.8446 100.836 80.7195C101.314 80.4761 101.206 79.9431 100.624 79.6569C100.055 79.3773 100.117 80.0254 100.088 74.0378L100.062 68.7707L98.0525 68.7576C96.9471 68.751 96.027 68.7576 96.0075 68.7806L96.0043 68.7773ZM100.504 68.7806C100.423 68.8628 100.462 69.8893 100.549 69.9617C100.868 70.2314 101.226 70.692 101.226 70.84C101.226 70.8828 101.245 70.9387 101.271 70.9684C101.359 71.067 101.603 71.9323 101.606 72.1494C101.609 72.735 102.104 73.189 102.539 73.0015C102.949 72.8271 102.933 72.9094 102.933 70.7249V68.7707L101.736 68.7543C101.079 68.7477 100.523 68.7543 100.504 68.7773V68.7806ZM104.038 68.9122C103.762 69.2116 103.901 69.6425 104.353 69.8695C104.477 69.932 104.617 70.0143 104.662 70.0538C104.74 70.1163 104.747 70.6065 104.747 74.7418V79.3575L104.623 79.4694C104.555 79.5319 104.454 79.5977 104.392 79.6141C103.823 79.7885 103.71 80.5156 104.22 80.7327C104.415 80.8182 109.328 80.8281 109.38 80.7426C109.399 80.713 109.461 80.6866 109.516 80.6866C109.64 80.6866 109.786 80.43 109.786 80.2096C109.786 79.9991 109.598 79.7852 109.246 79.5977C108.85 79.3871 108.879 79.749 108.873 74.8175C108.866 69.7083 108.837 70.1064 109.25 69.886C109.796 69.5932 109.942 69.2083 109.63 68.8924L109.471 68.7312H104.194L104.038 68.9023V68.9122ZM122.138 68.8924C121.822 69.2116 122.199 69.8301 122.71 69.8301C122.837 69.8301 123.289 70.3137 123.415 70.5834C123.474 70.7117 123.542 70.817 123.565 70.817C123.588 70.817 123.604 70.8433 123.604 70.8762C123.604 70.9091 123.688 71.0703 123.792 71.2348C123.896 71.3993 123.981 71.5441 123.981 71.5572C123.981 71.5704 124.088 71.7612 124.215 71.9816C124.342 72.2021 124.511 72.4949 124.589 72.6297C124.664 72.7646 124.82 73.0377 124.93 73.2318C125.044 73.4292 125.197 73.6989 125.272 73.8338C125.347 73.9687 125.425 74.0937 125.441 74.1069C125.457 74.1233 125.503 74.1924 125.545 74.2648C125.646 74.4457 125.782 74.6925 125.948 74.9919C126.026 75.1333 126.15 75.3472 126.228 75.4689C126.306 75.5906 126.367 75.7058 126.367 75.7189C126.367 75.7321 126.452 75.8801 126.556 76.0446C126.66 76.2091 126.745 76.3605 126.745 76.3769C126.745 76.3934 126.829 76.5447 126.933 76.7092C127.037 76.8737 127.122 77.0217 127.122 77.0349C127.122 77.048 127.206 77.1961 127.31 77.3606C127.414 77.5251 127.499 77.6764 127.499 77.6961C127.499 77.7159 127.544 77.7981 127.6 77.8771C127.655 77.956 127.765 78.1403 127.843 78.2817C127.921 78.4265 128.052 78.6601 128.13 78.8015C128.208 78.9463 128.312 79.124 128.36 79.1996C128.409 79.2753 128.481 79.397 128.516 79.4727C128.555 79.5483 128.738 79.8675 128.926 80.1866L129.268 80.7623H131.748L131.764 78.7061C131.781 76.4855 131.797 76.6236 131.465 76.0907C131.368 75.9328 131.29 75.7781 131.29 75.7485C131.29 75.7189 131.267 75.6926 131.241 75.6926C131.215 75.6926 131.179 75.6498 131.163 75.5972C131.13 75.4952 130.903 75.0873 130.672 74.7188C130.594 74.5938 130.529 74.4786 130.529 74.4622C130.529 74.4457 130.444 74.301 130.34 74.1365C130.236 73.972 130.152 73.824 130.152 73.8075C130.152 73.7911 130.019 73.5542 129.853 73.2778C129.687 73.0015 129.554 72.7646 129.554 72.7515C129.554 72.7383 129.469 72.5936 129.365 72.4291C129.261 72.2646 129.176 72.1165 129.176 72.1001C129.176 72.0836 129.092 71.9356 128.988 71.7711C128.884 71.6066 128.799 71.4585 128.799 71.4454C128.799 71.4322 128.738 71.3171 128.66 71.1954C128.526 70.9782 128.487 70.9157 128.185 70.363C128.107 70.2183 128.006 70.0472 127.964 69.9781C127.866 69.8235 127.655 69.4484 127.437 69.0471L127.265 68.7312H122.287L122.128 68.8924H122.138ZM129.628 68.797C129.183 69.0175 129.297 69.5636 129.869 69.932C130.708 70.4716 130.744 70.5801 130.744 72.6659V74.1595L130.887 74.4227C130.965 74.5675 131.075 74.7517 131.13 74.8307C131.186 74.9096 131.231 74.9919 131.231 75.0083C131.231 75.0248 131.316 75.1761 131.42 75.3406C131.524 75.5051 131.608 75.6663 131.608 75.6992C131.608 75.7321 131.644 75.7551 131.69 75.7551C131.761 75.7551 131.771 75.5018 131.771 73.8108C131.771 70.6229 131.836 70.363 132.766 69.8893C133.195 69.6689 133.315 69.1951 133.023 68.899L132.863 68.7378H131.303C130.347 68.7444 129.697 68.7674 129.625 68.8003L129.628 68.797ZM74.7153 69.3267V69.863L74.4812 70.0932C74.0976 70.4716 73.7822 71.2085 73.6261 72.077C73.5026 72.7646 73.3823 72.9192 72.9759 72.9192C72.6443 72.9192 72.5467 72.8304 72.4882 72.4784C72.4362 72.156 72.4232 68.876 72.4752 68.8234C72.4947 68.8036 73.0084 68.7872 73.6131 68.7872H74.7153V69.3234V69.3267ZM79.4296 74.0872L79.4556 79.3608L79.5921 79.4825C79.6669 79.5483 79.836 79.6503 79.9725 79.7095C80.4537 79.9201 80.6228 80.3017 80.3464 80.555C80.2261 80.6636 75.7622 80.7491 74.8974 80.6603C74.2146 80.5879 74.2764 80.0188 75.0014 79.6701C75.5183 79.4233 75.4728 79.9662 75.4728 74.0773C75.4728 71.2085 75.4891 68.8464 75.5086 68.8234C75.5281 68.8036 76.4124 68.7937 77.4723 68.8003L79.4003 68.8135L79.4263 74.0872H79.4296ZM82.2874 70.5703C82.3036 72.5738 82.2874 72.735 81.9948 72.8732C81.5494 73.087 81.2307 72.8403 81.1299 72.2152C81.1104 72.0935 81.0747 71.9224 81.0487 71.8303C81.0227 71.7382 80.9739 71.5539 80.9381 71.4191C80.7853 70.8302 80.535 70.3564 80.2229 70.0735L79.9628 69.8366V69.3464C79.9628 68.7279 79.8522 68.7773 81.1527 68.797L82.2679 68.8135L82.2841 70.567L82.2874 70.5703ZM89.827 68.8694C89.827 68.9155 89.8887 69.1918 89.9668 69.4879C90.0448 69.7807 90.1293 70.113 90.1553 70.2281C90.1846 70.34 90.2301 70.5275 90.2594 70.6394C90.4154 71.2513 90.5487 71.8007 90.5877 71.9948C90.6105 72.1165 90.695 72.462 90.7763 72.7613C90.8576 73.064 90.9421 73.4094 90.9681 73.5279C91.0364 73.8536 91.1047 74.1464 91.2087 74.5412C91.3323 75.0215 91.3973 75.2945 91.4526 75.5544C91.5566 76.0578 91.7387 76.7684 91.7842 76.8572C91.8102 76.9099 91.833 77.0053 91.833 77.0711C91.833 77.1369 91.8557 77.2685 91.885 77.3606C91.9305 77.5152 92.0345 77.91 92.1678 78.4627C92.1971 78.5844 92.2459 78.7588 92.2719 78.8509C92.3011 78.943 92.3206 79.0647 92.3206 79.1174C92.3206 79.3016 92.4995 79.522 92.7726 79.6701C93.2375 79.9234 93.374 80.2359 93.1465 80.5221L93.0359 80.657H90.4382C87.5186 80.657 87.6779 80.6801 87.6194 80.2425C87.5901 80.0287 87.5999 80.0122 87.9348 79.6997C88.3086 79.351 88.3542 79.1799 88.2046 78.693C88.1753 78.5976 88.1071 78.3508 88.0518 78.137L87.951 77.7521L86.735 77.7258C85.6882 77.7027 85.5191 77.6863 85.5386 77.6172C85.5484 77.5711 85.6004 77.3737 85.6556 77.1796C85.7077 76.9822 85.7662 76.7552 85.7857 76.673L85.8215 76.5217H86.7155C87.7234 76.5217 87.7169 76.5217 87.5836 76.1335C87.5381 76.0019 87.4991 75.8242 87.4991 75.7452C87.4991 75.663 87.4731 75.584 87.4438 75.5643C87.4146 75.5446 87.3885 75.4623 87.3885 75.3768C87.3885 75.2912 87.3658 75.1531 87.3398 75.0642C87.2943 74.9096 87.1642 74.4129 87.0537 73.972C87.0244 73.8503 86.9789 73.666 86.9496 73.5608C86.7513 72.7646 86.6635 72.406 86.6245 72.2185C86.566 71.929 86.4912 71.6329 86.3839 71.2315C86.3351 71.0506 86.2734 70.8039 86.2474 70.6821C86.2214 70.5604 86.1693 70.34 86.1336 70.1887C86.0458 69.8202 86.0816 69.2708 86.1986 69.1984C86.2246 69.182 86.2474 69.0997 86.2474 69.0175C86.2474 68.9352 86.2636 68.8497 86.2831 68.8299C86.3677 68.7444 89.8237 68.7905 89.8237 68.876L89.827 68.8694ZM95.3378 69.3135L95.354 69.807L95.0419 70.136C94.8696 70.317 94.7005 70.5275 94.668 70.6032C94.5347 70.896 94.4404 71.1328 94.3787 71.3434C94.3429 71.4651 94.2909 71.6197 94.2649 71.6888C94.2389 71.7579 94.2161 71.8961 94.2161 71.9981C94.2161 72.587 93.852 73.0114 93.4196 72.9291C93.0359 72.8567 93.0262 72.8008 93.0262 70.6723V68.7937L94.1771 68.8102L95.328 68.8266L95.3443 69.3201L95.3378 69.3135ZM99.961 74.0115V79.2259L100.078 79.3904C100.146 79.4858 100.338 79.624 100.54 79.7194C101.187 80.0254 101.19 80.5879 100.543 80.6669C99.9578 80.7393 95.2175 80.6735 95.1199 80.5912C94.8338 80.3511 95.0842 79.8773 95.6174 79.6438C96.0758 79.4464 96.0335 79.9958 96.0498 74.1431C96.0563 71.2743 96.0758 68.899 96.0888 68.8628C96.1083 68.8102 96.5472 68.7937 98.0395 68.7937H99.9643V74.0082L99.961 74.0115ZM102.835 70.715V72.6363L102.705 72.7778C102.601 72.8896 102.52 72.9225 102.328 72.9258C101.921 72.9357 101.769 72.7153 101.645 71.9454C101.502 71.0605 101.083 70.2084 100.667 69.9617C100.51 69.8695 100.507 69.8597 100.507 69.3662C100.507 68.7378 100.39 68.7937 101.707 68.7937H102.835V70.715V70.715ZM109.445 68.876C109.845 69.0833 109.711 69.5504 109.175 69.8268C108.964 69.9353 108.882 70.0143 108.808 70.1821C108.713 70.3959 108.71 79.1404 108.804 79.3477C108.856 79.4628 109.321 79.8148 109.422 79.8148C109.62 79.8148 109.721 80.328 109.562 80.5287L109.451 80.6636H106.821C103.833 80.6636 103.993 80.6866 104.002 80.2261C104.009 79.9497 104.054 79.8905 104.441 79.6799C104.919 79.4167 104.893 79.726 104.893 74.7484C104.893 69.7708 104.903 70.1327 104.574 69.8959C104.487 69.8333 104.399 69.7807 104.379 69.7807C104.006 69.7807 103.846 69.0635 104.181 68.8793C104.399 68.7576 109.217 68.7576 109.445 68.8793V68.876ZM127.219 68.8563C127.219 68.8892 127.304 69.0504 127.408 69.2148C127.512 69.3793 127.596 69.5274 127.596 69.5405C127.596 69.5537 127.681 69.7018 127.785 69.8662C127.889 70.0307 127.974 70.1821 127.974 70.1985C127.974 70.215 128.058 70.3663 128.162 70.5308C128.266 70.6953 128.351 70.84 128.351 70.8499C128.351 70.8598 128.516 71.1625 128.721 71.5211C128.926 71.8796 129.124 72.2317 129.17 72.3073C129.215 72.383 129.258 72.4554 129.274 72.4718C129.29 72.4883 129.326 72.5475 129.359 72.61C129.521 72.916 129.628 73.1068 129.651 73.1298C129.667 73.1462 129.706 73.2055 129.739 73.268C129.944 73.6463 130.097 73.9161 130.217 74.1102C130.295 74.2319 130.357 74.3438 130.357 74.3569C130.357 74.3701 130.555 74.7221 130.799 75.1399C131.514 76.3703 131.553 76.4427 131.586 76.5447C131.602 76.5973 131.638 76.6401 131.664 76.6401C131.69 76.6401 131.712 77.5317 131.712 78.6699V80.6998H130.506C129.417 80.6998 129.294 80.6899 129.241 80.6044C129.209 80.5518 129.121 80.3971 129.046 80.2622C128.767 79.7556 128.679 79.6043 128.546 79.3904C128.471 79.2687 128.406 79.1536 128.406 79.1371C128.406 79.1207 128.321 78.9726 128.217 78.8048C128.113 78.6403 128.029 78.4923 128.029 78.4758C128.029 78.4594 127.944 78.3114 127.84 78.1469C127.736 77.9824 127.652 77.8343 127.652 77.8212C127.652 77.808 127.567 77.66 127.463 77.4955C127.359 77.331 127.275 77.1796 127.275 77.1599C127.275 77.1402 127.229 77.0579 127.174 76.979C127.118 76.9 127.011 76.7223 126.936 76.5875C126.862 76.4526 126.748 76.2552 126.686 76.1499C126.621 76.0446 126.553 75.9196 126.533 75.8768C126.51 75.8308 126.39 75.6137 126.263 75.3965C126.133 75.1761 126.029 74.9853 126.029 74.9721C126.029 74.959 125.919 74.7747 125.785 74.5609C125.652 74.3503 125.542 74.1628 125.542 74.1464C125.542 74.1299 125.457 73.9819 125.353 73.8174C125.249 73.6529 125.164 73.5048 125.164 73.4884C125.164 73.4719 125.08 73.3239 124.976 73.1594C124.872 72.9949 124.787 72.8469 124.787 72.8304C124.787 72.814 124.703 72.6659 124.599 72.5014C124.495 72.3369 124.41 72.1955 124.41 72.1856C124.41 72.1757 124.235 71.8632 124.023 71.4882C123.812 71.1131 123.588 70.7216 123.529 70.613C123.23 70.0768 123.074 69.932 122.544 69.7018C122.024 69.4747 121.923 69.0898 122.326 68.8694C122.476 68.7872 127.229 68.7806 127.229 68.8628L127.219 68.8563ZM132.86 68.8859C133.172 69.0504 133.117 69.7939 132.792 69.7939C132.698 69.7939 132.148 70.2018 132.034 70.3564C131.748 70.7414 131.729 70.9355 131.729 73.4094V75.6893L131.566 75.4294C131.478 75.2847 131.404 75.1531 131.404 75.1366C131.404 75.1202 131.355 75.0346 131.296 74.9524C131.238 74.8701 131.104 74.6333 130.997 74.4293L130.805 74.0575V72.5376C130.805 70.7808 130.773 70.5933 130.405 70.2314C130.288 70.113 130.158 70.0176 130.119 70.0176C130.08 70.0176 130.048 69.9913 130.048 69.9617C130.048 69.932 130.015 69.9057 129.98 69.9057C129.524 69.9057 129.32 69.0865 129.723 68.8793C129.934 68.7707 132.655 68.7806 132.86 68.8892V68.8859ZM85.7272 70.8039C85.6947 70.8433 85.6264 71.0243 85.5809 71.2019C85.5321 71.3796 85.4703 71.6099 85.4443 71.7152C85.4151 71.8204 85.3793 71.9685 85.3663 72.0441C85.35 72.1198 85.3175 72.2317 85.2915 72.2909C85.2655 72.3501 85.233 72.462 85.2167 72.5376C85.2005 72.6133 85.1485 72.8238 85.0997 73.0048C85.0509 73.1857 84.9989 73.3963 84.9826 73.4719C84.9696 73.5476 84.9339 73.6595 84.9111 73.7187C84.8884 73.7779 84.8526 73.8898 84.8396 73.9654C84.8266 74.0411 84.7713 74.2516 84.7193 74.4326C84.6673 74.6135 84.6153 74.8241 84.6023 74.8998C84.5892 74.9754 84.5567 75.0873 84.5307 75.1465C84.5047 75.2057 84.4722 75.3176 84.4592 75.3932C84.4462 75.4689 84.3909 75.6795 84.3422 75.8604C84.2056 76.3407 84.1503 76.5513 84.1016 76.7651C84.0755 76.8704 83.991 77.1928 83.913 77.479C83.8317 77.7652 83.7472 78.0876 83.7244 78.1929C83.5228 79.0549 83.0352 79.6734 82.5637 79.6734C82.0598 79.6734 81.9558 80.5518 82.4369 80.759C82.6548 80.8544 85.3565 80.8511 85.5223 80.759C86.0783 80.4432 86.023 79.9398 85.3923 79.6207C84.8071 79.3246 84.6868 79.0351 84.8591 78.3475C84.9209 78.0975 84.9924 77.808 85.0184 77.7027C85.0444 77.5974 85.1062 77.3639 85.155 77.1829C85.2915 76.6993 85.3468 76.4921 85.3955 76.2782C85.4216 76.1729 85.4833 75.9394 85.5321 75.7584C85.6394 75.3735 85.8182 74.6892 85.8832 74.4161C85.9092 74.3109 85.971 74.0872 86.0198 73.9227C86.0686 73.7582 86.1238 73.5345 86.1401 73.4292C86.1563 73.3239 86.1921 73.2055 86.2214 73.1693C86.2896 73.0837 86.2896 72.4027 86.2214 72.3172C86.1921 72.281 86.1563 72.1659 86.1401 72.0606C86.1238 71.9553 86.0718 71.7086 86.0198 71.5112C85.971 71.3138 85.9157 71.0736 85.8995 70.9749C85.867 70.7644 85.8117 70.715 85.7239 70.8203L85.7272 70.8039ZM85.945 71.5934C86.2214 72.6955 86.2376 72.7844 86.1596 73.0541C86.1271 73.1726 86.0718 73.3733 86.0393 73.5016C86.0068 73.6299 85.9483 73.847 85.9092 73.9819C85.8735 74.1168 85.815 74.3273 85.7857 74.449C85.7044 74.7682 85.6101 75.1268 85.5321 75.4097C85.4606 75.6663 85.3923 75.9361 85.2948 76.3144C85.2655 76.4361 85.2005 76.6829 85.1485 76.8638C85.0964 77.0448 85.0379 77.2652 85.0119 77.3573C84.9859 77.4494 84.9436 77.6205 84.9111 77.7422C84.8819 77.8639 84.8168 78.1041 84.7648 78.2817C84.5665 78.9726 84.729 79.4003 85.3013 79.6931C85.8085 79.953 85.9385 80.2326 85.6947 80.5386L85.5646 80.7031L84.2219 80.7228C82.4825 80.7459 82.3394 80.7294 82.2224 80.4794C82.1736 80.3741 82.1476 80.2425 82.1638 80.1866C82.1996 80.0747 82.3752 79.851 82.4272 79.851C82.7426 79.851 83.4058 79.3049 83.5684 78.9134C83.7374 78.5022 83.7537 78.4561 83.7829 78.3146C83.8122 78.1699 83.8545 78.0021 84.0073 77.4659C84.0593 77.2849 84.1211 77.0513 84.1438 76.9461C84.1666 76.8408 84.2284 76.6072 84.2804 76.4263C84.3324 76.2453 84.3974 76.0117 84.4267 75.9065C84.4559 75.8012 84.4917 75.6334 84.508 75.5347C84.5242 75.436 84.5567 75.3439 84.5827 75.3241C84.6087 75.3077 84.6315 75.2123 84.6315 75.1136C84.6315 75.0149 84.651 74.9162 84.6705 74.8932C84.6933 74.8701 84.742 74.7254 84.7811 74.5675C84.9209 74.0016 84.9469 73.8963 85.0021 73.7088C85.1192 73.2844 85.3468 72.4126 85.3695 72.2843C85.3858 72.2086 85.4183 72.0968 85.4411 72.0376C85.4671 71.9783 85.4996 71.8665 85.5158 71.7908C85.6394 71.1888 85.7727 70.8631 85.8117 71.0703C85.8215 71.1197 85.88 71.3598 85.9385 71.6L85.945 71.5934ZM123.36 75.0675L123.344 78.6732L123.217 78.9331C123.077 79.2194 122.876 79.4135 122.58 79.5582C121.929 79.8708 121.786 80.4958 122.307 80.759C122.521 80.8676 125.233 80.8807 125.47 80.7722C126.042 80.5156 125.912 79.9497 125.187 79.5286C124.475 79.1174 124.488 79.1799 124.456 75.8505L124.426 73.0278L124.225 72.712C124.114 72.5376 124.023 72.383 124.023 72.3698C124.023 72.3567 123.939 72.2086 123.835 72.0441C123.731 71.8796 123.646 71.7217 123.646 71.6954C123.646 71.6395 123.467 71.4651 123.412 71.4651C123.393 71.4651 123.37 73.087 123.363 75.0708L123.36 75.0675ZM123.623 71.8369C123.656 71.8895 123.747 72.054 123.828 72.2021C123.909 72.3501 124.059 72.6034 124.163 72.7646L124.348 73.0607V75.7321C124.348 79.1174 124.352 79.1338 125.278 79.6931C125.88 80.0583 125.893 80.634 125.301 80.7097C124.605 80.7952 122.352 80.7162 122.235 80.5978C121.991 80.3511 122.196 79.6997 122.524 79.6931C122.661 79.6931 123.103 79.2983 123.246 79.0516L123.399 78.7884L123.415 75.2649C123.432 71.6757 123.438 71.5375 123.623 71.8369V71.8369ZM62.5915 76.3703L62.4387 76.5019V80.7426L62.5915 80.8742C62.8874 81.1308 63.1865 81.1143 63.4661 80.8215C63.7099 80.5682 63.7782 80.555 64.2464 80.6834C66.2426 81.2295 66.2816 81.2229 66.2491 80.3544C66.2329 79.874 66.2361 79.8839 65.9337 79.7556C65.3518 79.5122 65.1209 79.3608 64.7145 78.9529C64.1846 78.4199 63.944 77.9791 63.6579 77.0151C63.4401 76.2848 62.9979 76.015 62.5915 76.3703ZM63.2905 76.4427C63.4206 76.5842 63.4986 76.7684 63.6579 77.3047C63.6937 77.4264 63.7424 77.5744 63.7684 77.6336C64.2431 78.7884 64.7568 79.3016 66.0475 79.9102C66.1126 79.9398 66.1288 80.055 66.1288 80.4366V80.9235H65.8297C65.5208 80.9235 64.9519 80.8149 64.7861 80.7261C64.734 80.6998 64.643 80.6768 64.578 80.6768C64.513 80.6768 64.4219 80.6537 64.3667 80.6241C64.048 80.4531 63.6904 80.4925 63.4498 80.7261C63.1572 81.0123 62.8678 81.0387 62.6533 80.8084L62.52 80.6636V76.5809L62.663 76.4361C62.8581 76.2387 63.1052 76.242 63.2873 76.4427" fill="white"/>
<path fill-rule="evenodd" clip-rule="evenodd" d="M21.0865 61.0296C20.8914 61.0395 20.7126 61.0724 20.6833 61.102C20.6541 61.1316 20.537 61.1546 20.4232 61.1546C20.2899 61.1546 20.2054 61.1842 20.1859 61.2369C20.1631 61.2928 20.0786 61.3191 19.916 61.3191C19.786 61.3191 19.6787 61.3455 19.6787 61.3751C19.6787 61.4047 19.5942 61.431 19.4901 61.431C19.3861 61.431 19.3016 61.4573 19.3016 61.4869C19.3016 61.5165 19.217 61.5428 19.113 61.5428C18.9797 61.5428 18.9244 61.5659 18.9244 61.6251C18.9244 61.6843 18.8691 61.7073 18.7391 61.7073C18.6383 61.7073 18.5473 61.7304 18.5375 61.76C18.5278 61.7896 18.44 61.8192 18.3424 61.8258C18.2449 61.8324 18.1669 61.8587 18.1669 61.8817C18.1669 61.9047 18.1181 61.9245 18.0596 61.9245C18.0011 61.9245 17.9523 61.9607 17.9523 62.0067C17.9523 62.0594 17.9003 62.089 17.8157 62.089C17.741 62.089 17.6792 62.1153 17.6792 62.1449C17.6792 62.1745 17.6174 62.2008 17.5426 62.2008C17.4679 62.2008 17.4061 62.2271 17.4061 62.2567C17.4061 62.2864 17.3573 62.3127 17.2988 62.3127C17.2403 62.3127 17.1915 62.3357 17.1915 62.3653C17.1915 62.3949 17.1297 62.4344 17.055 62.4541C16.9802 62.4739 16.9184 62.5101 16.9184 62.5364C16.9184 62.5627 16.8696 62.5857 16.8144 62.5857C16.7591 62.5857 16.6941 62.6088 16.6746 62.6417C16.6551 62.6713 16.603 62.6976 16.5608 62.6976C16.4665 62.6976 16.3234 62.8259 16.3234 62.9114C16.3234 62.9443 16.2682 62.9706 16.1999 62.9706C16.1316 62.9706 16.0406 63.02 15.9983 63.0792C15.956 63.1384 15.865 63.1878 15.7967 63.1878C15.7285 63.1878 15.6732 63.2141 15.6732 63.247C15.6732 63.3358 15.5301 63.4641 15.4294 63.4641C15.3286 63.4641 15.1855 63.5924 15.1855 63.678C15.1855 63.7109 15.1497 63.7372 15.1042 63.7372C15.0587 63.7372 15.0229 63.7602 15.0229 63.7931C15.0229 63.826 14.9839 63.849 14.9384 63.849C14.8929 63.849 14.7206 63.9839 14.5613 64.1517C14.402 64.3162 14.2459 64.4544 14.2134 64.4544C14.1809 64.4544 14.1581 64.4807 14.1581 64.5103C14.1581 64.586 13.9078 64.836 13.8363 64.836C13.8037 64.836 13.781 64.859 13.781 64.8886C13.781 64.9183 13.5599 65.1617 13.2933 65.4315C13.0267 65.7012 12.8056 65.9611 12.8056 66.0072C12.8056 66.0533 12.7829 66.096 12.7503 66.096C12.7178 66.096 12.6951 66.1322 12.6951 66.1783C12.6951 66.2243 12.6691 66.2605 12.6366 66.2605C12.5488 66.2605 12.4252 66.4053 12.4252 66.5073C12.4252 66.6093 12.2984 66.754 12.2106 66.754C12.1781 66.754 12.1521 66.8034 12.1521 66.8626C12.1521 66.9218 12.1294 66.9711 12.0969 66.9711C12.0643 66.9711 12.0416 67.0073 12.0416 67.0534C12.0416 67.0994 12.0156 67.1356 11.9863 67.1356C11.957 67.1356 11.931 67.1751 11.931 67.2212C11.931 67.2672 11.8693 67.3626 11.7945 67.4317C11.7197 67.5008 11.6579 67.5995 11.6579 67.6489C11.6579 67.6982 11.6352 67.7377 11.6027 67.7377C11.5702 67.7377 11.5474 67.8002 11.5474 67.8759C11.5474 67.9515 11.5214 68.014 11.4921 68.014C11.4629 68.014 11.4369 68.0601 11.4369 68.1193C11.4369 68.1785 11.4011 68.2377 11.3556 68.2542C11.3101 68.2706 11.2743 68.3364 11.2743 68.3989C11.2743 68.4615 11.2483 68.5108 11.219 68.5108C11.1898 68.5108 11.1638 68.5733 11.1638 68.649C11.1638 68.7246 11.1377 68.7871 11.1085 68.7871C11.0792 68.7871 11.0532 68.8332 11.0532 68.8924C11.0532 68.9516 11.0174 69.0109 10.9719 69.0273C10.9264 69.0438 10.8906 69.1096 10.8906 69.1688C10.8906 69.228 10.8646 69.2806 10.8354 69.2806C10.8061 69.2806 10.7801 69.3662 10.7801 69.4714C10.7801 69.5767 10.7541 69.6623 10.7248 69.6623C10.6956 69.6623 10.6696 69.7478 10.6696 69.8531C10.6696 69.988 10.6436 70.0439 10.5883 70.0439C10.533 70.0439 10.507 70.1031 10.507 70.2347C10.507 70.34 10.481 70.4255 10.4517 70.4255C10.4225 70.4255 10.3965 70.511 10.3965 70.6163C10.3965 70.7216 10.3737 70.8071 10.3412 70.8071C10.3087 70.8071 10.2859 70.9157 10.2859 71.0473C10.2859 71.2118 10.2599 71.2973 10.2046 71.3204C10.1526 71.3401 10.1234 71.4256 10.1234 71.5671C10.1234 71.6921 10.0941 71.7941 10.0551 71.8073C9.95755 71.8402 9.95755 77.2849 10.0551 77.3178C10.0941 77.331 10.1234 77.4329 10.1234 77.5514C10.1234 77.6698 10.1591 77.7981 10.2046 77.8442C10.2502 77.8902 10.2859 78.0251 10.2859 78.1501C10.2859 78.2751 10.3119 78.3738 10.3412 78.3738C10.3705 78.3738 10.3965 78.4594 10.3965 78.5647C10.3965 78.6699 10.4225 78.7555 10.4517 78.7555C10.481 78.7555 10.507 78.8311 10.507 78.9233C10.507 79.0219 10.5395 79.1009 10.5883 79.1206C10.6338 79.1404 10.6696 79.2193 10.6696 79.3115C10.6696 79.4036 10.6956 79.4694 10.7248 79.4694C10.7541 79.4694 10.7801 79.5549 10.7801 79.6602C10.7801 79.7655 10.8061 79.851 10.8354 79.851C10.8646 79.851 10.8906 79.9135 10.8906 79.9892C10.8906 80.0747 10.9232 80.1273 10.9719 80.1273C11.0207 80.1273 11.0532 80.18 11.0532 80.2655C11.0532 80.3412 11.0792 80.4037 11.1085 80.4037C11.1377 80.4037 11.1638 80.453 11.1638 80.5123C11.1638 80.5715 11.1898 80.6208 11.219 80.6208C11.2483 80.6208 11.2743 80.6833 11.2743 80.759C11.2743 80.8445 11.3036 80.8972 11.3556 80.8972C11.4011 80.8972 11.4369 80.9465 11.4369 81.0057C11.4369 81.065 11.4596 81.1143 11.4921 81.1143C11.5246 81.1143 11.5474 81.1768 11.5474 81.2525C11.5474 81.3281 11.5702 81.3907 11.6027 81.3907C11.6352 81.3907 11.6579 81.44 11.6579 81.4959C11.6579 81.5519 11.7197 81.6506 11.7945 81.7098C11.8693 81.769 11.931 81.8512 11.931 81.894C11.931 81.9368 11.9798 82.0256 12.0383 82.0881C12.0969 82.1539 12.1456 82.2427 12.1456 82.2888C12.1456 82.3349 12.1814 82.3743 12.2269 82.3743C12.2724 82.3743 12.3082 82.4105 12.3082 82.4566C12.3082 82.5026 12.3342 82.5388 12.3635 82.5388C12.3927 82.5388 12.4187 82.5783 12.4187 82.6276C12.4187 82.677 12.5033 82.7987 12.6073 82.8974C12.7113 82.9961 12.7991 83.1113 12.7991 83.1507C12.7991 83.2429 12.9292 83.4139 12.9942 83.4139C13.0202 83.4139 13.0885 83.4764 13.147 83.5554C13.3161 83.7857 13.4299 83.9074 13.4721 83.9074C13.5209 83.9074 13.6639 84.0522 13.6639 84.0982C13.6639 84.1443 13.807 84.289 13.8525 84.289C13.898 84.289 14.0411 84.4338 14.0411 84.4799C14.0411 84.5259 14.1841 84.6707 14.2297 84.6707C14.2752 84.6707 14.4182 84.8154 14.4182 84.8615C14.4182 84.9141 14.5645 85.0523 14.6198 85.0523C14.6458 85.0523 14.7011 85.1016 14.7433 85.1609C14.7856 85.2201 14.8539 85.2694 14.8929 85.2694C14.9319 85.2694 15.0457 85.355 15.1465 85.4602C15.2473 85.5655 15.3806 85.651 15.4424 85.651C15.5041 85.651 15.5561 85.6774 15.5561 85.7103C15.5561 85.7991 15.6992 85.9241 15.8 85.9241C15.9008 85.9241 16.0438 86.0524 16.0438 86.1379C16.0438 86.1708 16.0991 86.1972 16.1674 86.1972C16.2357 86.1972 16.3267 86.2465 16.369 86.3057C16.4112 86.3649 16.473 86.4143 16.5088 86.4143C16.6095 86.4143 16.9119 86.5821 16.9119 86.638C16.9119 86.6643 16.9737 86.6874 17.0485 86.6874C17.1232 86.6874 17.185 86.7104 17.185 86.7433C17.185 86.7762 17.2338 86.7992 17.2923 86.7992C17.3508 86.7992 17.3996 86.8222 17.3996 86.8551C17.3996 86.888 17.4614 86.9111 17.5361 86.9111C17.6207 86.9111 17.6727 86.944 17.6727 86.9933C17.6727 87.0427 17.7247 87.0756 17.8092 87.0756C17.884 87.0756 17.9458 87.0986 17.9458 87.1315C17.9458 87.1644 17.9946 87.1874 18.0531 87.1874C18.1116 87.1874 18.1604 87.2104 18.1604 87.2433C18.1604 87.2762 18.2449 87.2993 18.3489 87.2993C18.4822 87.2993 18.5375 87.3223 18.5375 87.3815C18.5375 87.4407 18.596 87.4638 18.7261 87.4638C18.8301 87.4638 18.9147 87.4868 18.9147 87.5197C18.9147 87.5526 18.9992 87.5756 19.1032 87.5756C19.2073 87.5756 19.2918 87.5986 19.2918 87.6315C19.2918 87.6644 19.3731 87.6875 19.4771 87.6875C19.5909 87.6875 19.6722 87.7204 19.6917 87.7697C19.7112 87.8224 19.7957 87.852 19.9355 87.852C20.0591 87.852 20.1599 87.8816 20.1729 87.9211C20.2054 88.023 129.788 88.023 129.82 87.9211C129.833 87.8849 129.924 87.852 130.022 87.852C130.119 87.852 130.23 87.8158 130.269 87.7697C130.305 87.7237 130.418 87.6875 130.519 87.6875C130.62 87.6875 130.701 87.6644 130.701 87.6315C130.701 87.5986 130.786 87.5756 130.89 87.5756C130.994 87.5756 131.078 87.5526 131.078 87.5197C131.078 87.4868 131.163 87.4638 131.267 87.4638C131.4 87.4638 131.456 87.4407 131.456 87.3815C131.456 87.3223 131.514 87.2993 131.644 87.2993C131.748 87.2993 131.833 87.2762 131.833 87.2433C131.833 87.2104 131.882 87.1874 131.94 87.1874C131.999 87.1874 132.047 87.1644 132.047 87.1315C132.047 87.0986 132.109 87.0756 132.184 87.0756C132.268 87.0756 132.32 87.046 132.32 86.9933C132.32 86.9407 132.372 86.9111 132.457 86.9111C132.532 86.9111 132.594 86.888 132.594 86.8551C132.594 86.8222 132.642 86.7992 132.701 86.7992C132.759 86.7992 132.808 86.7762 132.808 86.7433C132.808 86.7104 132.87 86.6874 132.945 86.6874C133.019 86.6874 133.081 86.6643 133.081 86.638C133.081 86.5821 133.384 86.4143 133.484 86.4143C133.517 86.4143 133.582 86.3649 133.624 86.3057C133.666 86.2465 133.757 86.1972 133.826 86.1972C133.894 86.1972 133.949 86.1708 133.949 86.1379C133.949 86.0491 134.092 85.9241 134.193 85.9241C134.294 85.9241 134.437 85.7991 134.437 85.7103C134.437 85.6774 134.489 85.651 134.551 85.651C134.613 85.651 134.746 85.5655 134.847 85.4602C134.947 85.355 135.061 85.2694 135.1 85.2694C135.139 85.2694 135.204 85.2201 135.25 85.1609C135.292 85.1016 135.347 85.0523 135.373 85.0523C135.429 85.0523 135.575 84.9108 135.575 84.8615C135.575 84.8154 135.721 84.6707 135.763 84.6707C135.806 84.6707 135.952 84.5259 135.952 84.4799C135.952 84.4338 136.095 84.289 136.141 84.289C136.186 84.289 136.329 84.1443 136.329 84.0982C136.329 84.0489 136.475 83.9074 136.531 83.9074C136.557 83.9074 136.625 83.8416 136.684 83.7594C136.742 83.6771 136.882 83.5258 136.996 83.4205C137.106 83.3152 137.197 83.1968 137.197 83.154C137.197 83.1113 137.282 82.9994 137.386 82.8974C137.49 82.7987 137.574 82.677 137.574 82.6276C137.574 82.5783 137.6 82.5388 137.63 82.5388C137.659 82.5388 137.685 82.5026 137.685 82.4566C137.685 82.4105 137.721 82.3743 137.766 82.3743C137.812 82.3743 137.848 82.3349 137.848 82.2888C137.848 82.2427 137.896 82.1506 137.955 82.0881C138.013 82.0223 138.062 81.9368 138.062 81.894C138.062 81.8512 138.124 81.769 138.199 81.7098C138.273 81.6506 138.335 81.5552 138.335 81.4959C138.335 81.4367 138.358 81.3907 138.39 81.3907C138.423 81.3907 138.446 81.3281 138.446 81.2525C138.446 81.1768 138.472 81.1143 138.501 81.1143C138.53 81.1143 138.556 81.065 138.556 81.0057C138.556 80.9465 138.592 80.8972 138.638 80.8972C138.69 80.8972 138.719 80.8445 138.719 80.759C138.719 80.6833 138.745 80.6208 138.774 80.6208C138.803 80.6208 138.829 80.5715 138.829 80.5123C138.829 80.453 138.852 80.4037 138.885 80.4037C138.917 80.4037 138.94 80.3445 138.94 80.2721C138.94 80.1997 138.976 80.1273 139.021 80.1076C139.067 80.0912 139.102 80.0254 139.102 79.9661C139.102 79.9069 139.128 79.8543 139.158 79.8543C139.187 79.8543 139.213 79.7687 139.213 79.6635C139.213 79.5582 139.239 79.4727 139.268 79.4727C139.298 79.4727 139.324 79.4003 139.324 79.3147C139.324 79.2292 139.359 79.1437 139.405 79.1239C139.454 79.1042 139.486 79.0219 139.486 78.9265C139.486 78.8344 139.509 78.7588 139.541 78.7588C139.574 78.7588 139.597 78.6732 139.597 78.5679C139.597 78.4627 139.623 78.3771 139.652 78.3771C139.681 78.3771 139.707 78.2686 139.707 78.137C139.707 77.9922 139.74 77.8705 139.788 77.8277C139.834 77.7882 139.87 77.6698 139.87 77.5514C139.87 77.4329 139.899 77.3342 139.938 77.3211C139.99 77.3046 140.006 76.7026 140.006 74.5642C140.006 72.4257 139.99 71.827 139.938 71.8073C139.899 71.7941 139.87 71.6921 139.87 71.5671C139.87 71.4256 139.841 71.3401 139.788 71.3204C139.733 71.2973 139.707 71.2118 139.707 71.0473C139.707 70.9157 139.681 70.8071 139.652 70.8071C139.623 70.8071 139.597 70.7216 139.597 70.6163C139.597 70.511 139.574 70.4255 139.541 70.4255C139.509 70.4255 139.486 70.34 139.486 70.2347C139.486 70.0998 139.46 70.0439 139.405 70.0439C139.35 70.0439 139.324 69.9847 139.324 69.8531C139.324 69.7478 139.298 69.6623 139.268 69.6623C139.239 69.6623 139.213 69.5767 139.213 69.4714C139.213 69.3662 139.187 69.2806 139.158 69.2806C139.128 69.2806 139.102 69.2313 139.102 69.1688C139.102 69.1063 139.067 69.0438 139.021 69.0273C138.976 69.0109 138.94 68.9484 138.94 68.8924C138.94 68.8365 138.917 68.7871 138.885 68.7871C138.852 68.7871 138.829 68.7246 138.829 68.649C138.829 68.5733 138.803 68.5108 138.774 68.5108C138.745 68.5108 138.719 68.4615 138.719 68.3989C138.719 68.3364 138.683 68.2739 138.638 68.2542C138.592 68.2377 138.556 68.1752 138.556 68.1193C138.556 68.0634 138.53 68.014 138.501 68.014C138.472 68.014 138.446 67.9515 138.446 67.8759C138.446 67.8002 138.423 67.7377 138.39 67.7377C138.358 67.7377 138.335 67.6982 138.335 67.6489C138.335 67.5995 138.273 67.5008 138.199 67.4317C138.124 67.3626 138.062 67.2672 138.062 67.2212C138.062 67.1751 138.036 67.1356 138.007 67.1356C137.978 67.1356 137.952 67.0994 137.952 67.0534C137.952 67.0073 137.929 66.9711 137.896 66.9711C137.864 66.9711 137.841 66.9218 137.841 66.8626C137.841 66.8034 137.815 66.754 137.782 66.754C137.695 66.754 137.571 66.6093 137.571 66.5073C137.571 66.4053 137.444 66.2605 137.36 66.2605C137.327 66.2605 137.301 66.2243 137.301 66.1783C137.301 66.1322 137.279 66.096 137.246 66.096C137.214 66.096 137.191 66.0566 137.191 66.0072C137.191 65.9579 136.97 65.7012 136.703 65.4315C136.433 65.1617 136.215 64.9183 136.215 64.8886C136.215 64.859 136.189 64.836 136.16 64.836C136.085 64.836 135.838 64.5827 135.838 64.5103C135.838 64.4774 135.812 64.4544 135.783 64.4544C135.754 64.4544 135.594 64.3195 135.435 64.1517C135.276 63.9872 135.107 63.849 135.058 63.849C135.009 63.849 134.973 63.826 134.973 63.7931C134.973 63.7602 134.938 63.7372 134.892 63.7372C134.847 63.7372 134.811 63.7109 134.811 63.678C134.811 63.5891 134.668 63.4641 134.567 63.4641C134.466 63.4641 134.323 63.3358 134.323 63.247C134.323 63.2141 134.268 63.1878 134.2 63.1878C134.131 63.1878 134.04 63.1384 133.998 63.0792C133.956 63.02 133.865 62.9706 133.796 62.9706C133.728 62.9706 133.673 62.9443 133.673 62.9114C133.673 62.8259 133.53 62.6976 133.436 62.6976C133.39 62.6976 133.338 62.6746 133.319 62.6417C133.299 62.6121 133.237 62.5857 133.179 62.5857C133.12 62.5857 133.075 62.5627 133.075 62.5364C133.075 62.5101 133.013 62.4706 132.938 62.4541C132.863 62.4344 132.802 62.3949 132.802 62.3653C132.802 62.3357 132.753 62.3127 132.694 62.3127C132.636 62.3127 132.587 62.2864 132.587 62.2567C132.587 62.2271 132.525 62.2008 132.45 62.2008C132.376 62.2008 132.314 62.1745 132.314 62.1449C132.314 62.1153 132.252 62.089 132.177 62.089C132.093 62.089 132.041 62.0594 132.041 62.0067C132.041 61.9607 131.992 61.9245 131.934 61.9245C131.875 61.9245 131.826 61.9047 131.826 61.8817C131.826 61.8587 131.748 61.8324 131.651 61.8258C131.553 61.8192 131.465 61.7896 131.456 61.76C131.446 61.7304 131.355 61.7073 131.254 61.7073C131.127 61.7073 131.069 61.681 131.069 61.6251C131.069 61.5692 131.01 61.5428 130.88 61.5428C130.776 61.5428 130.692 61.5165 130.692 61.4869C130.692 61.4573 130.607 61.431 130.503 61.431C130.399 61.431 130.314 61.408 130.314 61.3751C130.314 61.3422 130.207 61.3191 130.077 61.3191C129.915 61.3191 129.83 61.2928 129.807 61.2369C129.788 61.1842 129.703 61.1546 129.57 61.1546C129.456 61.1546 129.333 61.125 129.294 61.0856C129.245 61.0198 22.2016 60.9638 21.0865 61.0296ZM128.026 64.2076C128.234 64.2405 128.562 64.3063 128.757 64.359C128.952 64.4083 129.196 64.4741 129.3 64.4972C129.778 64.6156 130.002 64.688 130.314 64.8261C130.383 64.8557 130.49 64.9018 130.558 64.9281C131.989 65.4874 133.819 66.9218 134.801 68.2542C134.889 68.3759 134.98 68.4812 135.003 68.4911C135.025 68.5009 135.042 68.5437 135.042 68.5832C135.042 68.6227 135.061 68.6654 135.084 68.6753C135.204 68.7279 135.907 69.9978 136.131 70.5703C136.462 71.4158 136.567 71.7645 136.745 72.6692C137.005 73.9917 137.005 75.436 136.745 76.4328C136.703 76.5874 136.671 76.7914 136.671 76.8802C136.671 76.9691 136.648 77.0612 136.615 77.0809C136.586 77.1007 136.56 77.1994 136.56 77.3013C136.56 77.4033 136.534 77.502 136.505 77.5218C136.476 77.5415 136.449 77.604 136.449 77.6599C136.449 77.7159 136.41 77.8573 136.362 77.9725C136.313 78.0876 136.251 78.2357 136.225 78.3048C136.121 78.5745 136.072 78.693 135.858 79.1404C135.624 79.6306 135.412 80.0254 135.364 80.0714C135.347 80.0879 135.221 80.2721 135.084 80.4827C134.947 80.6932 134.778 80.9268 134.71 81.0025C134.639 81.0781 134.518 81.2262 134.44 81.3314C134.235 81.6045 133.832 82.0157 133.364 82.427C133.14 82.6244 132.945 82.7954 132.932 82.8119C132.863 82.8843 132.343 83.2494 132.307 83.2494C132.285 83.2494 132.184 83.3119 132.086 83.3876C131.989 83.4633 131.748 83.6113 131.553 83.7166C131.075 83.9732 131.03 83.9962 130.874 84.0587C130.799 84.0884 130.597 84.1772 130.425 84.2561C130.253 84.3351 130.077 84.3976 130.035 84.3976C129.993 84.3976 129.944 84.4206 129.924 84.4535C129.905 84.4831 129.824 84.5095 129.739 84.5095C129.654 84.5095 129.57 84.5259 129.55 84.5489C129.469 84.6312 128.858 84.7726 128 84.9075C127.528 84.9832 22.6373 85.0062 22.1171 84.9306C21.4636 84.8384 20.6606 84.6542 20.4785 84.5588C20.4265 84.5325 20.3257 84.5095 20.2509 84.5095C20.1761 84.5095 20.1046 84.4864 20.0851 84.4535C20.0656 84.4239 20.0136 84.3976 19.9713 84.3976C19.929 84.3976 19.7502 84.3351 19.5812 84.2561C19.4121 84.1772 19.2105 84.0884 19.139 84.0587C18.9797 83.9929 18.9309 83.9666 18.4595 83.7133C18.2644 83.608 18.0238 83.46 17.9263 83.3843C17.8288 83.3087 17.728 83.2461 17.7052 83.2461C17.6662 83.2461 17.146 82.881 17.081 82.8086C17.0647 82.7921 16.8957 82.6441 16.7006 82.4763C16.2877 82.1243 15.7707 81.5979 15.5692 81.3249C15.4911 81.2196 15.3611 81.0584 15.2798 80.9663C15.0847 80.7458 14.6946 80.18 14.6946 80.1208C14.6946 80.0944 14.6751 80.0648 14.6556 80.055C14.5873 80.0254 14.0021 78.8936 13.8785 78.5548C13.8558 78.4956 13.8037 78.3574 13.7582 78.2521C13.7127 78.1468 13.6477 77.9626 13.6119 77.8409C13.5762 77.7192 13.5241 77.5777 13.4981 77.5251C13.4721 77.4724 13.4494 77.3869 13.4494 77.3375C13.4494 77.2882 13.4266 77.1697 13.3973 77.0776C13.0169 75.811 12.9617 74.0542 13.264 72.6593C13.3063 72.4619 13.3421 72.2481 13.3421 72.1823C13.3421 72.1165 13.3648 72.0474 13.3973 72.0277C13.4266 72.0079 13.4526 71.9421 13.4526 71.8763C13.4526 71.7283 13.5794 71.3204 13.7907 70.794C13.82 70.7183 13.8655 70.6064 13.8883 70.5472C14.0898 70.0176 14.9092 68.5503 15.0327 68.5009C15.0587 68.4911 15.0782 68.4582 15.0782 68.4286C15.0782 68.2838 16.1934 67.0731 16.8404 66.5138C17.4516 65.9875 18.7261 65.2078 19.4381 64.9248C19.4966 64.9018 19.6332 64.8459 19.7372 64.7998C19.8413 64.7538 20.0233 64.688 20.1436 64.6518C20.2639 64.6156 20.4167 64.5629 20.485 64.5366C20.5533 64.5103 20.6573 64.4873 20.7158 64.4873C20.7744 64.4873 20.8654 64.4643 20.9174 64.4379C21.0605 64.3623 21.7952 64.2109 22.0423 64.2076C22.1626 64.2076 22.3187 64.1846 22.3935 64.1583C22.6048 64.0892 127.574 64.1287 128.032 64.1978L128.026 64.2076ZM33.116 68.6621C33.0412 68.6852 32.8917 68.7082 32.7811 68.7115C32.6706 68.7148 32.5243 68.7411 32.456 68.7674C32.3877 68.797 32.1959 68.8562 32.0333 68.9056C30.9832 69.2181 30.0338 69.9419 29.4193 70.896C29.3381 71.0243 29.2698 71.1526 29.2698 71.1822C29.2698 71.2118 29.2438 71.2381 29.2145 71.2381C29.1853 71.2381 29.1593 71.2611 29.1593 71.2907C29.1593 71.3204 29.0975 71.4848 29.0194 71.6592C28.8211 72.1033 28.7919 72.1757 28.7594 72.3336C28.7431 72.4093 28.6911 72.6297 28.6423 72.8271C28.5935 73.0245 28.5318 73.4423 28.5058 73.7581C28.4797 74.074 28.4472 74.4063 28.4342 74.4984C28.4017 74.7056 28.509 76.2683 28.5643 76.4164C28.587 76.4756 28.6488 76.7223 28.7041 76.9658C28.7561 77.2059 28.8211 77.4264 28.8471 77.456C28.8731 77.4856 28.8927 77.5448 28.8927 77.5941C28.8927 77.6698 29.26 78.4627 29.3251 78.5285C29.3413 78.5449 29.4389 78.693 29.5461 78.8575C29.7965 79.2424 30.2972 79.7523 30.6776 80.0023C30.8401 80.1109 30.9864 80.2129 31.0027 80.226C31.0872 80.3116 31.9195 80.6636 32.0366 80.6636C32.0919 80.6636 32.1471 80.6833 32.1634 80.7129C32.2219 80.8083 33.3371 80.9399 33.3696 80.8544C33.4671 80.5978 33.3566 79.9793 33.2103 79.9629C33.129 79.953 33.0607 79.9234 33.0607 79.8971C33.0607 79.8707 33.0152 79.8345 32.9599 79.8181C32.8559 79.7852 32.7356 79.5714 32.6316 79.2358C32.5308 78.9068 32.5503 70.669 32.6511 70.2676C32.7421 69.9057 32.8917 69.7215 33.181 69.6063L33.3826 69.5241V69.0635C33.3826 68.5766 33.3793 68.57 33.1127 68.6588L33.116 68.6621ZM33.9808 69.0569V69.5241L34.1824 69.6063C34.423 69.705 34.5823 69.8728 34.6896 70.1393C34.8034 70.4288 34.8034 79.0417 34.6896 79.4069C34.6018 79.6865 34.3449 79.9563 34.1661 79.9563C34.0133 79.9563 33.9808 80.0484 33.9808 80.4991C33.9808 80.9498 33.9581 80.9301 34.371 80.8741C35.0375 80.7853 35.1447 80.7656 35.1968 80.7162C35.226 80.6899 35.2911 80.6669 35.3463 80.6669C35.4016 80.6669 35.5707 80.6044 35.7267 80.5287C35.8828 80.453 36.0291 80.3905 36.0518 80.3905C36.3379 80.3905 37.4596 79.4003 37.866 78.7851C38.0091 78.5679 38.1456 78.3804 38.1684 78.3706C38.1911 78.3607 38.2074 78.3212 38.2074 78.2784C38.2074 78.2357 38.2529 78.1107 38.3114 77.9955C38.5228 77.5711 38.5878 77.4099 38.5878 77.3112C38.5878 77.2553 38.6105 77.1665 38.6366 77.1138C38.9292 76.5348 39.0365 74.5905 38.8381 73.3996C38.7081 72.61 38.6918 72.5277 38.6463 72.4126C38.6236 72.3534 38.5715 72.2053 38.5358 72.0836C38.2594 71.1986 37.6677 70.3564 36.8224 69.6425C36.3282 69.228 35.226 68.7773 34.4685 68.6852C34.3352 68.6687 34.1694 68.6391 34.1044 68.6227C33.9841 68.5898 33.9808 68.5963 33.9808 69.0536V69.0569ZM44.8724 68.6556C44.7976 68.6786 44.6578 68.7016 44.557 68.7049C44.3782 68.7115 43.5719 68.9451 43.3963 69.0405C43.3443 69.0701 43.2663 69.0931 43.224 69.0931C43.1818 69.0931 43.1395 69.1128 43.1297 69.1326C43.12 69.1556 42.9704 69.2444 42.8014 69.3333C42.6291 69.4221 42.4893 69.5109 42.4893 69.5339C42.4893 69.557 42.4437 69.5899 42.3917 69.6063C41.9593 69.7445 40.6458 71.5375 40.6458 71.9915C40.6458 72.0441 40.6296 72.1066 40.6068 72.1264C40.5873 72.1494 40.5353 72.281 40.4995 72.4225C40.0183 74.199 40.1711 76.6828 40.8474 78.0251C40.9449 78.2225 41.0262 78.4002 41.0262 78.4265C41.0262 78.4495 41.0522 78.4989 41.0815 78.535C41.1107 78.5712 41.2278 78.7259 41.3383 78.8805C41.7512 79.4463 42.1544 79.828 42.7071 80.1701C43.042 80.3774 43.6629 80.657 43.793 80.657C43.8385 80.657 43.9003 80.68 43.9295 80.7064C43.9848 80.759 44.2872 80.8116 44.8074 80.8577L45.1455 80.8873V80.4432C45.1455 80.0681 45.1292 79.9925 45.0512 79.9661C44.6513 79.8345 44.505 79.6569 44.3912 79.1667C44.2904 78.7324 44.3099 70.7117 44.414 70.3169C44.5018 69.9715 44.7228 69.6359 44.8659 69.6326C45.0935 69.6294 45.152 69.5043 45.1357 69.0569C45.1195 68.6128 45.0967 68.5766 44.8756 68.649L44.8724 68.6556ZM45.7437 69.047V69.5142L45.9453 69.5965C46.1859 69.6952 46.3452 69.8629 46.4525 70.1294C46.5598 70.3959 46.5663 79.2983 46.4622 79.4036C46.4265 79.4398 46.394 79.5154 46.394 79.5681C46.394 79.6865 46.0884 79.9267 45.9063 79.953C45.7762 79.9727 45.6722 80.6077 45.7632 80.8478C45.7957 80.9301 46.8589 80.8051 46.9597 80.7064C46.9889 80.68 47.0475 80.657 47.0962 80.657C47.3888 80.657 48.543 79.9925 48.9689 79.5779C49.3883 79.17 49.8305 78.5778 50.0061 78.1863C50.2759 77.5876 50.3507 77.4033 50.3507 77.3112C50.3507 77.2553 50.3735 77.1928 50.3995 77.1763C50.4255 77.1599 50.4612 77.0546 50.4775 76.9395C50.4938 76.8276 50.549 76.4855 50.6043 76.1861C50.7343 75.4491 50.7376 74.0707 50.6075 73.3897C50.4417 72.4948 50.419 72.406 50.3247 72.1297C49.9898 71.1657 49.3493 70.2182 48.6926 69.7182C48.5755 69.6294 48.4682 69.5438 48.452 69.5274C48.3805 69.4484 47.8895 69.1885 47.5026 69.0306C47.1352 68.8793 46.5598 68.7181 46.2282 68.6786C46.0949 68.6621 45.929 68.6325 45.864 68.6161C45.7437 68.5832 45.7405 68.5898 45.7405 69.047H45.7437ZM17.4028 70.7479C17.4028 72.9949 17.3931 72.9423 17.858 72.939C18.2774 72.939 18.362 72.8304 18.5148 72.1198C18.7456 71.0407 18.9602 70.5407 19.3698 70.1327L19.6299 69.8728L19.6137 69.3629L19.5974 68.8529L18.4985 68.8365L17.3996 68.82V70.7413L17.4028 70.7479ZM20.4167 68.8562C20.3972 68.876 20.381 71.2513 20.3777 74.1332C20.3777 78.1666 20.3615 79.3937 20.3094 79.4595C20.2737 79.5056 20.0818 79.624 19.8835 79.7227C19.3698 79.976 19.2073 80.3214 19.4771 80.5945C19.6364 80.7557 25.1082 80.7426 25.2285 80.5813C25.4041 80.3445 25.287 79.8411 25.0562 79.8411C24.9359 79.8411 24.4677 79.5615 24.3897 79.4431C24.3214 79.3378 24.3084 78.5943 24.2954 74.1135C24.2857 70.0669 24.2662 68.899 24.2141 68.8661C24.1329 68.8135 20.4687 68.8069 20.4167 68.8595V68.8562ZM24.9164 68.8595C24.8969 68.8793 24.8806 69.1227 24.8806 69.3958V69.8925L25.0627 70.0274C25.3553 70.2479 25.6414 70.7315 25.8202 71.3171C25.8755 71.498 25.9438 71.7184 25.9698 71.804C25.9958 71.8928 26.0186 72.0573 26.0186 72.1724C26.0186 72.36 26.1454 72.6725 26.3014 72.8633C26.373 72.9554 26.8736 72.9521 26.9614 72.8633C27.202 72.6199 27.2118 72.531 27.1955 70.6459L27.1825 68.8497L26.0673 68.8332C25.4561 68.8266 24.9359 68.8332 24.9164 68.8562V68.8595ZM52.1486 68.8595C51.921 68.9023 51.8105 69.1918 51.895 69.5076C51.9113 69.5701 52.0543 69.6919 52.2332 69.7873C52.7956 70.0932 52.7566 69.7313 52.7729 74.6069C52.7924 79.703 52.8184 79.4792 52.2136 79.7819C51.9373 79.9234 51.8625 80.0319 51.8625 80.2951C51.8625 80.7097 51.7455 80.6899 54.2977 80.7097L56.5768 80.7261V75.5215C56.5768 69.6919 56.5508 70.0768 56.9734 69.8629C57.6009 69.5438 57.6887 69.047 57.1457 68.8694C57.0287 68.8299 52.3437 68.8233 52.1486 68.8628V68.8595ZM60.0458 76.6499C59.9255 76.6927 59.776 76.8671 59.776 76.9592C59.776 77.002 59.75 77.0546 59.7207 77.0743C59.6914 77.0941 59.6654 77.1665 59.6654 77.2388C59.6654 77.3112 59.6427 77.3836 59.6167 77.4C59.5907 77.4165 59.5516 77.4987 59.5321 77.581C59.3403 78.4035 58.5178 79.4595 58.0658 79.4595C58.0203 79.4595 57.9846 79.4792 57.9846 79.5023C57.9846 79.5253 57.8448 79.5779 57.6724 79.6141C57.1262 79.7391 57.1718 79.6832 57.1718 80.2326V80.7228L58.8917 80.7097L60.6115 80.6965L60.605 78.7851C60.5985 76.9987 60.592 76.8671 60.4978 76.7783C60.384 76.6697 60.1661 76.6105 60.0458 76.6532" fill="white"/>
<path fill-rule="evenodd" clip-rule="evenodd" d="M22.3868 64.1681C22.312 64.1912 22.1527 64.2142 22.0356 64.2175C21.7885 64.2241 21.0538 64.3754 20.9107 64.4478C20.8587 64.4741 20.7677 64.4971 20.7091 64.4971C20.6506 64.4971 20.5466 64.5202 20.4783 64.5465C20.41 64.5728 20.2572 64.6254 20.1369 64.6616C20.0166 64.6978 19.8346 64.7669 19.7305 64.8097C19.6265 64.8557 19.4932 64.9116 19.4314 64.9347C18.7194 65.2143 17.4449 65.994 16.8337 66.5237C16.1867 67.083 15.0715 68.2936 15.0715 68.4384C15.0715 68.468 15.052 68.5009 15.026 68.5108C14.9025 68.5601 14.0799 70.0274 13.8816 70.5571C13.8588 70.6163 13.8166 70.7281 13.784 70.8038C13.5727 71.3302 13.4459 71.7381 13.4459 71.8862C13.4459 71.9487 13.4232 72.0178 13.3906 72.0375C13.3614 72.0573 13.3354 72.1263 13.3354 72.1921C13.3354 72.2579 13.2996 72.4718 13.2573 72.6692C12.9582 74.0641 13.0103 75.8209 13.3906 77.0875C13.4199 77.1796 13.4427 77.298 13.4427 77.3474C13.4427 77.3967 13.4654 77.4823 13.4914 77.5349C13.5174 77.5875 13.5695 77.729 13.6052 77.8507C13.641 77.9725 13.7093 78.1567 13.7515 78.262C13.7971 78.3672 13.8491 78.5021 13.8718 78.5646C13.9954 78.9002 14.5806 80.0319 14.6489 80.0648C14.6716 80.0747 14.6879 80.1043 14.6879 80.1306C14.6879 80.1931 15.078 80.7557 15.2731 80.9761C15.3544 81.0682 15.4844 81.2294 15.5625 81.3347C15.764 81.6078 16.281 82.1341 16.6939 82.4862C16.889 82.6507 17.058 82.802 17.0743 82.8184C17.1426 82.8908 17.6628 83.256 17.6985 83.256C17.7213 83.256 17.8221 83.3185 17.9196 83.3942C18.0171 83.4698 18.2577 83.6179 18.4528 83.7232C18.9242 83.9765 18.973 83.9995 19.1323 84.0686C19.2071 84.0982 19.4054 84.1903 19.5745 84.266C19.7435 84.3449 19.9191 84.4074 19.9646 84.4074C20.0101 84.4074 20.0622 84.4305 20.0784 84.4634C20.0979 84.493 20.1727 84.5193 20.2442 84.5193C20.3157 84.5193 20.4198 84.5423 20.4718 84.5686C20.6539 84.6641 21.4569 84.8483 22.1104 84.9404C22.6306 85.0161 127.521 84.993 127.993 84.9174C128.851 84.7792 129.462 84.6377 129.544 84.5588C129.566 84.5358 129.651 84.5193 129.732 84.5193C129.814 84.5193 129.898 84.4963 129.918 84.4634C129.937 84.4338 129.986 84.4074 130.028 84.4074C130.07 84.4074 130.246 84.3416 130.418 84.266C130.591 84.187 130.792 84.0982 130.867 84.0686C131.023 84.0061 131.069 83.9831 131.546 83.7264C131.742 83.6212 131.982 83.4731 132.08 83.3975C132.177 83.3218 132.278 83.2593 132.301 83.2593C132.337 83.2593 132.857 82.8974 132.925 82.8217C132.941 82.8053 133.136 82.6309 133.357 82.4368C133.829 82.0256 134.229 81.6143 134.434 81.3413C134.512 81.236 134.635 81.088 134.703 81.0123C134.775 80.9366 134.944 80.703 135.077 80.4925C135.214 80.2819 135.337 80.0977 135.357 80.0813C135.409 80.0352 135.62 79.6404 135.851 79.1502C136.066 78.7028 136.118 78.5844 136.218 78.3146C136.244 78.2455 136.306 78.0975 136.355 77.9823C136.404 77.8672 136.443 77.729 136.443 77.6698C136.443 77.6106 136.469 77.5513 136.498 77.5316C136.527 77.5119 136.553 77.4132 136.553 77.3112C136.553 77.2092 136.576 77.1105 136.609 77.0908C136.638 77.071 136.664 76.9822 136.664 76.8901C136.664 76.798 136.696 76.5973 136.739 76.4427C137.002 75.4458 137.002 74.0016 136.739 72.679C136.56 71.7743 136.459 71.4256 136.124 70.5801C135.9 70.0077 135.194 68.7345 135.077 68.6851C135.055 68.6753 135.035 68.6325 135.035 68.593C135.035 68.5535 135.016 68.5108 134.996 68.5009C134.973 68.491 134.882 68.3825 134.794 68.264C133.813 66.9316 131.985 65.4972 130.552 64.938C130.483 64.9116 130.376 64.8656 130.308 64.836C129.992 64.6978 129.768 64.6254 129.293 64.507C129.189 64.4807 128.945 64.4182 128.75 64.3688C128.555 64.3195 128.227 64.2504 128.019 64.2175C127.564 64.1484 22.5949 64.1089 22.3803 64.178L22.3868 64.1681ZM128.396 64.382C128.695 64.4478 129.024 64.5267 129.128 64.5563C129.602 64.6879 129.706 64.7208 129.859 64.7702C129.947 64.7998 130.096 64.8524 130.184 64.8919C130.272 64.9281 130.396 64.9774 130.454 65.0005C131.501 65.392 132.87 66.3164 133.816 67.2738C135.354 68.8299 136.235 70.5637 136.693 72.9225C136.843 73.6923 136.823 75.6268 136.657 76.4032C136.589 76.719 136.518 77.0644 136.498 77.1697C136.01 79.5286 133.894 82.3019 131.592 83.5883C131.007 83.914 130.304 84.243 130.194 84.243C130.155 84.243 130.103 84.2627 130.074 84.289C130.044 84.3153 129.911 84.368 129.778 84.4042C129.645 84.4436 129.472 84.4963 129.397 84.5193C129.261 84.5654 128.695 84.7002 128.396 84.7595C127.365 84.9601 128.656 84.9536 74.9948 84.9536C18.4626 84.9536 22.5006 84.9766 21.0798 84.6443C17.6172 83.8383 14.6846 81.0913 13.6312 77.6599C13.5337 77.3441 13.5305 77.3243 13.3321 76.3999C13.0915 75.2682 13.1663 73.235 13.4914 72.0145C13.6247 71.5177 13.6507 71.4256 13.7093 71.2479C13.745 71.1427 13.7971 71.0012 13.8231 70.9321C13.8491 70.863 13.8946 70.7545 13.9206 70.6854C14.8439 68.2739 17.2596 65.8262 19.5355 64.9939C19.594 64.9709 19.7175 64.9248 19.8053 64.8853C20.0524 64.7801 20.1955 64.7373 20.9172 64.5399C21.4277 64.3984 21.8438 64.3293 22.4063 64.2866C22.7054 64.2635 46.5531 64.2504 75.4012 64.2504L127.853 64.257L128.396 64.3787V64.382ZM32.872 68.6062C32.8134 68.6325 32.6931 68.6555 32.6054 68.6588C31.2496 68.6917 29.3541 70.3367 28.7754 71.9783C28.6714 72.2744 28.5608 72.6922 28.5121 72.9784C28.4828 73.1528 28.434 73.4456 28.4015 73.6265C27.8293 76.9559 29.5655 80.1865 32.2737 80.8412C32.7907 80.9662 33.3596 81.0353 33.4247 80.9827C33.5807 80.8577 33.5124 79.9628 33.3434 79.9201C32.6801 79.7589 32.7094 79.9628 32.6899 75.1333C32.6704 69.9188 32.6736 69.8728 33.2361 69.6918L33.4669 69.6195V68.5766L33.2231 68.5667C33.0898 68.5601 32.9305 68.5766 32.872 68.6029V68.6062ZM33.9091 68.5864C33.714 68.7838 33.9221 69.7017 34.1627 69.7017C34.3318 69.7017 34.5593 69.9912 34.6374 70.3038C34.7479 70.7479 34.7479 78.7225 34.6374 79.2292C34.5593 79.5845 34.3025 79.897 34.0879 79.897C33.9188 79.897 33.8733 80.022 33.8733 80.4826C33.8733 81.0386 33.8896 81.0518 34.4553 80.9597C35.8143 80.7392 36.5979 80.3379 37.4952 79.4068C37.9211 78.966 38.1844 78.535 38.5909 77.6237C39.0558 76.5808 39.1598 74.1332 38.7989 72.6626C38.4966 71.4289 37.8073 70.2906 36.9847 69.6688C36.8677 69.58 36.7604 69.4944 36.7474 69.4747C36.7246 69.4451 36.3247 69.2115 36.0972 69.0931C35.4307 68.7509 34.0619 68.4351 33.9123 68.5864H33.9091ZM44.6316 68.6029C44.5731 68.6292 44.4593 68.6522 44.3813 68.6555C44.3032 68.6555 44.0464 68.7213 43.8123 68.797C41.4227 69.5767 40.1059 71.7085 40.1059 74.7977C40.1059 77.8277 41.5235 80.1207 43.7896 80.7688C43.9229 80.8083 44.1179 80.861 44.222 80.8906C44.326 80.9202 44.5959 80.9498 44.8169 80.9531L45.2233 80.9629L45.2396 80.4695L45.2559 79.976L44.9697 79.8378C44.43 79.5812 44.4658 79.9464 44.4658 74.7648V70.2676L44.5828 70.0471C44.6934 69.8366 44.7617 69.784 45.103 69.6458L45.2559 69.5833L45.2396 69.0766L45.2233 68.57L44.9795 68.5601C44.8462 68.5535 44.6869 68.57 44.6284 68.5963L44.6316 68.6029ZM45.6655 68.5799C45.4737 68.774 45.6785 69.6951 45.9126 69.6951C45.9614 69.6951 46.0687 69.7543 46.1564 69.83C46.4458 70.0768 46.449 70.136 46.4295 74.9326C46.41 79.8707 46.4295 79.6338 46.0134 79.8181C45.6395 79.9826 45.6558 79.9562 45.6395 80.4563C45.6167 81.1209 45.724 81.1439 47.1058 80.7656C49.8563 80.0122 51.3584 76.6466 50.6106 72.906C50.5813 72.7547 50.5423 72.5573 50.5261 72.4685C50.5098 72.3764 50.4773 72.2777 50.4546 72.2481C50.4318 72.2185 50.3993 72.1231 50.3765 72.0342C50.3278 71.827 49.8693 70.8861 49.7555 70.7578C49.7068 70.7018 49.593 70.5571 49.5084 70.4386C49.3394 70.2051 48.7217 69.5899 48.6566 69.5899C48.6371 69.5899 48.5851 69.557 48.5461 69.5208C48.4355 69.4122 47.7983 69.0437 47.7235 69.0437C47.6878 69.0437 47.6325 69.0207 47.6065 68.9944C47.4114 68.8036 45.789 68.4647 45.6688 68.5864L45.6655 68.5799ZM33.3856 69.0635V69.5241L33.1841 69.6063C32.8947 69.7247 32.7484 69.909 32.6541 70.2676C32.5501 70.6689 32.5306 78.9035 32.6346 79.2358C32.7387 79.5713 32.8589 79.7852 32.963 79.8181C33.0183 79.8345 33.0638 79.8707 33.0638 79.897C33.0638 79.9233 33.1321 79.953 33.2133 79.9628C33.3564 79.9793 33.4669 80.6011 33.3726 80.8544C33.3401 80.9399 32.225 80.8083 32.1664 80.7129C32.1502 80.6866 32.0949 80.6636 32.0396 80.6636C31.9226 80.6636 31.0903 80.3116 31.0058 80.226C30.9895 80.2096 30.8432 80.1109 30.6806 80.0023C30.3002 79.749 29.7963 79.2423 29.5492 78.8574C29.4419 78.6929 29.3411 78.5449 29.3281 78.5284C29.2599 78.4626 28.8957 77.6698 28.8957 77.5941C28.8957 77.5481 28.8762 77.4855 28.8502 77.4559C28.8242 77.4263 28.7624 77.2059 28.7071 76.9657C28.6519 76.7256 28.5901 76.4788 28.5673 76.4163C28.5121 76.2683 28.4048 74.7056 28.4373 74.4983C28.4503 74.4062 28.4828 74.0739 28.5088 73.7581C28.5348 73.4423 28.5966 73.0212 28.6454 72.8271C28.6941 72.6297 28.7462 72.4093 28.7624 72.3336C28.7949 72.179 28.8242 72.1033 29.0225 71.6592C29.1005 71.4848 29.1623 71.317 29.1623 71.2907C29.1623 71.2644 29.1883 71.2381 29.2176 71.2381C29.2468 71.2381 29.2729 71.2118 29.2729 71.1822C29.2729 71.1525 29.3411 71.0209 29.4224 70.8959C29.8158 70.2873 30.4628 69.6622 31.035 69.3431C31.4902 69.0898 31.6397 69.024 32.0364 68.9056C32.199 68.8562 32.3908 68.7937 32.4591 68.7674C32.5273 68.7411 32.6736 68.7147 32.7842 68.7115C32.8947 68.7115 33.0475 68.6851 33.119 68.6621C33.3856 68.5766 33.3889 68.5799 33.3889 69.0668L33.3856 69.0635ZM34.4716 68.6917C35.2258 68.7838 36.3313 69.2313 36.8254 69.6491C37.6708 70.3597 38.2625 71.2052 38.5388 72.0902C38.5778 72.2119 38.6266 72.3599 38.6494 72.4191C38.6949 72.5343 38.7111 72.6165 38.8412 73.4061C39.0395 74.597 38.9322 76.5414 38.6396 77.1204C38.6136 77.173 38.5909 77.2618 38.5909 77.3178C38.5909 77.4165 38.5258 77.5777 38.3145 78.0021C38.256 78.1172 38.2105 78.2455 38.2105 78.285C38.2105 78.3245 38.191 78.3672 38.1714 78.3771C38.1487 78.387 38.0121 78.5745 37.8691 78.7916C37.4627 79.4035 36.3443 80.3971 36.0549 80.3971C36.0321 80.3971 35.8858 80.4596 35.7298 80.5353C35.577 80.6109 35.4047 80.6734 35.3494 80.6734C35.2941 80.6734 35.2291 80.6965 35.1998 80.7228C35.1478 80.7721 35.0405 80.7919 34.374 80.8807C33.9611 80.9366 33.9839 80.9564 33.9839 80.5057C33.9839 80.0549 34.0164 79.9628 34.1692 79.9628C34.348 79.9628 34.6016 79.6963 34.6926 79.4134C34.8064 79.0515 34.8097 70.4353 34.6926 70.1458C34.5853 69.8794 34.426 69.7116 34.1854 69.6129L33.9839 69.5306V69.0635C33.9839 68.6062 33.9839 68.5963 34.1074 68.6325C34.1757 68.6522 34.3383 68.6818 34.4716 68.695V68.6917ZM45.1356 69.0733C45.1518 69.5208 45.0933 69.6458 44.8657 69.6491C44.7259 69.6491 44.5048 69.9846 44.4138 70.3334C44.313 70.7281 44.2935 78.7489 44.391 79.1831C44.5048 79.6733 44.6511 79.851 45.051 79.9826C45.1323 80.0089 45.1453 80.0846 45.1453 80.4596V80.9037L44.8072 80.8741C44.287 80.8314 43.9846 80.7787 43.9294 80.7228C43.9001 80.6965 43.8383 80.6734 43.7928 80.6734C43.6628 80.6734 43.0418 80.3971 42.7069 80.1865C42.1542 79.8444 41.751 79.4628 41.3381 78.8969C41.2276 78.7423 41.1105 78.5877 41.0813 78.5515C41.052 78.5153 41.026 78.4659 41.026 78.4429C41.026 78.4199 40.9447 78.2389 40.8472 78.0415C40.1709 76.6993 40.0181 74.2121 40.4993 72.4389C40.5383 72.2974 40.5871 72.1625 40.6066 72.1428C40.6294 72.1198 40.6456 72.0605 40.6456 72.0079C40.6456 71.5539 41.9559 69.7642 42.3915 69.6227C42.4468 69.6063 42.4891 69.5734 42.4891 69.5504C42.4891 69.5273 42.6289 69.4352 42.8012 69.3497C42.9735 69.2609 43.1198 69.172 43.1296 69.149C43.1393 69.126 43.1816 69.1095 43.2238 69.1095C43.2661 69.1095 43.3441 69.0865 43.3962 69.0569C43.5717 68.9582 44.378 68.7246 44.5568 68.7213C44.6544 68.7213 44.7974 68.695 44.8722 68.672C45.0933 68.5996 45.116 68.6358 45.1323 69.0799L45.1356 69.0733ZM46.228 68.7016C46.5596 68.7411 47.1351 68.899 47.5024 69.0536C47.8893 69.2148 48.3803 69.4714 48.4518 69.5504C48.4681 69.5668 48.5753 69.6524 48.6924 69.7412C49.3491 70.238 49.9896 71.1854 50.3245 72.1527C50.422 72.429 50.4415 72.5211 50.6074 73.4127C50.7342 74.0937 50.7342 75.4721 50.6041 76.2091C50.5488 76.5117 50.4936 76.8506 50.4773 76.9625C50.4611 77.0743 50.4253 77.1829 50.3993 77.1993C50.3733 77.2158 50.3505 77.2783 50.3505 77.3342C50.3505 77.4263 50.2757 77.6106 50.0059 78.2093C49.8303 78.6008 49.3882 79.193 48.9687 79.6009C48.5428 80.0155 47.3886 80.68 47.096 80.68C47.0505 80.68 46.9888 80.703 46.9595 80.7294C46.8587 80.8248 45.7923 80.9498 45.763 80.8708C45.672 80.634 45.776 79.9957 45.9061 79.976C46.0882 79.9497 46.3938 79.7095 46.3938 79.5911C46.3938 79.5384 46.423 79.4628 46.4621 79.4266C46.5693 79.318 46.5596 70.4189 46.4523 70.1524C46.3483 69.8859 46.1857 69.7182 45.9451 69.6195L45.7435 69.5372V69.0701C45.7435 68.6128 45.7435 68.6029 45.8671 68.6391C45.9354 68.6588 46.0979 68.6884 46.2312 68.7016H46.228ZM17.3084 68.8167C17.2141 68.8562 17.2108 72.156 17.3051 72.5606C17.4092 73.0212 17.7505 73.1956 18.1537 72.9949C18.4203 72.86 18.5341 72.633 18.6251 72.0244C18.7357 71.2973 19.0315 70.6426 19.4477 70.2018L19.737 69.8958L19.7208 69.3497L19.7045 68.8036L18.5406 68.7937C17.9001 68.7871 17.3441 68.7937 17.3084 68.8134V68.8167ZM20.3645 68.8134C20.345 68.8332 20.3288 71.1789 20.3288 74.0246C20.3288 79.9069 20.371 79.4068 19.8443 79.6536C19.2168 79.9464 19.0478 80.4958 19.5094 80.7359C19.7175 80.8445 24.6886 80.8741 25.043 80.7688C25.638 80.5912 25.5502 79.9793 24.887 79.6766C24.6951 79.5911 24.5066 79.4759 24.4676 79.4233C24.409 79.3476 24.396 78.3212 24.396 74.1397C24.396 71.2841 24.3798 68.9088 24.3603 68.8628C24.3278 68.774 20.4523 68.7246 20.3645 68.8134V68.8134ZM24.8642 68.8134C24.8447 68.8332 24.8284 69.0997 24.8284 69.4056V69.9616L25.0593 70.1557C25.4234 70.465 25.7648 71.2348 25.9143 72.0967C26.0509 72.8863 26.3565 73.1923 26.8344 73.0311C27.2636 72.883 27.2701 72.8468 27.2538 70.7051L27.2408 68.8102L26.0737 68.7937C25.4299 68.7871 24.8902 68.7937 24.8675 68.8167L24.8642 68.8134ZM52.0379 68.8398C51.5632 69.0306 51.6835 69.6359 52.2492 69.9155C52.6621 70.1162 52.6296 69.6951 52.6296 74.7681C52.6296 79.8411 52.6556 79.4397 52.233 79.6799C51.6608 80.0089 51.5762 80.5517 52.0672 80.759C52.337 80.8741 56.5376 80.884 56.6286 80.7688C56.6709 80.7162 56.6936 79.1601 56.7034 75.4524C56.7196 69.5471 56.6709 70.1491 57.1618 69.8794C57.6365 69.6195 57.734 69.0503 57.3374 68.8463C57.1716 68.7608 52.2427 68.7509 52.0346 68.8365L52.0379 68.8398ZM19.6135 69.3661L19.6297 69.8761L19.3696 70.136C18.96 70.5439 18.7454 71.044 18.5146 72.1231C18.3618 72.837 18.2772 72.9422 17.8578 72.9422C17.3929 72.9422 17.4027 72.9982 17.4027 70.7512V68.8299L18.5016 68.8463L19.6005 68.8628L19.6167 69.3727L19.6135 69.3661ZM24.2205 68.8825C24.2725 68.9154 24.292 70.0833 24.3017 74.1299C24.3147 78.6107 24.3278 79.3542 24.396 79.4595C24.4741 79.5779 24.9422 79.8575 25.0625 79.8575C25.2934 79.8575 25.4104 80.3609 25.2348 80.5978C25.1145 80.759 19.6427 80.7721 19.4834 80.6109C19.2136 80.3379 19.3794 79.9924 19.8898 79.7391C20.0882 79.6404 20.28 79.5253 20.3157 79.4759C20.3678 79.4101 20.3808 78.183 20.384 74.1496C20.384 71.2677 20.4003 68.8924 20.423 68.8727C20.4751 68.82 24.1392 68.8299 24.2205 68.8792V68.8825ZM27.2018 70.6591C27.2181 72.5442 27.2083 72.633 26.9677 72.8764C26.8767 72.9686 26.3793 72.9686 26.3077 72.8764C26.1517 72.6823 26.0249 72.3698 26.0249 72.1856C26.0249 72.0704 26.0021 71.9059 25.9761 71.8171C25.9501 71.7283 25.8818 71.5111 25.8266 71.3302C25.6477 70.7446 25.3616 70.261 25.069 70.0406L24.887 69.9057V69.4089C24.8837 68.7805 24.7732 68.8332 26.0737 68.8496L27.1888 68.8661L27.2018 70.6624V70.6591ZM57.1521 68.8858C57.4187 68.9746 57.4674 69.0372 57.4674 69.3069C57.4674 69.5931 57.4057 69.6655 56.9765 69.8826C56.5538 70.0965 56.5798 69.7116 56.5798 75.5412V80.7458L54.3007 80.7294C51.7485 80.7096 51.8656 80.7294 51.8656 80.3148C51.8656 80.0517 51.9404 79.9431 52.2167 79.8016C52.8182 79.499 52.7954 79.7227 52.7759 74.6266C52.7564 69.7511 52.7987 70.1129 52.2362 69.807C52.0607 69.7116 51.9143 69.5931 51.8981 69.5273C51.8136 69.2082 51.9274 68.922 52.1517 68.8792C52.35 68.8398 57.0318 68.8496 57.1488 68.8858H57.1521ZM59.9254 76.6302C59.7563 76.7585 59.675 76.9164 59.4767 77.5283C59.1321 78.5942 58.3062 79.5286 57.7178 79.5286C57.6885 79.5286 57.5422 79.5549 57.3927 79.5878L57.1163 79.647L57.1326 80.2326L57.1488 80.8182H60.7252L60.7414 79.1173C60.7609 77.1533 60.7252 76.8539 60.4488 76.6433C60.244 76.4854 60.1204 76.4821 59.9254 76.6302V76.6302ZM60.5008 76.7881C60.5951 76.8802 60.6016 77.0085 60.6081 78.7949L60.6146 80.7063L58.8947 80.7195L57.1748 80.7327V80.2425C57.1748 79.6931 57.1293 79.749 57.6755 79.624C57.8478 79.5845 57.9876 79.5351 57.9876 79.5121C57.9876 79.4891 58.0234 79.4693 58.0689 79.4693C58.5208 79.4693 59.3434 78.4133 59.5352 77.5908C59.5547 77.5086 59.5937 77.4263 59.6197 77.4099C59.6457 77.3934 59.6685 77.3211 59.6685 77.2487C59.6685 77.1763 59.6945 77.1039 59.7238 77.0842C59.753 77.0644 59.779 77.0118 59.779 76.969C59.779 76.6697 60.257 76.5479 60.5041 76.7815" fill="white"/>
</svg>
